<?xml version="1.0" encoding="utf-8" ?>
<svg baseProfile="full" height="200mm" version="1.1" viewBox="0,0,200,200" width="200mm" xmlns="http://www.w3.org/2000/svg" xmlns:ev="http://www.w3.org/2001/xml-events" xmlns:xlink="http://www.w3.org/1999/xlink"><defs /><rect fill="#1a1a1a" height="200" width="200" x="0" y="0" /><text alignment-baseline="middle" fill="#e1ed5e" style="dominant-baseline: central; font-size:9.0px; font-family:Arial;" text-anchor="middle" x="100.0" y="100.0">2026</text><line stroke="#e1ed5e" stroke-width="0.3" x1="100.0" x2="100.0" y1="15.0" y2="10.0" /><path d="M 100.0 14.0 a86.0,86.0 0 0,1 42.46469731375804,11.215312516191453" fill="none" id="id121" stroke="none" /><text fill="#e1ed5e" style="font-size:6.75px; font-family:Arial;" text-anchor="middle"><textPath startOffset="22.20632615414155" xlink:href="#id121">January</textPath></text><path d="M 100.36148047927253 79.00311137660856 l 0.6388870009752602 -37.11027281309018 a58.1157719152114,58.1157719152114 0 0,0 1.0000710497736927,0.02582888471866123 l -1.2775846859438207 37.09377713622916" fill="red" stroke="none" /><path d="M 102.52436894288641 79.15227682838746 l 5.020153119801893 -41.459376536723006 a62.762205882352944,62.762205882352944 0 0,0 1.0713964959610358,0.13909801446106615 l -5.733064344270776 41.3668201990978" fill="red" stroke="none" /><line stroke="#e1ed5e" stroke-width="0.3" x1="143.23703022742887" x2="145.7803849466894" y1="26.81831364943548" y2="22.513508569990506" /><path d="M 143.74570117128098 25.957352633546492 a86.0,86.0 0 0,1 28.547481713284135,27.462654790039103" fill="none" id="id122" stroke="none" /><text fill="#e1ed5e" style="font-size:6.75px; font-family:Arial;" text-anchor="middle"><textPath startOffset="19.985693538727396" xlink:href="#id122">February</textPath></text><path d="M 110.99172775467656 82.1063720568725 l 19.42910691475954 -31.62898664880398 a58.11984633501838,58.11984633501838 0 0,0 0.8479432278150829,0.5309819714673437 l -19.970669294946887 31.289860336013696" fill="red" stroke="none" /><path d="M 112.77801427241765 83.33499621200491 l 22.56770148143403 -29.432650696459337 a58.08884033203125,58.08884033203125 0 0,0 0.7882584953890845,0.6152482588002541 l -23.070992531982544 29.03982404843586" fill="red" stroke="none" /><path d="M 113.6212207817346 84.01681056812373 l 25.48530369139094 -29.904546967964514 a60.290999396829044,60.290999396829044 0 0,0 0.7840878962408673,0.6799532970896478 l -25.996285386278572 29.461428677455196" fill="red" stroke="none" /><path d="M 117.04232023915458 87.72973835380427 l 32.53960260042363 -23.428114961313252 a61.09616325827206,61.09616325827206 0 0,0 0.6071427738287172,0.8587603964402036 l -32.93805799405623 22.864528064541258" fill="red" stroke="none" /><path d="M 117.45458315368197 88.32363383020206 l 24.026131438095064 -16.072449616518835 a49.906376953125005,49.906376953125005 0 0,0 0.4715044335521768,0.7181336003597765 l -24.299232507005165 15.656497952181386" fill="red" stroke="none" /><line stroke="#e1ed5e" stroke-width="0.3" x1="172.23445277983987" x2="176.4835382374775" y1="55.19839476539836" y2="52.563006222186495" /><path d="M 173.08426987136738 54.67131705675599 a86.0,86.0 0 0,1 12.851231095245387,41.99856678651699" fill="none" id="id123" stroke="none" /><text fill="#e1ed5e" style="font-size:6.75px; font-family:Arial;" text-anchor="middle"><textPath startOffset="22.20632615414155" xlink:href="#id123">March</textPath></text><path d="M 118.21658344932153 89.55222093294921 l 36.387303656965386 -20.869254133810852 a62.947129049862134,62.947129049862134 0 0,0 0.5309810911315328,0.9445561126606727 l -36.741142389389346 20.239814511215386" fill="red" stroke="none" /><path d="M 118.3937258080291 89.86733742301442 l 35.54284525218981 -19.57970134627353 a61.57904081456802,61.57904081456802 0 0,0 0.503458217416996,0.9328316148219413 l -35.874611568825266 18.96498874811913" fill="red" stroke="none" /><path d="M 118.56541770881063 90.18545643968196 l 32.81765258375055 -17.348938003035006 a58.1212064855239,58.1212064855239 0 0,0 0.45996172624986376,0.8884996522377204 l -33.111423743160536 16.78146562853694" fill="red" stroke="none" /><path d="M 119.34039704204932 91.81776055985345 l 35.868587253747016 -15.174733416892074 a59.94647719439338,59.94647719439338 0 0,0 0.39387208573321125,0.9537924972565693 l -36.124481026366425 14.555066349182201" fill="red" stroke="none" /><path d="M 119.47837535516314 92.15188598940014 l 38.73870714934726 -15.608375174407387 a62.76492316750919,62.76492316750919 0 0,0 0.3951394135202004,1.005586707492767 l -39.001640112749165 14.939239462018836" fill="red" stroke="none" /><path d="M 119.7369772167798 92.82701384747503 l 35.00178816286314 -12.720658236985727 a58.241647661994485,58.241647661994485 0 0,0 0.3343262473435235,0.9451853220967874 l -35.21556749101647 12.116275288462326" fill="red" stroke="none" /><path d="M 120.73433829027371 96.67025291283417 l 36.62440418952125 -5.8815478681780755 a58.09365966796875,58.09365966796875 0 0,0 0.1500589840728735,0.9887012157011585 l -36.72021906703342 5.2502475400848345" fill="red" stroke="none" /><path d="M 120.83666639777658 97.38593545837742 l 24.731407173094556 -3.102679350019027 a45.92527070886949,45.92527070886949 0 0,0 0.09165294683920659,0.7852264770069438 l -24.78115047293735 2.6765091346872305" fill="red" stroke="none" /><line stroke="#e1ed5e" stroke-width="0.3" x1="184.98032266829074" x2="189.97916517819016" y1="98.17113171792111" y2="98.06355123074" /><path d="M 185.9800911702706 98.14961562048488 a86.0,86.0 0 0,1 -9.607161424134198,41.387399972396054" fill="none" id="id124" stroke="none" /><text fill="#e1ed5e" style="font-size:6.75px; font-family:Arial;" text-anchor="middle"><textPath startOffset="21.466115282336823" xlink:href="#id124">April</textPath></text><path d="M 120.92983693683757 101.71520430193887 l 33.64853021467702 2.7575037470337067 a54.76133013556985,54.76133013556985 0 0,0 -0.08507669067034891,0.9388141922210084 l -33.59607892772959 -3.3362993278032858" fill="red" stroke="none" /><path d="M 120.81339534386255 102.79330883721812 l 24.576457042689533 3.2983390509179666 a45.796799819048715,45.796799819048715 0 0,0 -0.11158270110211273,0.7804091516215883 l -24.51604029057082 -3.720893674519964" fill="red" stroke="none" /><path d="M 120.5718875245553 104.21870165774334 l 36.39917077393037 7.4644216239842756 a58.15665785845588,58.15665785845588 0 0,0 -0.20954663911589216,0.978932136281248 l -36.26529009609004 -8.089867579681693" fill="red" stroke="none" /><path d="M 120.41448212921028 104.9243191809786 l 42.12155994278896 10.160434354698934 a64.3296692612592,64.3296692612592 0 0,0 -0.2689246245847318,1.0742201957474613 l -41.94042400390917 -10.88398238984379" fill="red" stroke="none" /><path d="M 118.64920377521936 109.65438752849418 l 34.93873369557931 18.087210527464613 a60.34288114659927,60.34288114659927 0 0,0 -0.4854656388667302,0.9183180362331007 l -34.62221554848769 -18.68594357878385" fill="red" stroke="none" /><line stroke="#e1ed5e" stroke-width="0.3" x1="174.80103733775053" x2="179.2010983576182" y1="140.37084112569926" y2="142.7455964860345" /><path d="M 175.68104954172406 140.8457921977663 a86.0,86.0 0 0,1 -30.038265399797805,32.042727171017184" fill="none" id="id125" stroke="none" /><text fill="#e1ed5e" style="font-size:6.75px; font-family:Arial;" text-anchor="middle"><textPath startOffset="22.206326154141568" xlink:href="#id125">May</textPath></text><path d="M 117.35343817320211 111.8261652097733 l 34.38655348977535 23.434034138132493 a62.612366153492644,62.612366153492644 0 0,0 -0.61461220758634,0.8853947249726358 l -33.97808037502687 -24.02247012529215" fill="red" stroke="none" /><path d="M 116.71984013943494 112.70617746262583 l 30.515477918155383 23.190118718325614 a59.327222684972426,59.327222684972426 0 0,0 -0.6248941529191172,0.8077599292274789 l -30.1117769480182 -23.711956641666347" fill="red" stroke="none" /><path d="M 116.27256486870786 113.27417163493432 l 33.07111599916669 26.97741096586084 a63.678793514476105,63.678793514476105 0 0,0 -0.7001756259259819,0.8434066465061033 l -32.60184437334716 -27.542678869480714" fill="red" stroke="none" /><line stroke="#e1ed5e" stroke-width="0.3" x1="143.8653032363475" x2="146.44561519142675" y1="172.8068346515853" y2="177.08958963109032" /><path d="M 144.38136562736335 173.6633856474863 a86.0,86.0 0 0,1 -40.68145358897372,12.25698825130547" fill="none" id="id126" stroke="none" /><text fill="#e1ed5e" style="font-size:6.75px; font-family:Arial;" text-anchor="middle"><textPath startOffset="21.466115282336833" xlink:href="#id126">June</textPath></text><path d="M 106.2309692047433 120.05430185196036 l 12.181985057918029 39.207577100779986 a62.05648380055147,62.05648380055147 0 0,0 -1.0228239067435403,0.30816845274938237 l -11.505286176734243 -39.411460922635094" fill="red" stroke="none" /><path d="M 101.98527174616119 120.90594882070398 l 3.5387702664792413 37.265099965431745 a58.43274730009191,58.43274730009191 0 0,0 -1.002137427147652,0.08646863398867942 l -2.896788521590048 -37.320492851699086" fill="red" stroke="none" /><line stroke="#e1ed5e" stroke-width="0.3" x1="102.19456741930631" x2="102.32365962044197" y1="184.97166512339345" y2="189.96999836594603" /><path d="M 102.22038585953345 185.97133177190398 a86.0,86.0 0 0,1 -42.740103519485714,-10.115201625700543" fill="none" id="id127" stroke="none" /><text fill="#e1ed5e" style="font-size:6.75px; font-family:Arial;" text-anchor="middle"><textPath startOffset="22.20632615414155" xlink:href="#id127">July</textPath></text><path d="M 98.01472825383883 120.90594882070398 l -3.492489930398734 36.777743844349374 a57.9431986730239,57.9431986730239 0 0,0 -0.9921183567250207,-0.10283712420175843 l 4.125040883729348 -36.71217735169186" fill="red" stroke="none" /><path d="M 95.86986931433489 120.58985236759428 l -7.297406267991409 36.37960373646243 a58.104281508501835,58.104281508501835 0 0,0 -0.9789424250104067,-0.20514690323984938 l 7.922540154431203 -36.24860085249604" fill="red" stroke="none" /><path d="M 93.08242187328487 119.8279376855182 l -20.752734380145377 59.483813056554574 a84.0,84.0 0 0,0 -1.3611217574810934,-0.4880498358401688 l 21.773575698256195 -59.117775679674445" fill="red" stroke="none" /><path d="M 92.7421414339146 119.70592522655815 l -20.43731754904462 55.48968029424111 a80.13365004595587,80.13365004595587 0 0,0 -1.2902653999862763,-0.4878679706532443 l 21.38945316979118 -55.12966407348123" fill="red" stroke="none" /><line stroke="#e1ed5e" stroke-width="0.3" x1="58.666819895761336" x2="56.23545636021788" y1="174.27360380694188" y2="178.64263932499728" /><path d="M 58.180547188652646 175.14741091055294 a86.0,86.0 0 0,1 -31.652253787137756,-30.449443065178592" fill="none" id="id128" stroke="none" /><text fill="#e1ed5e" style="font-size:6.75px; font-family:Arial;" text-anchor="middle"><textPath startOffset="22.20632615414155" xlink:href="#id128">August</textPath></text><line stroke="#e1ed5e" stroke-width="0.3" x1="26.63291911575756" x2="22.317208475507996" y1="142.92168965132927" y2="145.44649492493687" /><path d="M 25.769776987707644 143.4266507060508 a86.0,86.0 0 0,1 -11.730757126820373,-40.83630448921669" fill="none" id="id129" stroke="none" /><text fill="#e1ed5e" style="font-size:6.75px; font-family:Arial;" text-anchor="middle"><textPath startOffset="21.46611528233685" xlink:href="#id129">September</textPath></text><line stroke="#e1ed5e" stroke-width="0.3" x1="15.007084014347285" x2="10.007500721073583" y1="101.09737516637583" y2="101.16192664675087" /><path d="M 14.007167355692545 101.11028546245083 a86.0,86.0 0 0,1 10.666146001902534,-42.60595125391555" fill="none" id="id130" stroke="none" /><text fill="#e1ed5e" style="font-size:6.75px; font-family:Arial;" text-anchor="middle"><textPath startOffset="22.20632615414155" xlink:href="#id130">October</textPath></text><line stroke="#e1ed5e" stroke-width="0.3" x1="26.266209847984243" x2="21.928928074336255" y1="57.711370442889674" y2="55.22380399835377" /><path d="M 25.398753493254645 57.213857153982495 a86.0,86.0 0 0,1 29.58750427330803,-30.492523968695096" fill="none" id="id131" stroke="none" /><text fill="#e1ed5e" style="font-size:6.75px; font-family:Arial;" text-anchor="middle"><textPath startOffset="21.46611528233685" xlink:href="#id131">November</textPath></text><line stroke="#e1ed5e" stroke-width="0.3" x1="56.762969772571076" x2="54.21961505331055" y1="26.818313649435495" y2="22.513508569990535" /><path d="M 56.25429882871897 25.957352633546506 a86.0,86.0 0 0,1 42.265352541879196,-11.944610805530505" fill="none" id="id132" stroke="none" /><text fill="#e1ed5e" style="font-size:6.75px; font-family:Arial;" text-anchor="middle"><textPath startOffset="22.20632615414155" xlink:href="#id132">December</textPath></text></svg>