<?xml version="1.0" encoding="utf-8" ?>
<svg baseProfile="full" height="200mm" version="1.1" viewBox="0,0,200,200" width="200mm" xmlns="http://www.w3.org/2000/svg" xmlns:ev="http://www.w3.org/2001/xml-events" xmlns:xlink="http://www.w3.org/1999/xlink"><defs /><rect fill="#1a1a1a" height="200" width="200" x="0" y="0" /><text alignment-baseline="middle" fill="#e1ed5e" style="dominant-baseline: central; font-size:9.0px; font-family:Arial;" text-anchor="middle" x="100.0" y="100.0">2026</text><line stroke="#e1ed5e" stroke-width="0.3" x1="100.0" x2="100.0" y1="15.0" y2="10.0" /><path d="M 100.0 14.0 a86.0,86.0 0 0,1 42.46469731375804,11.215312516191453" fill="none" id="id121" stroke="none" /><text fill="#e1ed5e" style="font-size:6.75px; font-family:Arial;" text-anchor="middle"><textPath startOffset="22.20632615414155" xlink:href="#id121">January</textPath></text><path d="M 100.36148047927253 79.00311137660856 l 0.9595383992453157 -55.73557094802809 a76.74382999796748,76.74382999796748 0 0,0 1.3206274321142166,0.03410791034106885 l -1.9187924665544003 55.710796245544664" fill="red" stroke="none" /><path d="M 102.52436894288641 79.15227682838746 l 7.539720922773349 -62.26744907163399 a83.72226562778037,83.72226562778037 0 0,0 1.4291999582625272,0.18555117289592665 l -8.610435609543723 62.12843957557393" fill="red" stroke="none" /><line stroke="#e1ed5e" stroke-width="0.3" x1="143.23703022742887" x2="145.7803849466894" y1="26.81831364943548" y2="22.513508569990506" /><path d="M 143.74570117128098 25.957352633546492 a86.0,86.0 0 0,1 28.547481713284135,27.462654790039103" fill="none" id="id122" stroke="none" /><text fill="#e1ed5e" style="font-size:6.75px; font-family:Arial;" text-anchor="middle"><textPath startOffset="19.985693538727396" xlink:href="#id122">February</textPath></text><path d="M 110.99172775467656 82.1063720568725 l 29.18039358962694 -47.503278627389165 a76.74994933089096,76.74994933089096 0 0,0 1.1197483110182962,0.7011862896337496 l -29.9937610530175 46.99394799643247" fill="red" stroke="none" /><path d="M 112.77801427241765 83.33499621200491 l 33.89421935504349 -44.20462224417794 a76.70338170558657,76.70338170558657 0 0,0 1.0408555569177096,0.8124042719515452 l -34.65010746712063 43.614639583003175" fill="red" stroke="none" /><path d="M 113.6212207817346 84.01681056812373 l 38.27613877100145 -44.913358831835396 a80.01078376681814,80.01078376681814 0 0,0 1.0405448200881355,0.9023502142815064 l -39.04357738973635 44.24784362413422" fill="red" stroke="none" /><path d="M 117.04232023915458 87.72973835380427 l 48.870924191018645 -35.18646629685342 a81.22005182448694,81.22005182448694 0 0,0 0.8071238016497638,1.1416193781079496 l -49.46936061247229 34.34002041841367" fill="red" stroke="none" /><path d="M 117.45458315368197 88.32363383020206 l 36.084621638842854 -24.139061451310805 a64.41421664119491,64.41421664119491 0 0,0 0.6085713005903151,0.9268958424760861 l -36.49478957479109 23.514347544857046" fill="red" stroke="none" /><line stroke="#e1ed5e" stroke-width="0.3" x1="172.23445277983987" x2="176.4835382374775" y1="55.19839476539836" y2="52.563006222186495" /><path d="M 173.08426987136738 54.67131705675599 a86.0,86.0 0 0,1 12.851231095245387,41.99856678651699" fill="none" id="id123" stroke="none" /><text fill="#e1ed5e" style="font-size:6.75px; font-family:Arial;" text-anchor="middle"><textPath startOffset="22.20632615414155" xlink:href="#id123">March</textPath></text><path d="M 118.21658344932153 89.55222093294921 l 54.6497503479646 -31.34333720115238 a84.0,84.0 0 0,0 0.708569434830268,1.2604659602608244 l -55.1811774240873 30.397987730956764" fill="red" stroke="none" /><path d="M 118.3937258080291 89.86733742301442 l 53.3814661839251 -29.40656995497732 a81.9452811008573,81.9452811008573 0 0,0 0.6699686224896858,1.2413501068738084 l -53.87974290563325 28.483338864771056" fill="red" stroke="none" /><path d="M 118.56541770881063 90.18545643968196 l 49.28852485514929 -26.05620739602911 a76.75199212818814,76.75199212818814 0 0,0 0.607402717993994,1.1733087187622704 l -49.7297370063034 25.203925955006493" fill="red" stroke="none" /><path d="M 119.34039704204932 91.81776055985345 l 53.870695043275894 -22.790789904305573 a79.49334909977225,79.49334909977225 0 0,0 0.5223027720263426,1.2647975911460443 l -54.25501950218843 21.860117742706223" fill="red" stroke="none" /><path d="M 119.47837535516314 92.15188598940014 l 58.18130121629621 -23.442072395915194 a83.7263466928907,83.7263466928907 0 0,0 0.5271030036971958,1.3414196505363631 l -58.57619776987511 22.437103740483046" fill="red" stroke="none" /><path d="M 119.7369772167798 92.82701384747503 l 52.56885761214272 -19.105037390699206 a76.93288160237903,76.93288160237903 0 0,0 0.44162008864716545,1.2485194598062386 l -52.889930781599695 18.197320304466352" fill="red" stroke="none" /><path d="M 120.73433829027371 96.67025291283417 l 55.00584941575214 -8.833441622542619 a76.71061982106525,76.71061982106525 0 0,0 0.1981475731386294,1.3055449339524885 l -55.14975288233007 7.885297576198048" fill="red" stroke="none" /><path d="M 120.83666639777658 97.38593545837742 l 37.14386865553741 -4.65988503811183 a58.43503048306803,58.43503048306803 0 0,0 0.11661864284618584,0.9991173141011278 l -37.218577651387186 4.019823985685849" fill="red" stroke="none" /><line stroke="#e1ed5e" stroke-width="0.3" x1="184.98032266829074" x2="189.97916517819016" y1="98.17113171792111" y2="98.06355123074" /><path d="M 185.9800911702706 98.14961562048488 a86.0,86.0 0 0,1 -9.607161424134198,41.387399972396054" fill="none" id="id124" stroke="none" /><text fill="#e1ed5e" style="font-size:6.75px; font-family:Arial;" text-anchor="middle"><textPath startOffset="21.466115282336823" xlink:href="#id124">April</textPath></text><path d="M 120.92983693683757 101.71520430193887 l 50.53641218222107 4.141469034903939 a71.70582532627203,71.70582532627203 0 0,0 -0.11140150002643529,1.2293062698544381 l -50.457636085917564 -5.0107566933069485" fill="red" stroke="none" /><path d="M 120.81339534386255 102.79330883721812 l 36.91115050684331 4.953744509208905 a58.242081257649346,58.242081257649346 0 0,0 -0.14190530277694502,0.9924853571111788 l -36.82041115304977 -5.588375338300493" fill="red" stroke="none" /><line stroke="#e1ed5e" stroke-width="0.3" x1="174.80103733775053" x2="179.2010983576182" y1="140.37084112569926" y2="142.7455964860345" /><path d="M 175.68104954172406 140.8457921977663 a86.0,86.0 0 0,1 -30.038265399797805,32.042727171017184" fill="none" id="id125" stroke="none" /><text fill="#e1ed5e" style="font-size:6.75px; font-family:Arial;" text-anchor="middle"><textPath startOffset="22.206326154141568" xlink:href="#id125">May</textPath></text><line stroke="#e1ed5e" stroke-width="0.3" x1="143.8653032363475" x2="146.44561519142675" y1="172.8068346515853" y2="177.08958963109032" /><path d="M 144.38136562736335 173.6633856474863 a86.0,86.0 0 0,1 -40.68145358897372,12.25698825130547" fill="none" id="id126" stroke="none" /><text fill="#e1ed5e" style="font-size:6.75px; font-family:Arial;" text-anchor="middle"><textPath startOffset="21.466115282336833" xlink:href="#id126">June</textPath></text><line stroke="#e1ed5e" stroke-width="0.3" x1="102.19456741930631" x2="102.32365962044197" y1="184.97166512339345" y2="189.96999836594603" /><path d="M 102.22038585953345 185.97133177190398 a86.0,86.0 0 0,1 -42.740103519485714,-10.115201625700543" fill="none" id="id127" stroke="none" /><text fill="#e1ed5e" style="font-size:6.75px; font-family:Arial;" text-anchor="middle"><textPath startOffset="22.20632615414155" xlink:href="#id127">July</textPath></text><line stroke="#e1ed5e" stroke-width="0.3" x1="58.666819895761336" x2="56.23545636021788" y1="174.27360380694188" y2="178.64263932499728" /><path d="M 58.180547188652646 175.14741091055294 a86.0,86.0 0 0,1 -31.652253787137756,-30.449443065178592" fill="none" id="id128" stroke="none" /><text fill="#e1ed5e" style="font-size:6.75px; font-family:Arial;" text-anchor="middle"><textPath startOffset="22.20632615414155" xlink:href="#id128">August</textPath></text><line stroke="#e1ed5e" stroke-width="0.3" x1="26.63291911575756" x2="22.317208475507996" y1="142.92168965132927" y2="145.44649492493687" /><path d="M 25.769776987707644 143.4266507060508 a86.0,86.0 0 0,1 -11.730757126820373,-40.83630448921669" fill="none" id="id129" stroke="none" /><text fill="#e1ed5e" style="font-size:6.75px; font-family:Arial;" text-anchor="middle"><textPath startOffset="21.46611528233685" xlink:href="#id129">September</textPath></text><line stroke="#e1ed5e" stroke-width="0.3" x1="15.007084014347285" x2="10.007500721073583" y1="101.09737516637583" y2="101.16192664675087" /><path d="M 14.007167355692545 101.11028546245083 a86.0,86.0 0 0,1 10.666146001902534,-42.60595125391555" fill="none" id="id130" stroke="none" /><text fill="#e1ed5e" style="font-size:6.75px; font-family:Arial;" text-anchor="middle"><textPath startOffset="22.20632615414155" xlink:href="#id130">October</textPath></text><line stroke="#e1ed5e" stroke-width="0.3" x1="26.266209847984243" x2="21.928928074336255" y1="57.711370442889674" y2="55.22380399835377" /><path d="M 25.398753493254645 57.213857153982495 a86.0,86.0 0 0,1 29.58750427330803,-30.492523968695096" fill="none" id="id131" stroke="none" /><text fill="#e1ed5e" style="font-size:6.75px; font-family:Arial;" text-anchor="middle"><textPath startOffset="21.46611528233685" xlink:href="#id131">November</textPath></text><line stroke="#e1ed5e" stroke-width="0.3" x1="56.762969772571076" x2="54.21961505331055" y1="26.818313649435495" y2="22.513508569990535" /><path d="M 56.25429882871897 25.957352633546506 a86.0,86.0 0 0,1 42.265352541879196,-11.944610805530505" fill="none" id="id132" stroke="none" /><text fill="#e1ed5e" style="font-size:6.75px; font-family:Arial;" text-anchor="middle"><textPath startOffset="22.20632615414155" xlink:href="#id132">December</textPath></text></svg>