<?xml version="1.0" encoding="utf-8" ?>
<svg baseProfile="full" height="200mm" version="1.1" viewBox="0,0,200,200" width="200mm" xmlns="http://www.w3.org/2000/svg" xmlns:ev="http://www.w3.org/2001/xml-events" xmlns:xlink="http://www.w3.org/1999/xlink"><defs /><rect fill="#1a1a1a" height="200" width="200" x="0" y="0" /><text alignment-baseline="middle" fill="#e1ed5e" style="dominant-baseline: central; font-size:9.0px; font-family:Arial;" text-anchor="middle" x="100.0" y="100.0">2023</text><line stroke="#e1ed5e" stroke-width="0.3" x1="100.0" x2="100.0" y1="15.0" y2="10.0" /><path d="M 100.0 14.0 a86.0,86.0 0 0,1 42.46469731375804,11.215312516191453" fill="none" id="id85" stroke="none" /><text fill="#e1ed5e" style="font-size:6.75px; font-family:Arial;" text-anchor="middle"><textPath startOffset="22.20632615414155" xlink:href="#id85">January</textPath></text><path d="M 109.73455568895987 81.39251694778311 l 5.062419106578359 -9.676751640109105 a31.92097108846113,31.92097108846113 0 0,0 0.4846742738658285,0.2588962117660661 l -5.228238426972498 9.588176701841284" fill="#ff5c08" stroke="none" /><path d="M 110.36928655335952 81.73862282372117 l 5.446111971775228 -9.591161778494138 a32.029529449181425,32.029529449181425 0 0,0 0.47709245091914015,0.2763627417592691 l -5.610401155159697 9.495994879344819" fill="#ff5e08" stroke="none" /><line stroke="#e1ed5e" stroke-width="0.3" x1="143.23703022742887" x2="145.7803849466894" y1="26.81831364943548" y2="22.513508569990506" /><path d="M 143.74570117128098 25.957352633546492 a86.0,86.0 0 0,1 28.547481713284135,27.462654790039103" fill="none" id="id86" stroke="none" /><text fill="#e1ed5e" style="font-size:6.75px; font-family:Arial;" text-anchor="middle"><textPath startOffset="19.985693538727396" xlink:href="#id86">February</textPath></text><path d="M 112.48926042617603 83.11751280151076 l 6.559555508047842 -8.866947130055504 a32.029529449181425,32.029529449181425 0 0,0 0.44041189627429894,0.3317091095776607 l -6.711213558080524 8.752721430971995" fill="#ff5e08" stroke="none" /><path d="M 113.06298171725822 83.55741782278167 l 6.766343205273117 -8.516903460484787 a31.877547744173015,31.877547744173015 0 0,0 0.4266985872850098,0.3450272493534345 l -6.9119451911226175 8.399170113867223" fill="#ff5c08" stroke="none" /><path d="M 113.34407831869373 83.78471172551755 l 4.263056016081615 -5.1803264774151145 a27.708906692513896,27.708906692513896 0 0,0 0.36568164994920466,0.3062478653911966 l -4.351595202989937 5.106177454630099" fill="#ff1d02" stroke="none" /><path d="M 114.16331599549186 84.49514656593476 l 7.52665554812098 -8.23957406298461 a32.15979948204577,32.15979948204577 0 0,0 0.40550768388496616,0.3768751983471722 l -7.667371115800792 8.108794278562797" fill="#ff6008" stroke="none" /><path d="M 114.42810811169701 84.74124197986012 l 9.00990691428731 -9.528622070529043 a34.11384997501098,34.11384997501098 0 0,0 0.4232014068277356,0.40711941806624646 l -9.172591564727464 9.372119565700494" fill="#ff7c0b" stroke="none" /><path d="M 114.68862486808459 84.99185889309783 l 9.278896433855103 -9.480736845435437 a34.26583168001939,34.26583168001939 0 0,0 0.41798473113873225,0.41618977186811235 l -9.440716965161158 9.319611222917207" fill="#ff7e0b" stroke="none" /><path d="M 114.94478906791727 85.2469230424477 l 7.787432652113292 -7.687535280442341 a31.942682760605187,31.942682760605187 0 0,0 0.3829102268589977,0.3946226475373858 l -7.918607142675399 7.552348437354841" fill="#ff5d08" stroke="none" /><path d="M 115.9244219780498 86.31012108654704 l 14.91646291135092 -12.82335844622061 a40.670774962516475,40.670774962516475 0 0,0 0.45181238761947534,0.5348033579784539 l -15.134985912457513 12.56469613861305" fill="#ffd714" stroke="none" /><path d="M 116.15771136456269 86.58626213691792 l 13.380931253728988 -11.108522745065176 a38.39104938739039,38.39104938739039 0 0,0 0.41773393694227445,0.5120924132745366 l -13.570163682747673 10.876546162182539" fill="#ffb811" stroke="none" /><path d="M 116.38621287248628 86.86637796730983 l 13.553222155053856 -10.862967452866457 a38.36933771524633,38.36933771524633 0 0,0 0.4086259909679503,0.5189135119102146 l -13.738202226615769 10.628061547003204" fill="#ffb811" stroke="none" /><path d="M 116.82858285166822 87.43820079747576 l 8.699444607727031 -6.493753948207013 a31.855836072028957,31.855836072028957 0 0,0 0.32422777039188816,0.44224631444003837 l -8.809934990632547 6.343045190095481" fill="#ff5b08" stroke="none" /><path d="M 117.45458315368197 88.32363383020206 l 12.704457311339677 -8.498736076918377 a36.28501718941677,36.28501718941677 0 0,0 0.34281283316551514,0.5221274639476827 l -12.848866779863117 8.27879054899302" fill="#ff9b0e" stroke="none" /><path d="M 117.65298651832404 88.62581576622439 l 12.958374167191499 -8.349348422990122 a36.41528722228112,36.41528722228112 0 0,0 0.33497278886295145,0.5298465080919432 l -13.100174552300407 8.125054267183973" fill="#ff9d0e" stroke="none" /><line stroke="#e1ed5e" stroke-width="0.3" x1="172.23445277983987" x2="176.4835382374775" y1="55.19839476539836" y2="52.563006222186495" /><path d="M 173.08426987136738 54.67131705675599 a86.0,86.0 0 0,1 12.851231095245387,41.99856678651699" fill="none" id="id87" stroke="none" /><text fill="#e1ed5e" style="font-size:6.75px; font-family:Arial;" text-anchor="middle"><textPath startOffset="22.20632615414155" xlink:href="#id87">March</textPath></text><path d="M 118.03404312379186 89.2402003453031 l 7.514016209020717 -4.483149366796487 a29.74980387405534,29.74980387405534 0 0,0 0.2585970896959038,0.442026251768529 l -7.590072973186948 4.353143702674062" fill="#ff3c05" stroke="none" /><path d="M 118.21658344932153 89.55222093294921 l 13.296753149057036 -7.626102863741657 a36.328440533704885,36.328440533704885 0 0,0 0.3064431259194318,0.5451281271677927 l -13.4260539162689 7.39609122663907" fill="#ff9c0e" stroke="none" /><path d="M 118.73160827565052 90.50648371742162 l 19.385772959497995 -9.8250587206971 a42.73338381620197,42.73338381620197 0 0,0 0.3268900106043678,0.6589903142795792 l -19.55202298305577 9.489908817918572" fill="#fff216" stroke="none" /><path d="M 119.85752413597 93.16781622104841 l 16.44491347428337 -5.658040263022594 a38.39104938739039,38.39104938739039 0 0,0 0.20962007703332433,0.6267373493826307 l -16.539870845088466 5.374129810717649" fill="#ffb811" stroke="none" /><path d="M 120.08093135843002 93.85539295169968 l 14.553781390433162 -4.453342632115309 a36.2198821729846,36.2198821729846 0 0,0 0.1772947759377047,0.5977498465076049 l -14.628282063482569 4.202163398861174" fill="#ff9a0e" stroke="none" /><path d="M 120.18372546131832 94.20196356495316 l 20.88860249007996 -6.00052148681888 a42.73338381620197,42.73338381620197 0 0,0 0.19700747104160132,0.7087406928496496 l -20.988796731687923 5.640069490550279" fill="#fff216" stroke="none" /><path d="M 120.45610955862082 95.25157060432595 l 15.862012288560885 -3.682012222788648 a37.28375410804344,37.28375410804344 0 0,0 0.13973527247327897,0.6264058271642352 l -15.923041948036202 3.4084282260744487" fill="#ffa90f" stroke="none" /><path d="M 120.53481517161879 95.60439243477599 l 21.336876210368505 -4.567293822939759 a42.8202305047782,42.8202305047782 0 0,0 0.14807787087329147,0.7220802871636208 l -21.412333377156795 4.199337879612727" fill="#fff316" stroke="none" /><path d="M 120.67395015179393 96.31383870115 l 17.227905631447005 -3.07173222981624 a38.49960774811068,38.49960774811068 0 0,0 0.11071045924333343,0.6534193974139203 l -17.27822795221056 2.774727044086482" fill="#ffba11" stroke="none" /><path d="M 120.73433829027371 96.67025291283417 l 23.602145130749168 -3.7902909125796738 a44.90455103060776,44.90455103060776 0 0,0 0.11599082148403254,0.7642345902844885 l -23.6638918456725 3.383457209903103" fill="#f0ff19" stroke="none" /><path d="M 120.87857604477298 97.74499172005257 l 21.586133234232978 -2.3314285931597407 a42.711672144057914,42.711672144057914 0 0,0 0.07265636647162073,0.7316396949879715 l -21.623066726386828 1.9595133674673344" fill="#fff216" stroke="none" /><path d="M 120.91429891909075 98.10471618934814 l 21.6663128598396 -1.963432394202269 a42.75509548834603,42.75509548834603 0 0,0 0.06011267922096227,0.7335269463287614 l -21.696900022880058 1.5901915306657388" fill="#fff316" stroke="none" /><path d="M 120.96714384426684 98.82574320788733 l 21.829446438792008 -1.222549715841258 a42.863653849066324,42.863653849066324 0 0,0 0.03491630739456787,0.7370280635454359 l -21.847256354420075 0.8466105456728223" fill="#fff417" stroke="none" /><line stroke="#e1ed5e" stroke-width="0.3" x1="184.98032266829074" x2="189.97916517819016" y1="98.17113171792111" y2="98.06355123074" /><path d="M 185.9800911702706 98.14961562048488 a86.0,86.0 0 0,1 -9.607161424134198,41.387399972396054" fill="none" id="id88" stroke="none" /><text fill="#e1ed5e" style="font-size:6.75px; font-family:Arial;" text-anchor="middle"><textPath startOffset="21.466115282336823" xlink:href="#id88">April</textPath></text><path d="M 120.99513854157772 99.54816195383933 l 4.818875397557413 -0.10370740064477948 a25.819991215980856,25.819991215980856 0 0,0 0.005738176915506174,0.44442812579878205 l -4.819946581590635 0.020743016785534692" fill="#ff0000" stroke="none" /><path d="M 120.99824983174949 100.27111621757518 l 21.774992252085816 0.2811450280102991 a42.77680716049009,42.77680716049009 0 0,0 -0.015843586887134102,0.7361892264658789 l -21.766926602513678 -0.6559240702662928" fill="#fff316" stroke="none" /><path d="M 120.9904718944345 100.63252640178507 l 15.212976618506568 0.4584274907843184 a36.2198821729846,36.2198821729846 0 0,0 -0.024142909466786294,0.6230212167311341 l -15.202831576188578 -0.7202259545294587" fill="#ff9a0e" stroke="none" /><path d="M 120.95626037817324 101.35467743843564 l 21.666450223638495 1.4005863049650873 a42.711672144057914,42.711672144057914 0 0,0 -0.05374235063078842,0.7332716758607365 l -21.63913131434337 -1.773331117322594" fill="#fff216" stroke="none" /><path d="M 120.81339534386255 102.79330883721812 l 25.82249233774887 3.465566038330247 a47.0540065728695,47.0540065728695 0 0,0 -0.11464585237009266,0.8018328244554729 l -25.759012434362173 -3.9095443347661294" fill="#d5ff1c" stroke="none" /><path d="M 120.70491114924044 103.5080841355445 l 21.556429063936523 3.652358914902191 a42.863653849066324,42.863653849066324 0 0,0 -0.12951673005070408,0.7263986038068866 l -21.490365891546627 -4.022876269442295" fill="#fff417" stroke="none" /><path d="M 120.64145759157962 103.86396538481128 l 21.340979038278675 3.9949118862386244 a42.711672144057914,42.711672144057914 0 0,0 -0.14149780446588422,0.7214942565275706 l -21.269051300837127 -4.36166986983414" fill="#fff216" stroke="none" /><path d="M 120.32669344350535 105.2749913415812 l 21.01554780086475 5.4537563129121605 a42.711672144057914,42.711672144057914 0 0,0 -0.1908030536425429,0.7100491430820947 l -20.918556670880427 -5.814696389169803" fill="#fff216" stroke="none" /><path d="M 120.13307415673323 105.97154293290107 l 20.815366921095098 6.173913445395914 a42.711672144057914,42.711672144057914 0 0,0 -0.2151310197303292,0.7030606198762128 l -20.706009128858636 -6.531301037824184" fill="#fff216" stroke="none" /><path d="M 119.67450827220406 107.3425965602758 l 20.381943149907297 7.606613776247665 a42.75509548834603,42.75509548834603 0 0,0 -0.2632608772937615,0.6872910778411522 l -20.24798799302003 -7.9563284209219605" fill="#fff316" stroke="none" /><path d="M 119.54520255179757 107.68017299344265 l 16.206473423554954 6.3682389157479165 a38.412761059534446,38.412761059534446 0 0,0 -0.24711731420469235,0.6133249079126122 l -16.094453495092868 -6.646263191503342" fill="#ffb811" stroke="none" /><path d="M 119.26925614724726 108.34839909993367 l 19.922274853757393 8.631319246928955 a42.711672144057914,42.711672144057914 0 0,0 -0.2980845875593636,0.67210205291347 l -19.77074918146676 -8.972969636335113" fill="#fff216" stroke="none" /><line stroke="#e1ed5e" stroke-width="0.3" x1="174.80103733775053" x2="179.2010983576182" y1="140.37084112569926" y2="142.7455964860345" /><path d="M 175.68104954172406 140.8457921977663 a86.0,86.0 0 0,1 -30.038265399797805,32.042727171017184" fill="none" id="id89" stroke="none" /><text fill="#e1ed5e" style="font-size:6.75px; font-family:Arial;" text-anchor="middle"><textPath startOffset="22.206326154141568" xlink:href="#id89">May</textPath></text><path d="M 118.48025628344425 109.97397251340804 l 19.12564299189867 10.3222939431498 a42.73338381620197,42.73338381620197 0 0,0 -0.3549385829289857,0.6443166268967456 l -18.945127999518174 -10.64998108844435" fill="#fff216" stroke="none" /><path d="M 118.12598468904814 110.60418214915192 l 18.758999156842076 10.97451241449697 a42.73338381620197,42.73338381620197 0 0,0 -0.37690666328040373,0.6317172472887231 l -18.567311617863442 -11.295791755671797" fill="#fff216" stroke="none" /><path d="M 117.75023020441432 111.22182372390056 l 18.351770413323717 11.602121788178088 a42.711672144057914,42.711672144057914 0 0,0 -0.39822560394478346,0.6180549807531316 l -18.14933994600188 -11.916298368852672" fill="#fff216" stroke="none" /><path d="M 117.14729908036423 112.12312394758627 l 17.728406466141625 12.533966310084299 a42.711672144057914,42.711672144057914 0 0,0 -0.4295984884882426,0.5966747267645535 l -17.51002818527778 -12.837274642299983" fill="#fff216" stroke="none" /><path d="M 116.71984013943494 112.70617746262583 l 13.085851208010116 9.944541712831974 a37.43573581305184,37.43573581305184 0 0,0 -0.39431093115583227,0.5097000321673394 l -12.912733459636215 -10.168319739112567" fill="#ffab0f" stroke="none" /><path d="M 116.498646956653 112.99209946851258 l 17.091887617642648 13.459255453884797 a42.75509548834603,42.75509548834603 0 0,0 -0.4602933932523507,0.5742867814269782 l -16.857676312335446 -13.751470068890024" fill="#fff316" stroke="none" /><path d="M 116.0416608686014 113.55231037782055 l 34.84571344163917 29.438343558428574 a66.61622317466568,66.61622317466568 0 0,0 -0.7475529512006973,0.8695729685496382 l -34.3338179808677 -30.03379362613974" fill="#36ff6e" stroke="none" /><path d="M 115.32070863581623 114.36230785411682 l 19.007897309455938 17.81884110632071 a47.0540065728695,47.0540065728695 0 0,0 -0.5590317319667658,0.5861425359877426 l -18.698359026110207 -18.14339075889096" fill="#d5ff1c" stroke="none" /><path d="M 115.07121518719521 114.62390073753431 l 15.58196585509184 15.1194922990758 a42.711672144057914,42.711672144057914 0 0,0 -0.5165252171684686,0.5232373179542926 l -15.319400012867836 -15.385470111010756" fill="#fff216" stroke="none" /><path d="M 114.55890576462653 115.13401014063108 l 15.052294701800289 15.64688887610618 a42.711672144057914,42.711672144057914 0 0,0 -0.534229796452017,0.5051476174880024 l -14.780729070957463 -15.903671130340104" fill="#fff216" stroke="none" /><path d="M 114.0293411484842 115.62618273729858 l 30.924198616218092 34.444039350611256 a67.28928501113148,67.28928501113148 0 0,0 -0.8685369176054912,0.7663828467310212 l -30.326719345706014 -34.97124533911457" fill="#37ff77" stroke="none" /><path d="M 113.48314897796784 116.09983520530334 l 6.970040716169696 8.322722465497796 a31.855836072028957,31.855836072028957 0 0,0 -0.42342454418508735,0.3484495732681248 l -6.825746043439918 -8.4414671576231" fill="#ff5b08" stroke="none" /><path d="M 112.92097659922987 116.55440617244103 l 13.358857509691598 17.115420921695637 a42.711672144057914,42.711672144057914 0 0,0 -0.5834643664826151,0.4473755960219288 l -13.06226441471549 -17.342835859544937" fill="#fff216" stroke="none" /><path d="M 112.63410532772338 116.77436683061366 l 11.847473824146947 15.729952124607257 a40.692486634660526,40.692486634660526 0 0,0 -0.5631356289082878,0.4165942755948538 l -11.574953224820094 -15.93155634894188" fill="#ffd714" stroke="none" /><path d="M 112.04921762599082 117.19931262002967 l 12.457555366091265 17.782182700440096 a42.711672144057914,42.711672144057914 0 0,0 -0.6057798806834392,0.4166609257299334 l -12.149618600784944 -17.993984415535124" fill="#fff216" stroke="none" /><path d="M 111.7513745106137 117.40417183066458 l 12.161768219385728 18.01197839995066 a42.73338381620197,42.73338381620197 0 0,0 -0.6131737977275143,0.40637815778856 l -11.84991972291825 -18.218654578830538" fill="#fff216" stroke="none" /><path d="M 111.1453310114006 117.79835938074945 l 11.523036802691964 18.40153064652142 a42.711672144057914,42.711672144057914 0 0,0 -0.6264801631448401,0.3848352843190882 l -11.204577439614814 -18.597154397668884" fill="#fff216" stroke="none" /><line stroke="#e1ed5e" stroke-width="0.3" x1="143.8653032363475" x2="146.44561519142675" y1="172.8068346515853" y2="177.08958963109032" /><path d="M 144.38136562736335 173.6633856474863 a86.0,86.0 0 0,1 -40.68145358897372,12.25698825130547" fill="none" id="id90" stroke="none" /><text fill="#e1ed5e" style="font-size:6.75px; font-family:Arial;" text-anchor="middle"><textPath startOffset="21.466115282336833" xlink:href="#id90">June</textPath></text><path d="M 110.5260780823613 118.17145234162733 l 10.882797918427723 18.787267410608855 a42.711672144057914,42.711672144057914 0 0,0 -0.6393555621591466,0.3630427743491472 l -10.557793589347378 -18.97181335075263" fill="#fff216" stroke="none" /><path d="M 109.89434966115114 118.52300852407294 l 5.3194235942487476 9.95838351724076 a32.290069514910115,32.290069514910115 0 0,0 -0.4925144296989322,0.2576602719489988 l -5.14721826202332 -10.048473208134476" fill="#ff6209" stroke="none" /><path d="M 109.57404056367764 118.69057910512821 l 9.898496657737153 19.323986938720147 a42.711672144057914,42.711672144057914 0 0,0 -0.6572433309374955,0.32955545027979627 l -9.564399419116898 -19.491510229909245" fill="#fff216" stroke="none" /><path d="M 108.92500713936063 119.00905698771935 l 9.227468042532102 19.65325776595598 a42.711672144057914,42.711672144057914 0 0,0 -0.6681976787434394,0.3067367812845658 l -8.887802368021244 -19.809181617574623" fill="#fff216" stroke="none" /><path d="M 108.2653958097858 119.30500536409082 l 8.545503045854257 19.959235581162822 a42.711672144057914,42.711672144057914 0 0,0 -0.6783600796490753,0.28355456830994497 l -8.200671506707721 -20.103375192492738" fill="#fff216" stroke="none" /><path d="M 107.2578585660854 119.70592522655815 l 9.004585465987919 24.448490732248608 a47.0540065728695,47.0540065728695 0 0,0 -0.7624551443213038,0.2733892878989374 l -8.58241076103688 -24.599867561187505" fill="#d5ff1c" stroke="none" /><path d="M 106.91757812671514 119.82793768551818 l 6.443960079745191 18.47040056052495 a40.56221660179618,40.56221660179618 0 0,0 -0.661222592473854,0.2243226038535226 l -6.125067754334109 -18.578586151276596" fill="#ffd614" stroke="none" /><path d="M 104.13013068566511 120.58985236759428 l 2.1393187487141057 10.66510010352288 a31.877547744173015,31.877547744173015 0 0,0 -0.5389315151056252,0.1032875075378096 l -1.955419619036776 -10.700344809409158" fill="#ff5c08" stroke="none" /><path d="M 102.70371172650421 120.8252237178851 l 2.820496261957395 21.72475159793259 a42.90707719335444,42.90707719335444 0 0,0 -0.733246350557736,0.08878592158941767 l -2.446122488348278 -21.770083048247358" fill="#fff517" stroke="none" /><path d="M 101.98527174616119 120.90594882070398 l 2.052550917595864 21.614433650265667 a42.711672144057914,42.711672144057914 0 0,0 -0.7325167343544174,0.06320462610977062 l -1.6801898654999046 -21.6465625286541" fill="#fff216" stroke="none" /><path d="M 101.62511606390274 120.93702456842531 l 1.0938036024404383 14.091912206153824 a35.134298565781705,35.134298565781705 0 0,0 -0.6033684017491572,0.04161181759952852 l -0.8510724399123506 -14.108652368269636" fill="#ff8b0c" stroke="none" /><path d="M 100.90346689309514 120.98055641714683 l 0.9368868717533347 21.75664434361854 a42.77680716049009,42.77680716049009 0 0,0 -0.7359233260677654,0.0253466873421949 l -0.5622431940109169 -21.769547829386827" fill="#fff316" stroke="none" /><line stroke="#e1ed5e" stroke-width="0.3" x1="102.19456741930631" x2="102.32365962044197" y1="184.97166512339345" y2="189.96999836594603" /><path d="M 102.22038585953345 185.97133177190398 a86.0,86.0 0 0,1 -42.740103519485714,-10.115201625700543" fill="none" id="id91" stroke="none" /><text fill="#e1ed5e" style="font-size:6.75px; font-family:Arial;" text-anchor="middle"><textPath startOffset="22.20632615414155" xlink:href="#id91">July</textPath></text><path d="M 99.81925306533755 120.99922214144158 l -0.18761978377048905 21.797711396232483 a42.798518832634144,42.798518832634144 0 0,0 -0.7366242818572274,-0.012681655040684721 l 0.5628037555203844 -21.791252263912636" fill="#fff316" stroke="none" /><path d="M 99.45781275523022 120.99299961872073 l -0.2802807547412273 10.8522172629047 a31.855836072028957,31.855836072028957 0 0,0 -0.5480412025339448,-0.018875647121408053 l 0.46704230894981524 -10.845784817357199" fill="#ff5b08" stroke="none" /><path d="M 98.73552117531835 120.96189622390904 l -1.440678692447618 23.882849323860423 a44.92626270275182,44.92626270275182 0 0,0 -0.7715277785543305,-0.05320907276731956 l 1.8515692317808785 -23.854511906576818" fill="#efff19" stroke="none" /><path d="M 98.37488393609728 120.93702456842531 l -1.68018986549989 21.6465625286541 a42.711672144057914,42.711672144057914 0 0,0 -0.7325167343544174,-0.06320462610977062 l 2.052550917595849 -21.614433650265667" fill="#fff216" stroke="none" /><path d="M 96.93821686468263 120.77559828337769 l -2.7856790389043016 18.902105766776526 a40.106271486770964,40.106271486770964 0 0,0 -0.6821200866407098,-0.1065331290251711 l 3.1106349891535285 -18.85135433040425" fill="#ffcf13" stroke="none" /><path d="M 96.58105272829116 120.7198165907248 l -3.5348124876744644 21.421993557277556 a42.711672144057914,42.711672144057914 0 0,0 -0.7243717125835628,-0.1259413072811814 l 3.903033171730077 -21.357973671475367" fill="#fff216" stroke="none" /><path d="M 95.86986931433489 120.58985236759428 l -4.270097302822561 21.2876249571315 a42.711672144057914,42.711672144057914 0 0,0 -0.7196073476760143,-0.15080071631669925 l 4.635896111927962 -21.21096826008826" fill="#fff216" stroke="none" /><path d="M 94.81253420990036 120.34920634021253 l -5.373991124102194 21.080901287780005 a42.75509548834603,42.75509548834603 0 0,0 -0.7115864043659197,-0.187936436901226 l 5.736067971279603 -20.985273501575197" fill="#fff316" stroke="none" /><path d="M 94.11515582081647 120.15858648285463 l -6.096445097722627 20.883427325932576 a42.75509548834603,42.75509548834603 0 0,0 -0.7046956437482619,-0.2123190167548392 l 6.455015715911135 -20.775392940072013" fill="#fff316" stroke="none" /><path d="M 93.42475214034765 119.94407469862007 l -6.7980774187947794 20.6199624320495 a42.711672144057914,42.711672144057914 0 0,0 -0.6962618157987143,-0.2362098108284537 l 7.15200896753072 -20.499889634322926" fill="#fff216" stroke="none" /><path d="M 92.40401165467489 119.57807347666478 l -7.884823571335191 20.322523970846298 a42.798518832634144,42.798518832634144 0 0,0 -0.6845295453574965,-0.27238843317752104 l 8.233474192734546 -20.183788693262713" fill="#fff316" stroke="none" /><path d="M 91.7346041902142 119.30500536409082 l -4.272751522927125 9.979617790581411 a31.855836072028957,31.855836072028957 0 0,0 -0.5022289864257558,-0.22016242849964884 l 4.443901184010625 -9.904590808787312" fill="#ff5b08" stroke="none" /><path d="M 91.07499286063937 119.00905698771935 l -9.255150446659703 19.71221753925385 a42.77680716049009,42.77680716049009 0 0,0 -0.6638295027142979,-0.31867850215531296 l 9.593092617374243 -19.549984760598974" fill="#fff316" stroke="none" /><path d="M 90.10565033884886 118.52300852407294 l -10.229660758170665 19.15073753315531 a42.711672144057914,42.711672144057914 0 0,0 -0.6455100193080768,-0.3519835306429156 l 10.557793589347382 -18.97181335075263" fill="#fff216" stroke="none" /><line stroke="#e1ed5e" stroke-width="0.3" x1="58.666819895761336" x2="56.23545636021788" y1="174.27360380694188" y2="178.64263932499728" /><path d="M 58.180547188652646 175.14741091055294 a86.0,86.0 0 0,1 -31.652253787137756,-30.449443065178592" fill="none" id="id92" stroke="none" /><text fill="#e1ed5e" style="font-size:6.75px; font-family:Arial;" text-anchor="middle"><textPath startOffset="22.20632615414155" xlink:href="#id92">August</textPath></text><path d="M 89.1626897886671 117.98757091392108 l -10.106528850532559 16.774633266697336 a40.58392827394024,40.58392827394024 0 0,0 -0.5952711455632795,-0.3656641567066365 l 10.393779196028147 -16.59818064316232" fill="#ffd614" stroke="none" /><path d="M 87.95078237400918 117.19931262002967 l -12.457555366091263 17.782182700440103 a42.711672144057914,42.711672144057914 0 0,0 -0.5985179949463897,-0.4270266977558751 l 12.76180068888654 -17.565111740840006" fill="#fff216" stroke="none" /><path d="M 87.36589467227662 116.77436683061367 l -15.726966355317442 20.88077437489211 a47.14085326144573,47.14085326144573 0 0,0 -0.6439693578577571,-0.49376824334319647 l 16.084064441668687 -20.606966789721543" fill="#d3ff1c" stroke="none" /><path d="M 84.43433777217949 114.09645910891817 l -11.26521849985283 10.201923285498335 a36.19817050084054,36.19817050084054 0 0,0 -0.41428142565702863,-0.46544957349291555 l 11.439158775158198 -10.006499542264557" fill="#ff9a0e" stroke="none" /><path d="M 83.95833913139862 113.55231037782056 l -18.293584924382667 15.454780078508684 a44.94797437489588,44.94797437489588 0 0,0 -0.49422224189744196,-0.5953225279960199 l 18.556903166173647 -15.137596293398902" fill="#efff19" stroke="none" /><path d="M 83.72743513129214 113.27417163493432 l -10.094416953494278 8.234413214904208 a34.02700328643475,34.02700328643475 0 0,0 -0.3663283785482513,-0.4570509778021109 l 10.234663244097389 -8.059434403523838" fill="#ff7b0b" stroke="none" /><path d="M 83.28015986056508 112.70617746262583 l -17.303747766470433 13.149915792001076 a42.73338381620197,42.73338381620197 0 0,0 -0.4400291802975365,-0.5894909955494804 l 17.527538213463053 -12.850111916942287" fill="#fff216" stroke="none" /><path d="M 82.85270091963577 112.12312394758628 l -7.109090992922788 5.026120490343809 a29.706380529767223,29.706380529767223 0 0,0 -0.29160220637631734,-0.4200747270053323 l 7.194554106461239 -4.903004501151464" fill="#ff3b05" stroke="none" /><path d="M 82.6465618267979 111.8261652097733 l -17.95947296899676 12.239170837038941 a42.73338381620197,42.73338381620197 0 0,0 -0.40901321154037845,-0.6114192556115752 l 18.16748928594787 -11.928214667221544" fill="#fff216" stroke="none" /><path d="M 82.24976979558568 111.22182372390057 l -15.58065308091183 9.850201398163211 a39.43320965030517,39.43320965030517 0 0,0 -0.35778194332237784,-0.576858412886496 l 15.747899663902164 -9.580546653911451" fill="#ffc612" stroke="none" /><line stroke="#e1ed5e" stroke-width="0.3" x1="26.63291911575756" x2="22.317208475507996" y1="142.92168965132927" y2="145.44649492493687" /><path d="M 25.769776987707644 143.4266507060508 a86.0,86.0 0 0,1 -11.730757126820373,-40.83630448921669" fill="none" id="id93" stroke="none" /><text fill="#e1ed5e" style="font-size:6.75px; font-family:Arial;" text-anchor="middle"><textPath startOffset="21.46611528233685" xlink:href="#id93">September</textPath></text><path d="M 81.87401531095188 110.60418214915194 l -18.758999156842066 10.974512414496981 a42.73338381620197,42.73338381620197 0 0,0 -0.3659768465237254,-0.6381114801943212 l 18.94512799951817 -10.649981088444354" fill="#fff216" stroke="none" /><path d="M 81.51974371655577 109.97397251340807 l -7.642614582177286 4.124792784475453 a29.684668857623166,29.684668857623166 0 0,0 -0.23881668322239383,-0.4517511642398495 l 7.712483773624566 -3.9926266051494776" fill="#ff3b05" stroke="none" /><path d="M 81.35079622478065 109.6543875284942 l -19.300490643495475 9.991548079386567 a42.73338381620197,42.73338381620197 0 0,0 -0.3325498298941785,-0.6561523633917604 l 19.469619143175922 -9.657841504292122" fill="#fff216" stroke="none" /><path d="M 81.02952815118164 109.00673069616217 l -9.806682504752967 4.655980570592749 a31.855836072028957,31.855836072028957 0 0,0 -0.23091746914058467,-0.4973756851463603 l 9.885374590733377 -4.486484818167561" fill="#ff5b08" stroke="none" /><path d="M 80.73074385275274 108.34839909993369 l -12.09282083623073 5.239210782885886 a34.17898499144315,34.17898499144315 0 0,0 -0.22924173808988796,-0.5418597519297833 l 12.181213555512924 -5.030276505289944" fill="#ff7d0b" stroke="none" /><path d="M 80.32549172779594 107.34259656027581 l -11.106328303242893 4.1449212792726895 a32.85457299065562,32.85457299065562 0 0,0 -0.1931782228275713,-0.5315435024761224 l 11.176030787075689 -3.95312997979045" fill="#ff6a09" stroke="none" /><path d="M 80.20201598880116 107.00284435728193 l -28.656489197629977 10.136230717411411 a51.39634100168108,51.39634100168108 0 0,0 -0.2878419503698185,-0.8366034436050183 l 28.826721978943024 -9.641454570717096" fill="#a0ff22" stroke="none" /><path d="M 79.97269907076064 106.31721596034903 l -31.100425711545665 9.810014158811939 a53.610931560374986,53.610931560374986 0 0,0 -0.270028631433039,-0.882469191275228 l 31.264681115484834 -9.273217994984662" fill="#86ff25" stroke="none" /><path d="M 79.76711848015287 105.62410040840567 l -12.300111322477692 3.419041476831854 a33.76646322070606,33.76646322070606 0 0,0 -0.1508427080890068,-0.5613418316639609 l 12.357142106908475 -3.206808711992354" fill="#ff770b" stroke="none" /><path d="M 79.67330655649465 105.27499134158121 l -12.651359776120577 3.283161300373123 a34.070426630722864,34.070426630722864 0 0,0 -0.14242847501513323,-0.5689309580594393 l 12.705999565430767 -3.0649025029162917" fill="#ff7c0b" stroke="none" /><path d="M 79.4281124754447 104.21870165774334 l -21.269051300837127 4.361669869834144 a42.711672144057914,42.711672144057914 0 0,0 -0.14149780446587948,-0.7214942565275504 l 21.34097903827867 -3.9949118862386395" fill="#fff216" stroke="none" /><path d="M 79.35854240842038 103.8639653848113 l -25.609174845934405 4.793894263486368 a47.0540065728695,47.0540065728695 0 0,0 -0.14217829139256039,-0.7974113639123986 l 25.687899579666155 -4.352364148840755" fill="#d5ff1c" stroke="none" /><path d="M 79.18660465613746 102.79330883721812 l -45.42606777082321 6.0965082557626475 a66.83333989610625,66.83333989610625 0 0,0 -0.143209496538914,-1.1415205924956342 l 45.52427877660897 -5.3136699089796045" fill="#36ff71" stroke="none" /><path d="M 79.10278846688536 102.07522291339032 l -10.845910932241406 1.0770663276060157 a31.899259416317072,31.899259416317072 0 0,0 -0.049558391281888124,-0.5468727181615023 l 10.862843919800369 -0.8902122208959473" fill="#ff5c08" stroke="none" /><path d="M 79.04373962182676 101.35467743843564 l -10.833225111819248 0.7002931524825439 a31.855836072028957,31.855836072028957 0 0,0 -0.030662985359252666,-0.5475082018179556 l 10.843674448066032 -0.5137132343291506" fill="#ff5b08" stroke="none" /><path d="M 79.0235259727143 100.99374915477108 l -21.687348896132065 1.0274264686583012 a42.711672144057914,42.711672144057914 0 0,0 -0.028470110113123212,-0.7346870379291517 l 21.70182113909639 -0.6539621837151528" fill="#fff216" stroke="none" /><line stroke="#e1ed5e" stroke-width="0.3" x1="15.007084014347285" x2="10.007500721073583" y1="101.09737516637583" y2="101.16192664675087" /><path d="M 14.007167355692545 101.11028546245083 a86.0,86.0 0 0,1 10.666146001902534,-42.60595125391555" fill="none" id="id94" stroke="none" /><text fill="#e1ed5e" style="font-size:6.75px; font-family:Arial;" text-anchor="middle"><textPath startOffset="22.20632615414155" xlink:href="#id94">October</textPath></text><path d="M 79.00175016825051 100.2711162175752 l -28.244531325985694 0.364675654477991 a49.246885459419346,49.246885459419346 0 0,0 -0.003648262532988253,-0.8477277295985396 l 28.246623885808184 0.1215615533242239" fill="#baff1f" stroke="none" /><path d="M 79.01574976396665 99.18683210126434 l -21.717084022616177 -0.8415661928684011 a42.73338381620197,42.73338381620197 0 0,0 0.03481019071753394,-0.734788108211742 l 21.69938022366514 1.2152654077031522" fill="#fff216" stroke="none" /><path d="M 79.05617556472873 98.46500227214037 l -28.14967068836734 -2.0631227443767064 a49.22517378727529,49.22517378727529 0 0,0 0.069209460244965,-0.8445307161230363 l 28.10998674430288 2.547367377707521" fill="#baff1f" stroke="none" /><path d="M 79.08570108090925 98.10471618934814 l -25.947680071664198 -2.351416040960789 a47.0540065728695,47.0540065728695 0 0,0 0.08004306490239062,-0.8060227401264632 l 25.903359881079577 2.7977143117916823" fill="#d5ff1c" stroke="none" /><path d="M 79.16333360222342 97.38593545837743 l -21.564346108239857 -2.705355619209868 a42.73338381620197,42.73338381620197 0 0,0 0.09784724131810489,-0.7290756001360045 l 21.514582867863915 3.076149561410532" fill="#fff216" stroke="none" /><path d="M 79.21141760316559 97.0276538004421 l -21.536075957642 -3.0792226378954575 a42.75509548834603,42.75509548834603 0 0,0 0.1104386645563167,-0.7276528132045587 l 21.479881399646384 3.449474563492108" fill="#fff316" stroke="none" /><path d="M 79.32604984820605 96.31383870115002 l -23.554779163591316 -4.199812552428646 a44.92626270275182,44.92626270275182 0 0,0 0.14229704005280577,-0.7601564779030139 l 23.47899639962865 4.604647107794232" fill="#efff19" stroke="none" /><path d="M 79.46518482838121 95.60439243477599 l -27.706092989582988 -5.930665113369526 a49.333732147995576,49.333732147995576 0 0,0 0.1848972204850132,-0.8288579847327534 l 27.599901382095936 6.406701267652238" fill="#b9ff1f" stroke="none" /><path d="M 79.54389044137918 95.25157060432595 l -21.17049906779926 -4.914258980015242 a42.73338381620197,42.73338381620197 0 0,0 0.17249472768948848,-0.7151020082943189 l 21.082771539848956 5.277946219968958" fill="#fff216" stroke="none" /><path d="M 79.71946130924805 94.55025226153421 l -21.156539362910213 -5.685144970994228 a42.90707719335444,42.90707719335444 0 0,0 0.19780822422129013,-0.7116214280845825 l 21.05554436812256 6.048477702497753" fill="#fff517" stroke="none" /><path d="M 79.81627453868168 94.20196356495316 l -12.56237632270543 -3.6087052298351305 a34.070426630722864,34.070426630722864 0 0,0 0.1667732828822174,-0.5622766024388888 l 12.498397142711505 3.8244112190205586" fill="#ff7c0b" stroke="none" /><path d="M 80.02781315780177 93.51064311812611 l -27.070874753946292 -8.795860401811275 a49.46400218085992,49.46400218085992 0 0,0 0.2700798262350643,-0.8075043040336998 l 26.915457633939457 9.260537808767298" fill="#b7ff1f" stroke="none" /><path d="M 80.14247586403 93.16781622104843 l -22.58352661886606 -7.770092745723897 a44.882839358463706,44.882839358463706 0 0,0 0.2576422861510011,-0.7283894374322644 l 22.44643125190525 8.157679809582772" fill="#f0ff19" stroke="none" /><path d="M 80.2630227832202 92.82701384747504 l -51.014616481602836 -18.54018138541539 a75.27918036014478,75.27918036014478 0 0,0 0.45309252280384255,-1.2140626976845832 l 50.687919370297365 19.415567220129315" fill="#41ffd3" stroke="none" /><path d="M 80.52162464483688 92.15188598940014 l -20.239173338488115 -8.154650320908006 a42.8202305047782,42.8202305047782 0 0,0 0.2813458653425423,-0.681301329080821 l 20.095805786259373 8.501826220442139" fill="#fff316" stroke="none" /><path d="M 80.65960295795068 91.81776055985345 l -20.015822479647397 -8.467988106131921 a42.73338381620197,42.73338381620197 0 0,0 0.29243734544031713,-0.6749857126925414 l 19.8670944243644 8.811272963411062" fill="#fff216" stroke="none" /><path d="M 80.95270993114464 91.15688171328213 l -21.681757973606732 -10.066227254978479 a44.90455103060776,44.90455103060776 0 0,0 0.3315277474528888,-0.698281986252463 l 21.505272032312092 10.437951656871475" fill="#f0ff19" stroke="none" /><path d="M 81.43458229118936 90.18545643968196 l -24.97215369176427 -13.201442275465977 a49.246885459419346,49.246885459419346 0 0,0 0.4026329224808528,-0.7460176560137538 l 24.741212670064943 13.629340914812204" fill="#baff1f" stroke="none" /><path d="M 81.6062741919709 89.86733742301443 l -19.055107682863238 -10.497001995881497 a42.75509548834603,42.75509548834603 0 0,0 0.36065421245585577,-0.6415636010805108 l 18.871595829114952 10.823449106896792" fill="#fff316" stroke="none" /><line stroke="#e1ed5e" stroke-width="0.3" x1="26.266209847984243" x2="21.928928074336255" y1="57.711370442889674" y2="55.22380399835377" /><path d="M 25.398753493254645 57.213857153982495 a86.0,86.0 0 0,1 29.58750427330803,-30.492523968695096" fill="none" id="id95" stroke="none" /><text fill="#e1ed5e" style="font-size:6.75px; font-family:Arial;" text-anchor="middle"><textPath startOffset="21.46611528233685" xlink:href="#id95">November</textPath></text><path d="M 81.78341655067845 89.55222093294921 l -15.067142378534893 -8.641476332851731 a38.36933771524633,38.36933771524633 0 0,0 0.3335214950904335,-0.5700963476906258 l 14.916161208974133 8.899552092896249" fill="#ffb811" stroke="none" /><path d="M 82.15384107792192 88.93136811851018 l -18.45095007366254 -11.443738404484469 a42.711672144057914,42.711672144057914 0 0,0 0.3928912560200964,-0.6214596139845767 l 18.25123122139648 11.759645666183262" fill="#fff216" stroke="none" /><path d="M 82.34701348167596 88.62581576622439 l -7.3013685120102805 -4.704422706497222 a29.685710975480468,29.685710975480468 0 0,0 0.2804640447298876,-0.4271659816557194 l 7.219307831922473 4.829406752130608" fill="#ff3b05" stroke="none" /><path d="M 82.54541684631803 88.32363383020206 l -40.71937388099277 -27.239511562846047 a69.99039088885186,69.99039088885186 0 0,0 0.6784919630119878,-0.9956032342092433 l 40.24445745231204 27.936392820325704" fill="#3aff97" stroke="none" /><path d="M 82.95767976084542 87.72973835380427 l -17.619869981265094 -12.68609038019096 a42.711672144057914,42.711672144057914 0 0,0 0.43471815329738844,-0.5929550725515561 l 17.398889215454073 12.987507896414016" fill="#fff216" stroke="none" /><path d="M 83.39014120810768 87.1503855733568 l -20.693167103840008 -16.00851770517357 a47.162564933589785,47.162564933589785 0 0,0 0.5022721521961537,-0.6378346267534655 l 20.414540871049883 16.362344725880085" fill="#d3ff1c" stroke="none" /><path d="M 83.84228863543731 86.58626213691792 l -17.161521020752737 -14.247076155168116 a43.30464038528525,43.30464038528525 0 0,0 0.48107204707828105,-0.5694375658060037 l 16.91373836018733 14.540372670603235" fill="#fffa17" stroke="none" /><path d="M 84.31358615837235 86.03803664274999 l -13.006846481201725 -11.576968183893808 a38.412761059534446,38.412761059534446 0 0,0 0.4438619405996373,-0.4901234409134662 l 12.805640899986042 11.79914441207683" fill="#ffb811" stroke="none" /><path d="M 85.31137513191541 84.99185889309783 l -15.201596285251973 -15.532271002096351 a42.73338381620197,42.73338381620197 0 0,0 0.5301315495839104,-0.5099861306770401 l 14.931981492055636 15.791640219535704" fill="#fff216" stroke="none" /><path d="M 85.83668400450813 84.49514656593479 l -11.729399544924696 -12.840398454114478 a38.391223250389984,38.391223250389984 0 0,0 0.4917532012907135,-0.44150087950138533 l 11.506635356038013 13.040398342385142" fill="#ffb811" stroke="none" /><path d="M 86.10567301691215 84.25364557470407 l -17.23823269252232 -19.53598198549491 a47.0540065728695,47.0540065728695 0 0,0 0.6119400473126734,-0.5306683788721877 l 16.89939884656287 19.829815357786778" fill="#d5ff1c" stroke="none" /><path d="M 86.65592168130627 83.78471172551755 l -16.555557344006274 -20.117772727825685 a47.0540065728695,47.0540065728695 0 0,0 0.6298438729312986,-0.5092899425384088 l 16.206810072510475 20.399768767628228" fill="#d5ff1c" stroke="none" /><path d="M 87.22198572758235 83.33499621200491 l -13.224261361493317 -17.246996362997955 a42.73338381620197,42.73338381620197 0 0,0 0.5875918542784424,-0.442562002585854 l 12.925423353456486 17.472074955089663" fill="#fff216" stroke="none" /><path d="M 87.80319425747018 82.90503203632743 l -12.615378821216046 -17.68163741808929 a42.720683336109886,42.720683336109886 0 0,0 0.6022982872156842,-0.4219484405424309 l 12.309149394416702 17.896170701395665" fill="#fff216" stroke="none" /><path d="M 88.39885842347998 82.49532879139004 l -14.393153280354397 -21.717467558335397 a47.0540065728695,47.0540065728695 0 0,0 0.678995979073445,-0.44163787229128043 l 14.017190275496667 21.962004354786213" fill="#d5ff1c" stroke="none" /><path d="M 88.70189139769569 82.29822771554957 l -10.67273535980548 -16.72194325986087 a40.837607377061595,40.837607377061595 0 0,0 0.595802893489224,-0.37309171724389123 l 10.383313313944015 16.90317931842769" fill="#ffd914" stroke="none" /><line stroke="#e1ed5e" stroke-width="0.3" x1="56.762969772571076" x2="54.21961505331055" y1="26.818313649435495" y2="22.513508569990535" /><path d="M 56.25429882871897 25.957352633546506 a86.0,86.0 0 0,1 42.265352541879196,-11.944610805530505" fill="none" id="id96" stroke="none" /><text fill="#e1ed5e" style="font-size:6.75px; font-family:Arial;" text-anchor="middle"><textPath startOffset="22.20632615414155" xlink:href="#id96">December</textPath></text><path d="M 89.94658935756843 81.56283822128135 l -14.565394250191083 -26.711783663562734 a51.42482696996774,51.42482696996774 0 0,0 0.7808124195618578,-0.4170829532834327 l 14.10343678410092 26.958545343347915" fill="#a0ff22" stroke="none" /><path d="M 90.58718382345135 81.22770947309562 l -9.731808513214705 -19.408467491102492 a42.711672144057914,42.711672144057914 0 0,0 0.6600554687989142,-0.3238863519501981 l 9.396281777405365 19.57310900318752" fill="#fff216" stroke="none" /><path d="M 90.91171255644093 81.06846463323043 l -9.433866904514986 -19.651401439200267 a42.798518832634144,42.798518832634144 0 0,0 0.6668860898162827,-0.3131119611349385 l 9.094202603399095 19.81087838297521" fill="#fff316" stroke="none" /><path d="M 91.56875222667455 80.76684994638697 l -8.716975591417164 -19.88494515531028 a42.711672144057914,42.711672144057914 0 0,0 0.675894399305033,-0.2893827082931084 l 8.373397434321824 20.032047391566174" fill="#fff216" stroke="none" /><path d="M 91.90106846888425 80.62456947434976 l -8.372710554063538 -20.030404137678584 a42.70989110845235,42.70989110845235 0 0,0 0.680747118196324,-0.2776938420544766 l 8.026679566278833 20.171558865916637" fill="#fff216" stroke="none" /><path d="M 92.23578459929587 80.48803036053334 l -23.29264620211241 -58.53590891839998 a84.0,84.0 0 0,0 1.3480673400012946,-0.5230291844377941 l 22.28159569711144 58.92818080672833" fill="#4dd2ff" stroke="none" /><path d="M 92.91201910852362 80.23233633223022 l -5.862549229679336 -16.3500583850904 a38.36933771524633,38.36933771524633 0 0,0 0.6236259740184229,-0.2175708571180422 l 5.580241251597627 16.44855009538065" fill="#ffb811" stroke="none" /><path d="M 95.33964822691252 79.52364482259891 l -2.8936223371584737 -12.713812520994454 a34.03894470611398,34.03894470611398 0 0,0 0.5724333802428639,-0.12511176525586207 l 2.6743462327620886 12.761737784346183" fill="#ff7b0b" stroke="none" /><path d="M 96.04723909329186 79.375362276772 l -4.089201368499349 -21.336554067689413 a42.72487301034394,42.72487301034394 0 0,0 0.7234844425113153,-0.1322121574727678 l 3.721321804885141 21.40378170651292" fill="#fff216" stroke="none" /><path d="M 96.40284397218896 79.31037775812273 l -3.7302588091687476 -21.45518432601908 a42.777046752184646,42.777046752184646 0 0,0 0.726539201149319,-0.11988519341773134 l 3.360390401880543 21.516215782376438" fill="#fff316" stroke="none" /><path d="M 97.11714578562143 79.19881850522333 l -3.665995044781477 -26.451919734654187 a47.704748216692664,47.704748216692664 0 0,0 0.8143547436154932,-0.10572661785893028 l 3.2101255726581255 26.511104675677252" fill="#ccff1d" stroke="none" /><path d="M 97.83486435360386 79.11191278185805 l -1.7923057522222918 -17.291220961749808 a38.38386269669388,38.38386269669388 0 0,0 0.6577803671313586,-0.06246417176493272 l 1.494400258000697 17.31951067802992" fill="#ffb811" stroke="none" /><path d="M 98.19473922651362 79.07773832637324 l -1.8706446654051647 -21.68003524077908 a42.76058913507701,42.76058913507701 0 0,0 0.7338731349013399,-0.05696267951050817 l 1.4971813411414907 21.709023182478052" fill="#fff316" stroke="none" /><path d="M 98.91598698831166 79.02799685794201 l -1.1225335150519844 -21.71724522759148 a42.746236956488815,42.746236956488815 0 0,0 0.7351521598902006,-0.031657198438523146 l 0.7485405227724597 21.733350152554195" fill="#fff316" stroke="none" /></svg>