<?xml version="1.0" encoding="utf-8" ?>
<svg baseProfile="full" height="200mm" version="1.1" viewBox="0,0,200,200" width="200mm" xmlns="http://www.w3.org/2000/svg" xmlns:ev="http://www.w3.org/2001/xml-events" xmlns:xlink="http://www.w3.org/1999/xlink"><defs /><rect fill="#1a1a1a" height="200" width="200" x="0" y="0" /><text alignment-baseline="middle" fill="#e1ed5e" style="dominant-baseline: central; font-size:9.0px; font-family:Arial;" text-anchor="middle" x="100.0" y="100.0">2025</text><line stroke="#e1ed5e" stroke-width="0.3" x1="100.0" x2="100.0" y1="15.0" y2="10.0" /><path d="M 100.0 14.0 a86.0,86.0 0 0,1 42.46469731375804,11.215312516191453" fill="none" id="id109" stroke="none" /><text fill="#e1ed5e" style="font-size:6.75px; font-family:Arial;" text-anchor="middle"><textPath startOffset="22.20632615414155" xlink:href="#id109">January</textPath></text><path d="M 101.80526077348638 79.07773832637324 l 3.4434778511440873 -39.908552673993114 a61.05683607381145,61.05683607381145 0 0,0 1.046324815349271,0.09936114887850145 l -4.129927793583603 39.84336598059943" fill="red" stroke="none" /><path d="M 102.52436894288641 79.15227682838746 l 5.610805968134152 -46.33733508840587 a67.67579422685017,67.67579422685017 0 0,0 1.1552750222314059,0.14998785450078303 l -6.407595718873405 46.23388891074095" fill="red" stroke="none" /><path d="M 102.88285421437855 79.19881850522331 l 5.756981774225446 -41.53939597448537 a62.936431143742496,62.936431143742496 0 0,0 1.0718104780056348,0.15795700326183842 l -6.471161232659736 41.43414448706257" fill="red" stroke="none" /><path d="M 103.59715602781102 79.31037775812273 l 6.921993924815619 -39.8129628956223 a61.41022165768683,61.41022165768683 0 0,0 1.0398940207440828,0.19003398545567765 l -7.606283066662603 39.68791342881588" fill="red" stroke="none" /><path d="M 103.95276090670814 79.375362276772 l 11.858282720124386 -61.87391316968404 a84.0,84.0 0 0,0 1.4177343621314986,0.2843841756911667 l -12.921583491723009 61.66062503791566" fill="red" stroke="none" /><path d="M 105.01212808612495 79.60689891045804 l 10.086395310829174 -41.039030860412346 a63.26035286563747,63.26035286563747 0 0,0 1.0552161574991243,0.26899809391436197 l -10.791320357013324 40.85932977032911" fill="red" stroke="none" /><path d="M 105.36241919743992 79.69619591428918 l 10.794028687340424 -40.86958435997162 a63.27095907428603,63.27095907428603 0 0,0 1.0506055704782735,0.28717018926705756 l -11.495932147042408 40.67772762987826" fill="red" stroke="none" /><path d="M 106.0581310904928 79.89281104454417 l 11.574526705205505 -38.41633534420687 a61.12211970631753,61.12211970631753 0 0,0 1.0047737987403462,0.3121881102568595 l -12.23408587665657 38.211407099067486" fill="red" stroke="none" /><path d="M 106.40334571778207 80.00007090966166 l 12.75806585957058 -39.84798318989688 a62.840530694285476,62.840530694285476 0 0,0 1.027344459369087,0.3386993159456822 l -13.442093141182085 39.622470149691964" fill="red" stroke="none" /><path d="M 107.4271985657038 80.35727306442388 l 20.89032727460742 -55.24869042073973 a80.06626420256273,80.06626420256273 0 0,0 1.28493709294515,0.498535629367248 l -21.838247532552238 54.88091208748193" fill="red" stroke="none" /><path d="M 107.76421540070413 80.48803036053334 l 17.218807417104554 -43.271963773686394 a67.57198919628152,67.57198919628152 0 0,0 1.077020702285459,0.439343786841573 l -17.9611119889784 42.969159100661244" fill="red" stroke="none" /><line stroke="#e1ed5e" stroke-width="0.3" x1="143.23703022742887" x2="145.7803849466894" y1="26.81831364943548" y2="22.513508569990506" /><path d="M 143.74570117128098 25.957352633546492 a86.0,86.0 0 0,1 28.547481713284135,27.462654790039103" fill="none" id="id110" stroke="none" /><text fill="#e1ed5e" style="font-size:6.75px; font-family:Arial;" text-anchor="middle"><textPath startOffset="19.985693538727396" xlink:href="#id110">February</textPath></text><path d="M 112.19680574252982 82.90503203632743 l 18.444960346175527 -25.8523430531968 a52.75783688339243,52.75783688339243 0 0,0 0.7347274521709977,0.5338107404952513 l -18.887233114700315 25.531013077884875" fill="red" stroke="none" /><path d="M 113.06298171725822 83.55741782278167 l 24.955687086621516 -31.41211896274823 a61.118668169509505,61.118668169509505 0 0,0 0.8181071384149398,0.6615190770603061 l -25.492697623600947 30.977893788423795" fill="red" stroke="none" /><path d="M 114.16331599549186 84.49514656593476 l 28.63924492094665 -31.351930233210506 a63.46351232517239,63.46351232517239 0 0,0 0.8002208443044866,0.7437180635628787 l -29.17467364904598 30.854307583572986" fill="red" stroke="none" /><path d="M 115.19652480421416 85.50635884689758 l 28.984465407269063 -27.64384923788448 a61.05348468775299,61.05348468775299 0 0,0 0.7187817391613575,0.7667462437298975 l -29.456014468400884 27.140833577276528" fill="red" stroke="none" /><path d="M 115.68641384162765 86.03803664274999 l 31.996591916418264 -28.479118835204694 a63.8350569498339,63.8350569498339 0 0,0 0.7234887115729474,0.8270726649975575 l -32.482072491569056 27.924130614004188" fill="red" stroke="none" /><path d="M 116.15771136456269 86.58626213691792 l 31.736333950335993 -26.34673034689158 a62.24736467435304,62.24736467435304 0 0,0 0.6773150805885404,0.8303082021649414 l -32.18514752300094 25.79653797511854" fill="red" stroke="none" /><path d="M 116.38621287248628 86.86637796730983 l 40.96918794602424 -32.83698519337534 a73.50468510091846,73.50468510091846 0 0,0 0.7828106133355268,0.9940899832736962 l -41.52835263995373 32.12690281614861" fill="red" stroke="none" /><line stroke="#e1ed5e" stroke-width="0.3" x1="172.23445277983987" x2="176.4835382374775" y1="55.19839476539836" y2="52.563006222186495" /><path d="M 173.08426987136738 54.67131705675599 a86.0,86.0 0 0,1 12.851231095245387,41.99856678651699" fill="none" id="id111" stroke="none" /><text fill="#e1ed5e" style="font-size:6.75px; font-family:Arial;" text-anchor="middle"><textPath startOffset="22.20632615414155" xlink:href="#id111">March</textPath></text><path d="M 118.56541770881063 90.18545643968196 l 37.45220115174824 -19.798975999294928 a63.3635081376846,63.3635081376846 0 0,0 0.5014484444935897,0.9686387869273988 l -37.78745902940195 19.151364490107188" fill="red" stroke="none" /><path d="M 118.73160827565052 90.50648371742162 l 22.343935387805836 -11.324308692529902 a46.049778761061944,46.049778761061944 0 0,0 0.3522588506512101,0.7101323477864104 l -22.535554251410453 10.938016756244542" fill="red" stroke="none" /><path d="M 119.04729006885535 91.15688171328212 l 31.777024213451057 -14.753173963519794 a56.03477429440831,56.03477429440831 0 0,0 0.398641211860305,0.8783530684391307 l -32.02626774227471 14.203998886238601" fill="red" stroke="none" /><path d="M 119.47837535516314 92.15188598940014 l 23.192814242226053 -9.344714180764878 a46.00460588760782,46.00460588760782 0 0,0 0.28962407778533594,0.7370616871553766 l -23.35023186989309 8.944103488713719" fill="red" stroke="none" /><path d="M 120.18372546131832 94.20196356495316 l 38.47654492388289 -11.052885642491225 a61.03262157672874,61.03262157672874 0 0,0 0.2813697712211513,1.0122367722801526 l -38.661101465670406 10.38893756679212" fill="red" stroke="none" /><path d="M 120.45610955862082 95.25157060432595 l 39.0101714541198 -9.055340866854262 a61.04738037743223,61.04738037743223 0 0,0 0.2287986425964565,1.025659451854536 l -39.160264483718294 8.382503245449762" fill="red" stroke="none" /><path d="M 120.73433829027371 96.67025291283417 l 24.691445549786778 -3.9652227018926913 a46.007808268892546,46.007808268892546 0 0,0 0.11884059306486033,0.783011024390338 l -24.756042036290935 3.5396125651102714" fill="red" stroke="none" /><path d="M 120.78858239683441 97.02765380044208 l 24.779217195844836 -3.5429261435019694 a46.03121911727757,46.03121911727757 0 0,0 0.10539834206686302,0.7853400715296631 l -24.836531536969538 3.115867729907642" fill="red" stroke="none" /><path d="M 120.96714384426684 98.82574320788733 l 25.01108637743367 -1.4007362316469611 a46.050279514809745,46.050279514809745 0 0,0 0.03751210106368226,0.7918211652240092 l -25.03149208673085 0.9700039597999521" fill="red" stroke="none" /><line stroke="#e1ed5e" stroke-width="0.3" x1="184.98032266829074" x2="189.97916517819016" y1="98.17113171792111" y2="98.06355123074" /><path d="M 185.9800911702706 98.14961562048488 a86.0,86.0 0 0,1 -9.607161424134198,41.387399972396054" fill="none" id="id112" stroke="none" /><text fill="#e1ed5e" style="font-size:6.75px; font-family:Arial;" text-anchor="middle"><textPath startOffset="21.466115282336823" xlink:href="#id112">April</textPath></text><path d="M 120.99513854157772 99.54816195383933 l 25.005618718854542 -0.538147908983353 a46.01140881047431,46.01140881047431 0 0,0 0.01022547225820779,0.7919740952639922 l -25.011177198230467 0.10763755565889799" fill="red" stroke="none" /><path d="M 120.9764740272857 100.99374915477107 l 39.988974117312914 1.8944561024674644 a61.03382338572346,61.03382338572346 0 0,0 -0.058748394757691544,1.048992053337908 l -39.9504393716677 -2.5825198721407956" fill="red" stroke="none" /><path d="M 120.92983693683757 101.71520430193887 l 19.99151656701308 1.638308760909251 a41.05853410010887,41.05853410010887 0 0,0 -0.06378815482321529,0.7038969730929696 l -19.96035381591279 -1.9821871225507912" fill="red" stroke="none" /><path d="M 120.8583938346157 102.4346265915055 l 24.883149835441557 2.9044028389781382 a46.052079785600625,46.052079785600625 0 0,0 -0.0986797183997982,0.7865744474873951 l -24.82946860779491 -3.3322950407529284" fill="red" stroke="none" /><path d="M 120.49622156327973 104.57218783832717 l 24.44806876039943 5.453744843251869 a46.04897999776667,46.04897999776667 0 0,0 -0.17923893164251145,0.7721566263972693 l -24.350569262826365 -5.873770126997703" fill="red" stroke="none" /><path d="M 120.13307415673323 105.97154293290107 l 24.027612701789305 7.126677213170078 a46.06223653722677,46.06223653722677 0 0,0 -0.2320072106727816,0.7582129883260202 l -23.901378718610392 -7.539217174048155" fill="red" stroke="none" /><path d="M 120.02730092923936 106.31721596034902 l 19.687688686110533 6.210091995407188 a41.64389324697803,41.64389324697803 0 0,0 -0.2215212177876014,0.6817722051199196 l -19.577875217306687 -6.548063100504903" fill="red" stroke="none" /><path d="M 119.26925614724726 108.34839909993367 l 22.99334701195112 9.9618602831463 a46.05858469891963,46.05858469891963 0 0,0 -0.3214426767755454,0.7247683777404968 l -22.8184632504443 -10.356176997379485" fill="red" stroke="none" /><path d="M 118.97047184881838 109.00673069616215 l 36.18480738339432 17.179689466450068 a61.05598601379079,61.05598601379079 0 0,0 -0.45892802649782993,0.9455276645768783 l -35.88372610028178 -17.800006086992223" fill="red" stroke="none" /><line stroke="#e1ed5e" stroke-width="0.3" x1="174.80103733775053" x2="179.2010983576182" y1="140.37084112569926" y2="142.7455964860345" /><path d="M 175.68104954172406 140.8457921977663 a86.0,86.0 0 0,1 -30.038265399797805,32.042727171017184" fill="none" id="id113" stroke="none" /><text fill="#e1ed5e" style="font-size:6.75px; font-family:Arial;" text-anchor="middle"><textPath startOffset="22.206326154141568" xlink:href="#id113">May</textPath></text><path d="M 116.27256486870786 113.27417163493432 l 19.376832248432947 15.806444717368855 a46.006105706150024,46.006105706150024 0 0,0 -0.5058568493747867,0.609337162199979 l -19.101879399164616 -16.137643136682605" fill="red" stroke="none" /><path d="M 115.80600337817218 113.82643327865902 l 18.813810970390968 16.457538055359784 a45.99620055274839,45.99620055274839 0 0,0 -0.5264180834596803,0.5914362972867381 l -18.527734037282947 -16.778948522387388" fill="red" stroke="none" /><path d="M 114.29624159901734 115.38237550388516 l 23.8599719861299 25.672694887029486 a56.04833128611708,56.04833128611708 0 0,0 -0.7123488034235769,0.6507137423003273 l -23.41452363323946 -26.079601395916395" fill="red" stroke="none" /><path d="M 112.34349029814194 116.9893568818739 l 20.5836901223763 28.331018941019806 a56.01906528293459,56.01906528293459 0 0,0 -0.7849942872484258,0.5600725810607334 l -20.09296850727899 -28.68113578392476" fill="red" stroke="none" /><path d="M 111.7513745106137 117.40417183066458 l 11.2164495655618 16.611930408030695 a41.04407575165406,41.04407575165406 0 0,0 -0.5889342138479473,0.39031348333729277 l -10.92884065297389 -16.802541912459308" fill="red" stroke="none" /><line stroke="#e1ed5e" stroke-width="0.3" x1="143.8653032363475" x2="146.44561519142675" y1="172.8068346515853" y2="177.08958963109032" /><path d="M 144.38136562736335 173.6633856474863 a86.0,86.0 0 0,1 -40.68145358897372,12.25698825130547" fill="none" id="id114" stroke="none" /><text fill="#e1ed5e" style="font-size:6.75px; font-family:Arial;" text-anchor="middle"><textPath startOffset="21.466115282336833" xlink:href="#id114">June</textPath></text><path d="M 107.2578585660854 119.70592522655815 l 8.647172713913005 23.478073783051236 a46.01986299935792,46.01986299935792 0 0,0 -0.7456980571990915,0.267380792645515 l -8.241755096084178 -23.62344211673671" fill="red" stroke="none" /><path d="M 105.53697534728816 120.25689768951611 l 6.603390420445056 24.15835284807615 a46.04457580748723,46.04457580748723 0 0,0 -0.7663342524479666,0.2023958411751422 l -6.1865657251855914 -24.268440038554875" fill="red" stroke="none" /><path d="M 102.70371172650421 120.8252237178851 l 2.9690972364148642 22.869344236058915 a44.06127585773709,44.06127585773709 0 0,0 -0.7529706481290529,0.09117425933735357 l -2.5749991652344306 -22.91706402412162" fill="red" stroke="none" /><line stroke="#e1ed5e" stroke-width="0.3" x1="102.19456741930631" x2="102.32365962044197" y1="184.97166512339345" y2="189.96999836594603" /><path d="M 102.22038585953345 185.97133177190398 a86.0,86.0 0 0,1 -42.740103519485714,-10.115201625700543" fill="none" id="id115" stroke="none" /><text fill="#e1ed5e" style="font-size:6.75px; font-family:Arial;" text-anchor="middle"><textPath startOffset="22.20632615414155" xlink:href="#id115">July</textPath></text><path d="M 90.10565033884886 118.52300852407294 l -14.15758032205517 26.50411497132852 a51.04838083805589,51.04838083805589 0 0,0 -0.7715043604305214,-0.4206856912644386 l 14.61170749435433 -26.256488628304318" fill="red" stroke="none" /><line stroke="#e1ed5e" stroke-width="0.3" x1="58.666819895761336" x2="56.23545636021788" y1="174.27360380694188" y2="178.64263932499728" /><path d="M 58.180547188652646 175.14741091055294 a86.0,86.0 0 0,1 -31.652253787137756,-30.449443065178592" fill="none" id="id116" stroke="none" /><text fill="#e1ed5e" style="font-size:6.75px; font-family:Arial;" text-anchor="middle"><textPath startOffset="22.20632615414155" xlink:href="#id116">August</textPath></text><path d="M 86.24171649860922 115.8653595955263 l -16.402542231263443 18.9145855842769 a46.03607276457944,46.03607276457944 0 0,0 -0.5942109316660963,-0.524322059474972 l 16.725695515836126 -18.62944038302964" fill="red" stroke="none" /><path d="M 85.97065885151581 115.62618273729859 l -20.06614818484575 22.350108608200074 a51.03627236816392,51.03627236816392 0 0,0 -0.6486478137426318,-0.5925243985626678 l 20.44789554805524 -22.001391443050828" fill="red" stroke="none" /><path d="M 85.18274418774928 114.88116024355367 l -17.67347928318107 17.749702145028547 a46.04802978699645,46.04802978699645 0 0,0 -0.5568728029585621,-0.5641092093412546 l 17.976392711195167 -17.442852441706627" fill="red" stroke="none" /><line stroke="#e1ed5e" stroke-width="0.3" x1="26.63291911575756" x2="22.317208475507996" y1="142.92168965132927" y2="145.44649492493687" /><path d="M 25.769776987707644 143.4266507060508 a86.0,86.0 0 0,1 -11.730757126820373,-40.83630448921669" fill="none" id="id117" stroke="none" /><text fill="#e1ed5e" style="font-size:6.75px; font-family:Arial;" text-anchor="middle"><textPath startOffset="21.46611528233685" xlink:href="#id117">September</textPath></text><path d="M 81.35079622478065 109.6543875284942 l -23.217734173395527 12.019440934061368 a47.14440935484771,47.14440935484771 0 0,0 -0.36687628994809446,-0.7238817256302468 l 23.42118913312989 -11.618004996728436" fill="red" stroke="none" /><path d="M 80.73074385275274 108.34839909993369 l -17.042048018475953 7.383461886192016 a39.572746433656235,39.572746433656235 0 0,0 -0.26541821460505377,-0.6273702560532297 l 17.166617214273316 -7.089017104472628" fill="red" stroke="none" /><path d="M 80.45479744820244 107.68017299344265 l -25.918252564456818 10.184425710362355 a48.84741178359063,48.84741178359063 0 0,0 -0.30077379860331904,-0.7852254780636428 l 26.089720642653646 -9.736776665465554" fill="red" stroke="none" /><path d="M 80.32549172779594 107.34259656027581 l -28.139157741759693 10.501633890164666 a51.03492155439547,51.03492155439547 0 0,0 -0.300074983498542,-0.825677477510755 l 28.31575698626346 -10.015708615647792" fill="red" stroke="none" /><path d="M 80.0844068197444 106.66101706037122 l -26.996620392008513 9.029354404658836 a49.46659012869546,49.46659012869546 0 0,0 -0.26313340157992343,-0.8098413381234586 l 27.148046044604687 -8.563314166557573" fill="red" stroke="none" /><path d="M 79.76711848015287 105.62410040840567 l -28.940558269254822 8.04455882479927 a51.03782348343151,51.03782348343151 0 0,0 -0.2279979238242688,-0.8484650918596353 l 29.074744269420865 -7.545202799764095" fill="red" stroke="none" /><path d="M 79.67330655649465 105.27499134158121 l -15.590030819728794 4.0457774314164 a37.10643896038637,37.10643896038637 0 0,0 -0.15512026226299783,-0.6196283391670231 l 15.657362396286851 -3.7768212528519842" fill="red" stroke="none" /><path d="M 79.29508885075956 103.50808413554451 l -13.717127667773777 2.3241267547444253 a34.91262579911225,34.91262579911225 0 0,0 -0.09529192673551683,-0.5933829187453202 l 13.755101348870586 -2.0876646063058915" fill="red" stroke="none" /><path d="M 79.18660465613746 102.79330883721812 l -26.49706000744338 3.556097919454353 a47.73462214901873,47.73462214901873 0 0,0 -0.10228504539894373,-0.8153124509834306 l 26.554346562089172 -3.099467714183514" fill="red" stroke="none" /><path d="M 79.1416061653843 102.43462659150553 l -24.876344261115257 2.9036084809678306 a46.04522800870997,46.04522800870997 0 0,0 -0.08511284657892498,-0.7880392526659149 l 24.922639409195234 -2.4749729064171335" fill="red" stroke="none" /><path d="M 79.04373962182676 101.35467743843564 l -25.145325914538645 1.6254715814666696 a46.19780889701572,46.19780889701572 0 0,0 -0.04446791899091167,-0.7940045654411111 l 25.16958018441709 -1.192395299690121" fill="red" stroke="none" /><line stroke="#e1ed5e" stroke-width="0.3" x1="15.007084014347285" x2="10.007500721073583" y1="101.09737516637583" y2="101.16192664675087" /><path d="M 14.007167355692545 101.11028546245083 a86.0,86.0 0 0,1 10.666146001902534,-42.60595125391555" fill="none" id="id118" stroke="none" /><text fill="#e1ed5e" style="font-size:6.75px; font-family:Arial;" text-anchor="middle"><textPath startOffset="22.20632615414155" xlink:href="#id118">October</textPath></text><path d="M 79.16333360222342 97.38593545837743 l -14.895248408463054 -1.868683788467144 a36.01200866809972,36.01200866809972 0 0,0 0.08245721232029533,-0.6144020081518392 l 14.860875197084924 2.1248041386836425" fill="red" stroke="none" /><path d="M 79.26566170972629 96.67025291283419 l -16.620076957944498 -2.6690339505624388 a37.83302409899221,37.83302409899221 0 0,0 0.10879361420946101,-0.6421060695176473 l 16.571671482214814 2.954725808395914" fill="red" stroke="none" /><path d="M 79.3925641242962 95.95851677861259 l -23.52143168517281 -4.6129694190005335 a44.969506364981434,44.969506364981434 0 0,0 0.15551034355143262,-0.7583236635311784 l 23.438542045706384 5.017168738695115" fill="red" stroke="none" /><path d="M 79.54389044137918 95.25157060432595 l -23.89936574040841 -5.547704488701016 a45.53480604952402,45.53480604952402 0 0,0 0.18380276188024108,-0.76198111044418 l 23.80033017826735 5.958270830804594" fill="red" stroke="none" /><path d="M 79.81627453868168 94.20196356495316 l -6.214884569963589 -1.7853060499320592 a27.46622825995924,27.46622825995924 0 0,0 0.13444601398607584,-0.4532851224673147 l 6.183232658865806 1.8920205591459132" fill="red" stroke="none" /><path d="M 80.02781315780177 93.51064311812611 l -9.403135134037486 -3.0552638113884263 a30.88704138284805,30.88704138284805 0 0,0 0.16864722630193404,-0.5042337408186488 l 9.34915061396378 3.2166706551293975" fill="red" stroke="none" /><path d="M 80.14247586403 93.16781622104843 l -19.69851685421719 -6.777475701364048 a41.831844448787024,41.831844448787024 0 0,0 0.24012857011164507,-0.6788758037666387 l 19.578935203295735 7.115549131557298" fill="red" stroke="none" /><path d="M 80.2630227832202 92.82701384747504 l -9.676154416587822 -3.5165932897196597 a31.295357820831356,31.295357820831356 0 0,0 0.18836141094060888,-0.504714933919211 l 9.614188417145586 3.682631360668212" fill="red" stroke="none" /><path d="M 81.10775173730289 90.83032412892265 l -27.0422607562806 -13.1254238515309 a51.05928505625192,51.05928505625192 0 0,0 0.3905791852402054,-0.7873838039793071 l 26.812321558086982 13.58896724400917" fill="red" stroke="none" /><line stroke="#e1ed5e" stroke-width="0.3" x1="26.266209847984243" x2="21.928928074336255" y1="57.711370442889674" y2="55.22380399835377" /><path d="M 25.398753493254645 57.213857153982495 a86.0,86.0 0 0,1 29.58750427330803,-30.492523968695096" fill="none" id="id119" stroke="none" /><text fill="#e1ed5e" style="font-size:6.75px; font-family:Arial;" text-anchor="middle"><textPath startOffset="21.46611528233685" xlink:href="#id119">November</textPath></text><path d="M 81.78341655067845 89.55222093294921 l -21.72060759824059 -12.45744626152574 a46.0394241506379,46.0394241506379 0 0,0 0.40019292722172495,-0.6840594370652601 l 21.502954996548542 12.829485110944892" fill="red" stroke="none" /><path d="M 82.15384107792192 88.93136811851018 l -21.392442193181726 -13.268125018736917 a46.17299593813685,46.17299593813685 0 0,0 0.4247308863759665,-0.6718222629037947 l 21.160883710559798 13.634394929354928" fill="red" stroke="none" /><path d="M 82.54541684631803 88.32363383020206 l -20.93278400616311 -14.003133094455553 a46.18470136232936,46.18470136232936 0 0,0 0.44771786941742164,-0.6569707278866929 l 20.68864167107695 14.36138184561266" fill="red" stroke="none" /><path d="M 82.7489923806493 88.02491185347247 l -4.58581851347416 -3.1833259908384286 a26.582409497920214,26.582409497920214 0 0,0 0.2641625427343559,-0.3736391829102227 l 4.530343350935926 3.2617916740804374" fill="red" stroke="none" /><path d="M 83.39014120810768 87.1503855733568 l -19.79928460974254 -15.316997955620657 a46.032420926272295,46.032420926272295 0 0,0 0.4902363381210236,-0.622550365134106 l 19.532694191027545 15.655540714707811" fill="red" stroke="none" /><path d="M 83.84228863543731 86.58626213691792 l -15.538837437277907 -12.899963823950461 a41.1956563538148,41.1956563538148 0 0,0 0.4576433046560337,-0.5417053245838287 l 15.314483519134749 13.165528098163406" fill="red" stroke="none" /><path d="M 85.31137513191541 84.99185889309783 l -16.578852612742512 -16.939486278474178 a44.70241652941012,44.70241652941012 0 0,0 0.5545585027108633,-0.5334848402317188 l 16.28481086641922 17.22235420546821" fill="red" stroke="none" /><path d="M 85.83668400450813 84.49514656593479 l -16.90377391583899 -18.50488523528534 a46.06328689874654,46.06328689874654 0 0,0 0.5900246690941553,-0.5297299735901135 l 16.58273825914886 18.79311421764473" fill="red" stroke="none" /><path d="M 87.22198572758235 83.33499621200491 l -12.175992308939524 -15.879850626640776 a41.010608302392455,41.010608302392455 0 0,0 0.5639033754297108,-0.42472033143065885 l 11.900842779751423 16.087087547577287" fill="red" stroke="none" /><line stroke="#e1ed5e" stroke-width="0.3" x1="56.762969772571076" x2="54.21961505331055" y1="26.818313649435495" y2="22.513508569990535" /><path d="M 56.25429882871897 25.957352633546506 a86.0,86.0 0 0,1 42.265352541879196,-11.944610805530505" fill="none" id="id120" stroke="none" /><text fill="#e1ed5e" style="font-size:6.75px; font-family:Arial;" text-anchor="middle"><textPath startOffset="22.20632615414155" xlink:href="#id120">December</textPath></text><path d="M 89.3179101791058 81.91981866633112 l -10.374833616882675 -17.560128799233418 a41.39596273833784,41.39596273833784 0 0,0 0.6166091622521872,-0.3571798261439683 l 10.071027722165168 17.736112782767435" fill="red" stroke="none" /><path d="M 89.94658935756843 81.56283822128135 l -4.738410465568421 -8.689870874162212 a30.897797206945647,30.897797206945647 0 0,0 0.46913884241897674,-0.25059772231322247 l 4.588126576621139 8.770147322977182" fill="red" stroke="none" /></svg>