<?xml version="1.0" encoding="utf-8" ?>
<svg baseProfile="full" height="200mm" version="1.1" viewBox="0,0,200,200" width="200mm" xmlns="http://www.w3.org/2000/svg" xmlns:ev="http://www.w3.org/2001/xml-events" xmlns:xlink="http://www.w3.org/1999/xlink"><defs /><rect fill="#1a1a1a" height="200" width="200" x="0" y="0" /><text alignment-baseline="middle" fill="#e1ed5e" style="dominant-baseline: central; font-size:9.0px; font-family:Arial;" text-anchor="middle" x="100.0" y="100.0">2021</text><line stroke="#e1ed5e" stroke-width="0.3" x1="100.0" x2="100.0" y1="15.0" y2="10.0" /><path d="M 100.0 14.0 a86.0,86.0 0 0,1 42.46469731375804,11.215312516191453" fill="none" id="id61" stroke="none" /><text fill="#e1ed5e" style="font-size:6.75px; font-family:Arial;" text-anchor="middle"><textPath startOffset="22.20632615414155" xlink:href="#id61">January</textPath></text><line stroke="#e1ed5e" stroke-width="0.3" x1="143.23703022742887" x2="145.7803849466894" y1="26.81831364943548" y2="22.513508569990506" /><path d="M 143.74570117128098 25.957352633546492 a86.0,86.0 0 0,1 28.547481713284135,27.462654790039103" fill="none" id="id62" stroke="none" /><text fill="#e1ed5e" style="font-size:6.75px; font-family:Arial;" text-anchor="middle"><textPath startOffset="19.985693538727396" xlink:href="#id62">February</textPath></text><line stroke="#e1ed5e" stroke-width="0.3" x1="172.23445277983987" x2="176.4835382374775" y1="55.19839476539836" y2="52.563006222186495" /><path d="M 173.08426987136738 54.67131705675599 a86.0,86.0 0 0,1 12.851231095245387,41.99856678651699" fill="none" id="id63" stroke="none" /><text fill="#e1ed5e" style="font-size:6.75px; font-family:Arial;" text-anchor="middle"><textPath startOffset="22.20632615414155" xlink:href="#id63">March</textPath></text><line stroke="#e1ed5e" stroke-width="0.3" x1="184.98032266829074" x2="189.97916517819016" y1="98.17113171792111" y2="98.06355123074" /><path d="M 185.9800911702706 98.14961562048488 a86.0,86.0 0 0,1 -9.607161424134198,41.387399972396054" fill="none" id="id64" stroke="none" /><text fill="#e1ed5e" style="font-size:6.75px; font-family:Arial;" text-anchor="middle"><textPath startOffset="21.466115282336823" xlink:href="#id64">April</textPath></text><path d="M 120.92983693683757 101.71520430193887 l 18.987674748184315 1.5560437240951899 a40.05132710375139,40.05132710375139 0 0,0 -0.06222336744756209,0.6866296747942656 l -18.958076784459678 -1.8826547874380262" fill="red" stroke="none" /><path d="M 120.8583938346157 102.4346265915055 l 18.870693639559498 2.202618902457399 a39.99880544843738,39.99880544843738 0 0,0 -0.08570885129088716,0.6831838744793859 l -18.82998327902176 -2.5271205312241802" fill="red" stroke="none" /><path d="M 120.81339534386255 102.79330883721812 l 31.396452196924095 4.213631938953444 a52.677940347672674,52.677940347672674 0 0,0 -0.12834841944664466,0.8976685466743122 l -31.31926972646085 -4.753445957608165" fill="red" stroke="none" /><path d="M 120.5718875245553 104.21870165774334 l 27.987990493589745 5.739530791779604 a49.57043621611431,49.57043621611431 0 0,0 -0.1786092717686176,0.834403055614698 l -27.885047183096685 -6.220447666810471" fill="red" stroke="none" /><path d="M 120.41448212921028 104.9243191809786 l 24.619903013568166 5.938737993753678 a46.326038643182166,46.326038643182166 0 0,0 -0.19366200220958021,0.773583431579258 l -24.514029697063524 -6.361649264730332" fill="red" stroke="none" /><path d="M 120.32669344350535 105.2749913415812 l 16.526130534419718 4.288705180761136 a38.07354627979106,38.07354627979106 0 0,0 -0.17008345795226526,0.6329438196397825 l -16.449859000125674 -4.572539933576467" fill="red" stroke="none" /><path d="M 119.41010516605496 108.01547362559984 l 23.306323715925874 9.624431266936023 a46.215360444846006,46.215360444846006 0 0,0 -0.3099708653571589,0.7326795617909325 l -23.13720186937641 -10.024185354393119" fill="red" stroke="none" /><path d="M 118.97047184881838 109.00673069616215 l 28.399400282287868 13.483362581253377 a52.437668534596455,52.437668534596455 0 0,0 -0.3941483432811008,0.8120623300420446 l -28.163098682392054 -13.970213867260698" fill="red" stroke="none" /><line stroke="#e1ed5e" stroke-width="0.3" x1="174.80103733775053" x2="179.2010983576182" y1="140.37084112569926" y2="142.7455964860345" /><path d="M 175.68104954172406 140.8457921977663 a86.0,86.0 0 0,1 -30.038265399797805,32.042727171017184" fill="none" id="id65" stroke="none" /><text fill="#e1ed5e" style="font-size:6.75px; font-family:Arial;" text-anchor="middle"><textPath startOffset="22.206326154141568" xlink:href="#id65">May</textPath></text><path d="M 118.48025628344425 109.97397251340804 l 44.389434583460975 23.957405873088312 a71.44183976429932,71.44183976429932 0 0,0 -0.5933877241466193,1.07717108044177 l -43.970470449862844 -24.717947471927886" fill="red" stroke="none" /><path d="M 118.12598468904814 110.60418214915192 l 21.82683341247295 12.769276881542654 a46.28764696236772,46.28764696236772 0 0,0 -0.40825511601711245,0.6842590572350794 l -21.60379742075761 -13.143098032663838" fill="red" stroke="none" /><path d="M 117.94076556474637 110.91462005526583 l 27.04295347760084 16.45211634447973 a52.65428035833354,52.65428035833354 0 0,0 -0.47773820386186594,0.770266099781023 l -26.75575063407101 -16.915178775626025" fill="red" stroke="none" /><path d="M 117.75023020441432 111.22182372390056 l 26.63592919697771 16.839426797768798 a52.512521623377324,52.512521623377324 0 0,0 -0.4896045878887982,0.7598771930953337 l -26.34211974571186 -17.295425590785584" fill="red" stroke="none" /><path d="M 117.55443506779139 111.5257021239791 l 26.44272836781711 17.361482117527178 a52.632877593595175,52.632877593595175 0 0,0 -0.5037640452195367,0.7530588959999834 l -26.139961217186855 -17.814077927732967" fill="red" stroke="none" /><path d="M 117.14729908036423 112.12312394758627 l 25.844762985286867 18.272222558094384 a52.65163330664292,52.65163330664292 0 0,0 -0.5295756627996545,0.7355342776323319 l -25.526407530111612 -18.714390441177848" fill="red" stroke="none" /><path d="M 116.93607887273984 112.41649034213515 l 15.303790283987995 11.219796842411498 a39.97603325885767,39.97603325885767 0 0,0 -0.41163651402144064,0.5514543792094444 l -15.108392503271462 -11.481564101130258" fill="red" stroke="none" /><path d="M 116.27256486870786 113.27417163493432 l 24.522305092086658 20.003809436491746 a52.64641905493978,52.64641905493978 0 0,0 -0.5788699405269702,0.6972861339715519 l -24.174339151666146 -20.422956827577067" fill="red" stroke="none" /><path d="M 116.0416608686014 113.55231037782055 l 24.064274167371043 20.329971765673857 a52.50233393251201,52.50233393251201 0 0,0 -0.5891699169625108,0.685337718017635 l -23.710761740837754 -20.74118658285302" fill="red" stroke="none" /><path d="M 115.07121518719521 114.62390073753431 l 22.562088927077085 21.892444955687832 a52.437668534596455,52.437668534596455 0 0,0 -0.6341446440281487,0.6423851763817109 l -22.181903657993402 -22.277570626050206" fill="red" stroke="none" /><path d="M 114.81725581225074 114.88116024355365 l 22.181903657993402 22.277570626050206 a52.437668534596455,52.437668534596455 0 0,0 -0.6451082934864434,0.6313742424739522 l -21.795145412131163 -22.65609497144673" fill="red" stroke="none" /><path d="M 114.29624159901734 115.38237550388516 l 21.52357307718661 23.15879183808384 a52.616353955013395,52.616353955013395 0 0,0 -0.6687299321906681,0.6108689376225199 l -21.12174359552908 -23.525853542292943" fill="red" stroke="none" /><path d="M 114.0293411484842 115.62618273729858 l 21.00237032308672 23.39289301696313 a52.437668534596455,52.437668534596455 0 0,0 -0.6768395739072369,0.5972322291852804 l -20.596588396272896 -23.750948387920698" fill="red" stroke="none" /><path d="M 113.75828350139079 115.86535959552629 l 12.413698528121785 14.31485192460226 a39.9476884281535,39.9476884281535 0 0,0 -0.5233803913108865,0.4460361239702392 l -12.16545266023385 -14.526412438795447" fill="red" stroke="none" /><path d="M 113.48314897796784 116.09983520530334 l 20.36932224044164 24.322413988802317 a52.72521254109478,52.72521254109478 0 0,0 -0.700818180907125,0.576725651427723 l -19.947633930989827 -24.66943475908722" fill="red" stroke="none" /><path d="M 113.20401910651253 116.32954008644616 l 19.766836952143777 24.44584136000476 a52.437668534596455,52.437668534596455 0 0,0 -0.7067661513375546,0.561497775336727 l -19.34311330808887 -24.78247304934661" fill="red" stroke="none" /><path d="M 112.63410532772338 116.77436683061366 l 18.961225731675704 25.174917236384406 a52.51673427096097,52.51673427096097 0 0,0 -0.7267691563655104,0.5376464472825632 l -18.52507160489163 -25.497573632406738" fill="red" stroke="none" /><path d="M 112.34349029814194 116.9893568818739 l 18.478597931094924 25.43360810801508 a52.437668534596455,52.437668534596455 0 0,0 -0.7348082305261983,0.524266162111874 l -18.038062372719843 -25.747918531971173" fill="red" stroke="none" /><path d="M 112.04921762599082 117.19931262002967 l 18.17166561081836 25.938626670078662 a52.67051917163839,52.67051917163839 0 0,0 -0.7470262627909967,0.5138114752967865 l -17.72248246340448 -26.24757893474054" fill="red" stroke="none" /><path d="M 111.7513745106137 117.40417183066458 l 10.555309048302266 15.632759575188397 a39.86260112075787,39.86260112075787 0 0,0 -0.5719814424629052,0.379078110869656 l -10.284652907099398 -15.81213570714937" fill="red" stroke="none" /><path d="M 111.45004920935366 117.60387380957326 l 17.22034857023638 26.475418371098723 a52.583036313900436,52.583036313900436 0 0,0 -0.7630003842129789,0.4869829453184441 l -16.762066383976467 -26.767915745240973" fill="red" stroke="none" /><line stroke="#e1ed5e" stroke-width="0.3" x1="143.8653032363475" x2="146.44561519142675" y1="172.8068346515853" y2="177.08958963109032" /><path d="M 144.38136562736335 173.6633856474863 a86.0,86.0 0 0,1 -40.68145358897372,12.25698825130547" fill="none" id="id66" stroke="none" /><text fill="#e1ed5e" style="font-size:6.75px; font-family:Arial;" text-anchor="middle"><textPath startOffset="21.466115282336833" xlink:href="#id66">June</textPath></text><path d="M 110.8373102113329 117.98757091392108 l 32.51193063399873 53.96271274176323 a84.0,84.0 0 0,0 -1.2449285158864716,0.735525710825002 l -31.578234247083873 -54.514357024881974" fill="red" stroke="none" /><path d="M 109.89434966115114 118.52300852407294 l 14.845586577505845 27.792117333360018 a52.508621466218926,52.508621466218926 0 0,0 -0.8009042453058316,0.4189952480717249 l -14.364991429673518 -28.04354200037646" fill="red" stroke="none" /><path d="M 109.57404056367764 118.69057910512821 l 14.35968061194613 28.033174145949015 a52.49697255252012,52.49697255252012 0 0,0 -0.8078186447062978,0.4050570384957115 l -13.875008059557072 -28.27619902535403" fill="red" stroke="none" /><path d="M 109.2508944713604 118.85261126421891 l 10.46331427572659 21.32342955444149 a44.752254495012735,44.752254495012735 0 0,0 -0.6944853723025853,0.3333951825118135 l -10.094716235423773 -21.500379013452864" fill="red" stroke="none" /><path d="M 108.59647513512805 119.15986991738527 l 12.919536096681032 28.79513138982457 a52.56064011883638,52.56064011883638 0 0,0 -0.8286543461952833,0.3632577134655587 l -12.421961075827994 -29.013253656584585" fill="red" stroke="none" /><path d="M 107.93186726928326 119.44442032107085 l 8.809620402150797 21.59617100904666 a44.32389362610752,44.32389362610752 0 0,0 -0.7089267474653227,0.2820965833970952 l -8.436572578643608 -21.744614436849822" fill="red" stroke="none" /><path d="M 107.2578585660854 119.70592522655815 l 10.894896581715809 29.580903986418267 a52.523461932027374,52.523461932027374 0 0,0 -0.8510812715941749,0.30516746397241457 l -10.3840957494919 -29.76405899143064" fill="red" stroke="none" /><path d="M 106.2309692047433 120.05430185196036 l 9.355602483000224 30.110897684779296 a52.530833436545365,52.530833436545365 0 0,0 -0.8658207650428311,0.2608646940713687 l -8.835906743517148 -30.26747774795639" fill="red" stroke="none" /><path d="M 105.53697534728816 120.25689768951611 l 5.027570898746751 18.39325316349496 a40.0679896968281,40.0679896968281 0 0,0 -0.6668640636367559,0.17612486023962387 l -4.710216392298498 -18.47706937303817" fill="red" stroke="none" /><path d="M 105.18746579009965 120.34920634021253 l 3.4373605343829294 13.483955675111583 a34.91518983311788,34.91518983311788 0 0,0 -0.5836601287372982,0.14344945926324693 l -3.2047471209024203 -13.54112639268886" fill="red" stroke="none" /><path d="M 104.48393922423573 120.51570834832081 l 6.752200075852386 30.893854831252433 a52.623131916349465,52.623131916349465 0 0,0 -0.8865958761110789,0.18579478604931335 l -6.219412738311929 -31.005505598028286" fill="red" stroke="none" /><path d="M 104.13013068566511 120.58985236759428 l 4.768826688599463 23.77392992083838 a45.24750403375228,45.24750403375228 0 0,0 -0.7649680615133095,0.14660794962835688 l -4.358891012514449 -23.852495068815205" fill="red" stroke="none" /><path d="M 103.41894727170886 120.7198165907248 l 2.0881156175601103 12.65458902337754 a33.82571051376436,33.82571051376436 0 0,0 -0.5753014611179501,0.08985025655450365 l -1.869978292833643 -12.688657587279149" fill="red" stroke="none" /><path d="M 102.34483914955558 120.86867818915974 l 2.876848296187997 25.60347105410548 a46.76458783170608,46.76458783170608 0 0,0 -0.8007153055931326,0.08299741535208768 l -2.435700393989262 -25.649197837913327" fill="red" stroke="none" /><path d="M 101.62511606390274 120.93702456842531 l 2.4441432885739793 31.488882067126067 a52.583595904400354,52.583595904400354 0 0,0 -0.9030287073942519,0.0622781467347202 l -1.901751820400797 -31.526288558377075" fill="red" stroke="none" /><line stroke="#e1ed5e" stroke-width="0.3" x1="102.19456741930631" x2="102.32365962044197" y1="184.97166512339345" y2="189.96999836594603" /><path d="M 102.22038585953345 185.97133177190398 a86.0,86.0 0 0,1 -42.740103519485714,-10.115201625700543" fill="none" id="id67" stroke="none" /><text fill="#e1ed5e" style="font-size:6.75px; font-family:Arial;" text-anchor="middle"><textPath startOffset="22.20632615414155" xlink:href="#id67">July</textPath></text><path d="M 100.54218724476979 120.99299961872073 l 0.49169935586668245 19.038154235105953 a40.04450274846373,40.04450274846373 0 0,0 -0.6892236900713639,0.011865610866527095 l -0.16391597590265067 -19.043797323251642" fill="red" stroke="none" /><path d="M 96.58105272829116 120.7198165907248 l -1.226284626538557 7.431642119828548 a28.532136388999774,28.532136388999774 0 0,0 -0.48389284385914383,-0.08413097347806628 l 1.3540264418697507 -7.409432567829476" fill="red" stroke="none" /><line stroke="#e1ed5e" stroke-width="0.3" x1="58.666819895761336" x2="56.23545636021788" y1="174.27360380694188" y2="178.64263932499728" /><path d="M 58.180547188652646 175.14741091055294 a86.0,86.0 0 0,1 -31.652253787137756,-30.449443065178592" fill="none" id="id68" stroke="none" /><text fill="#e1ed5e" style="font-size:6.75px; font-family:Arial;" text-anchor="middle"><textPath startOffset="22.20632615414155" xlink:href="#id68">August</textPath></text><line stroke="#e1ed5e" stroke-width="0.3" x1="26.63291911575756" x2="22.317208475507996" y1="142.92168965132927" y2="145.44649492493687" /><path d="M 25.769776987707644 143.4266507060508 a86.0,86.0 0 0,1 -11.730757126820373,-40.83630448921669" fill="none" id="id69" stroke="none" /><text fill="#e1ed5e" style="font-size:6.75px; font-family:Arial;" text-anchor="middle"><textPath startOffset="21.46611528233685" xlink:href="#id69">September</textPath></text><path d="M 80.20201598880116 107.00284435728193 l -14.983937931230674 5.300043940445 a36.893673637571055,36.893673637571055 0 0,0 -0.20662068095078331,-0.6005364158398372 l 15.072949443124685 -5.041334821515866" fill="red" stroke="none" /><line stroke="#e1ed5e" stroke-width="0.3" x1="15.007084014347285" x2="10.007500721073583" y1="101.09737516637583" y2="101.16192664675087" /><path d="M 14.007167355692545 101.11028546245083 a86.0,86.0 0 0,1 10.666146001902534,-42.60595125391555" fill="none" id="id70" stroke="none" /><text fill="#e1ed5e" style="font-size:6.75px; font-family:Arial;" text-anchor="middle"><textPath startOffset="22.20632615414155" xlink:href="#id70">October</textPath></text><line stroke="#e1ed5e" stroke-width="0.3" x1="26.266209847984243" x2="21.928928074336255" y1="57.711370442889674" y2="55.22380399835377" /><path d="M 25.398753493254645 57.213857153982495 a86.0,86.0 0 0,1 29.58750427330803,-30.492523968695096" fill="none" id="id71" stroke="none" /><text fill="#e1ed5e" style="font-size:6.75px; font-family:Arial;" text-anchor="middle"><textPath startOffset="21.46611528233685" xlink:href="#id71">November</textPath></text><line stroke="#e1ed5e" stroke-width="0.3" x1="56.762969772571076" x2="54.21961505331055" y1="26.818313649435495" y2="22.513508569990535" /><path d="M 56.25429882871897 25.957352633546506 a86.0,86.0 0 0,1 42.265352541879196,-11.944610805530505" fill="none" id="id72" stroke="none" /><text fill="#e1ed5e" style="font-size:6.75px; font-family:Arial;" text-anchor="middle"><textPath startOffset="22.20632615414155" xlink:href="#id72">December</textPath></text></svg>