<?xml version="1.0" encoding="utf-8" ?>
<svg baseProfile="full" height="200mm" version="1.1" viewBox="0,0,200,200" width="200mm" xmlns="http://www.w3.org/2000/svg" xmlns:ev="http://www.w3.org/2001/xml-events" xmlns:xlink="http://www.w3.org/1999/xlink"><defs /><rect fill="#1a1a1a" height="200" width="200" x="0" y="0" /><text alignment-baseline="middle" fill="#e1ed5e" style="dominant-baseline: central; font-size:9.0px; font-family:Arial;" text-anchor="middle" x="100.0" y="100.0">2024</text><line stroke="#e1ed5e" stroke-width="0.3" x1="100.0" x2="100.0" y1="15.0" y2="10.0" /><path d="M 100.0 14.0 a86.0,86.0 0 0,1 42.35913384403234,11.155469271406648" fill="none" id="id97" stroke="none" /><text fill="#e1ed5e" style="font-size:6.75px; font-family:Arial;" text-anchor="middle"><textPath startOffset="22.145653131862478" xlink:href="#id97">January</textPath></text><path d="M 100.0 79.0 l 0.0 -9.015299793813128 a30.015299793813128,30.015299793813128 0 0,0 0.5152525339469963,0.004422823308923709 l -0.15475960909814152 9.01397136869864" fill="#ff1802" stroke="none" /><path d="M 100.36049292484886 79.00309439819443 l 0.5158619280936089 -30.046371124449337 a51.05079917867409,51.05079917867409 0 0,0 0.8760965871448797,0.022565140356311346 l -1.03157182930923 30.03308826674298" fill="#b8ff1f" stroke="none" /><path d="M 101.08105385017728 79.02784411241856 l 1.5490063386778923 -30.050309149981103 a51.090206058561684,51.090206058561684 0 0,0 0.8754809143280815,0.05266675779508627 l -2.064631605138436 30.019290414361326" fill="#b7ff1f" stroke="none" /><path d="M 101.80034050326958 79.07731436759882 l 2.677598089360001 -31.117748543597923 a52.232736126550535,52.232736126550535 0 0,0 0.8926834191149712,0.08453804790963922 l -3.2113810718599853 31.0671987401831" fill="#a9ff21" stroke="none" /><path d="M 102.15924093988457 79.11130261209362 l 4.008942667111483 -38.78288368468727 a59.989533059632414,59.989533059632414 0 0,0 1.023433141666591,0.11467781820099396 l -4.67411171037887 38.70835010597931" fill="#4dff2c" stroke="none" /><path d="M 102.87502721639298 79.19773525538626 l 4.106844427138546 -29.715080452511494 a50.997536189626466,50.997536189626466 0 0,0 0.866168611176354,0.12729695768864863 l -4.616338143922581 29.640202421523963" fill="#b8ff1f" stroke="none" /><path d="M 103.23170211078529 79.25015418208739 l 5.540774111727309 -35.57574448044837 a57.00463543900063,57.00463543900063 0 0,0 0.9656110121862252,0.158890924597159 l -6.1506626269666045 35.47538755735554" fill="#6fff28" stroke="none" /><path d="M 103.94208987418118 79.37332000966035 l 5.64109291206205 -29.51658181487963 a51.05079917867409,51.05079917867409 0 0,0 0.8593636631483157,0.17189680051272666 l -6.146953060741323 29.415395617704043" fill="#b8ff1f" stroke="none" /><path d="M 104.29559338865022 79.4440306129975 l 6.308565431558746 -30.188769316402215 a51.84087856471028,51.84087856471028 0 0,0 0.8695383707606895,0.1895118407847506 l -6.82586621893857 30.07602601748375" fill="#aeff20" stroke="none" /><path d="M 104.64783097203109 79.52079915486377 l 13.532683780946302 -59.627501686578874 a82.1438671307111,82.1438671307111 0 0,0 1.3724591306490312,0.3238966178207037 l -14.554275065335219 59.38640892511194" fill="#4ae5ff" stroke="none" /><path d="M 105.3480935250658 79.69241777938227 l 5.346494610342722 -20.301510880980423 a41.993721648840406,41.993721648840406 0 0,0 0.6955332111161016,0.1895706695885007 l -5.694209222393516 20.206739717247782" fill="#ffcd13" stroke="none" /><path d="M 105.69591212413111 79.78721728523813 l 9.761432071949756 -34.639878768376605 a56.9889810523043,56.9889810523043 0 0,0 0.939341199801409,0.27342853315686183 l -10.354633284132769 34.46720654091723" fill="#6fff27" stroke="none" /><path d="M 106.38641147887787 79.99465700312896 l 10.041218148258721 -31.453972833835817 a54.017850761862164,54.017850761862164 0 0,0 0.8809469355750175,0.2895847555530262 l -10.579687821481482 31.27696715688077" fill="#93ff23" stroke="none" /><path d="M 107.06938296918511 80.22567764915836 l 10.108799239217085 -28.27611060364766 a51.02875709929586,51.02875709929586 0 0,0 0.8223183323813485,0.3019666819461739 l -10.592706723252558 28.09841307269276" fill="#b8ff1f" stroke="none" /><path d="M 107.74402155503746 80.48000691201159 l 7.2439736699776205 -18.259545762182356 a40.643985491049435,40.643985491049435 0 0,0 0.646327506389355,0.2628557701471814 l -7.556355637557416 18.13250273545588" fill="#ffba11" stroke="none" /><path d="M 108.4095320186766 80.7573450057729 l 12.062183258086568 -27.600635849535514 a51.12127759990152,51.12127759990152 0 0,0 0.8011108231916293,0.3583266814953179 l -12.534207484133828 27.389505417130344" fill="#b7ff1f" stroke="none" /><path d="M 109.06512990194946 81.05736502329252 l 5.249628128165462 -10.969703740694278 a33.16112641339724,33.16112641339724 0 0,0 0.5113757577096975,0.25013950846182115 l -5.437164135137227 10.877970482135236" fill="#ff4906" stroke="none" /><path d="M 109.3889696526874 81.21577127319529 l 26.834379280439627 -53.68673419892563 a81.01957464288279,81.01957464288279 0 0,0 1.2387228536273551,0.6325007153119014 l -27.75202935578056 53.218175531940894" fill="#49f1ff" stroke="none" /><path d="M 110.02825361518725 81.54914285379988 l 10.03424989115998 -18.461889618615295 a42.012556702319195,42.012556702319195 0 0,0 0.6307001271822623,0.3498387288444856 l -10.349694206498343 18.286917974337666" fill="#ffcd13" stroke="none" /><path d="M 110.34350942703115 81.72400993836675 l 14.778684891866966 -26.11252013769319 a51.004553572325136,51.004553572325136 0 0,0 0.7582859904141802,0.43779662068834896 l -15.224763350141544 25.854976619728667" fill="#b8ff1f" stroke="none" /><line stroke="#e1ed5e" stroke-width="0.3" x1="143.13028292997686" x2="145.6673583964461" y1="26.7553504044142" y2="22.446841604673864" /><path d="M 143.63769802327073 25.89364864446614 a86.0,86.0 0 0,1 29.32050498858742,28.57503671076993" fill="none" id="id98" stroke="none" /><text fill="#e1ed5e" style="font-size:6.75px; font-family:Arial;" text-anchor="middle"><textPath startOffset="20.669276256404974" xlink:href="#id98">February</textPath></text><path d="M 110.96478420261332 82.08984904055464 l 15.668312398647572 -25.59301078380043 a51.00830242451809,51.00830242451809 0 0,0 0.7428651719504908,0.4636028093676722 l -16.105341699387775 25.320272177591214" fill="#b8ff1f" stroke="none" /><path d="M 111.8722381534696 82.67804972795209 l 16.972087557618895 -24.762782963547664 a51.02077907322274,51.02077907322274 0 0,0 0.7181901307706525,0.5013524887343246 l -17.394672779563308 24.46778565900821" fill="#b8ff1f" stroke="none" /><path d="M 112.45986205192187 83.09580414077388 l 14.266659531580336 -19.355463645886058 a45.045198005781714,45.045198005781714 0 0,0 0.6185070575661841,0.46413922674171926 l -14.596819578057286 19.107705391880327" fill="#fff717" stroke="none" /><path d="M 113.03279911837588 83.53348406188908 l 18.633543070611736 -23.542872959891127 a51.02458650123121,51.02458650123121 0 0,0 0.6821482549124803,0.5494903474161557 l -19.034942095879476 23.219534318681564" fill="#b8ff1f" stroke="none" /><path d="M 113.59037401385872 83.9905735841838 l 29.118691592042314 -34.3017454775173 a65.99453236602037,65.99453236602037 0 0,0 0.8573648882335445,0.7405713703476021 l -29.703235960038718 33.79682997470498" fill="#34ff5c" stroke="none" /><path d="M 114.39649973595853 84.71141617570332 l 6.180766556934152 -6.56375989561367 a30.015809403408106,30.015809403408106 0 0,0 0.3720924307966582,0.35645613163188966 l -6.292531473596123 6.4566916336762" fill="#ff1802" stroke="none" /><path d="M 114.91283532996326 85.21462403516908 l 38.352612259703264 -38.0248141246319 a75.00749352039907,75.00749352039907 0 0,0 0.8987083515393983,0.9221539405639485 l -38.99970741239348 37.360837492000215" fill="#41ffcb" stroke="none" /><path d="M 115.41159269507618 85.73525988315684 l 6.8247837199222685 -6.316917923055196 a30.29952283024952,30.29952283024952 0 0,0 0.3500349477148836,0.38474972463619106 l -6.93221636847903 6.198830622861333" fill="#ff1c02" stroke="none" /><path d="M 115.8921839302757 86.27271002978787 l 22.752253036367268 -19.65285427579583 a51.06492473658549,51.06492473658549 0 0,0 0.5673202169116924,0.6683017890155835 l -23.086267816786073 19.259385704330693" fill="#b7ff1f" stroke="none" /><path d="M 116.35404254752997 86.82634096563983 l 27.801653522541486 -22.39504410196709 a56.69971903133825,56.69971903133825 0 0,0 0.6040776438334293,0.763232369323842 l -28.181997597016473 21.91449178872857" fill="#72ff27" stroke="none" /><path d="M 116.7966241395341 87.39550010848427 l 23.99131155746536 -18.003527459523184 a50.99516679788889,50.99516679788889 0 0,0 0.5194172947168751,0.7046893172632716 l -24.29683087176606 17.589031832991036" fill="#b8ff1f" stroke="none" /><path d="M 117.21940702142032 87.97951657250589 l 24.591623532770296 -17.166863107604104 a50.990817543586914,50.990817543586914 0 0,0 0.4948786639790567,0.7220427603735015 l -24.88269193356468 16.742185612160554" fill="#b8ff1f" stroke="none" /><path d="M 117.62189284568427 88.57770195909679 l 25.166427290836026 -16.312574117771366 a50.990817543586914,50.990817543586914 0 0,0 0.46980100401029834,0.7386052101768577 l -25.442745986472215 15.878155232915837" fill="#b8ff1f" stroke="none" /><path d="M 117.81537515405839 88.88188828441811 l 25.442745986472215 -15.878155232915837 a50.990817543586914,50.990817543586914 0 0,0 0.4570526371577403,0.7465611339579944 l -25.711566588085358 15.439056982833288" fill="#b8ff1f" stroke="none" /><line stroke="#e1ed5e" stroke-width="0.3" x1="172.87174338648825" x2="177.1583165268699" y1="56.24261187166439" y2="53.66864786411523" /><path d="M 173.72905801456457 55.72781907015455 a86.0,86.0 0 0,1 12.242430191666344,42.057860355516425" fill="none" id="id99" stroke="none" /><text fill="#e1ed5e" style="font-size:6.75px; font-family:Arial;" text-anchor="middle"><textPath startOffset="22.145653131862474" xlink:href="#id99">March</textPath></text><path d="M 118.18653347947321 89.5 l 23.37557961385354 -13.495897182521873 a47.99179436504374,47.99179436504374 0 0,0 0.40579721104699557,0.7170047891822746 l -23.60381018992191 13.09263562324048" fill="#dfff1b" stroke="none" /><path d="M 118.53625476483649 90.13048839642627 l 31.76671054820885 -16.91398409983391 a56.9889810523043,56.9889810523043 0 0,0 0.4523620618456618,0.8674638997626494 l -32.052380679029454 16.366173956966765" fill="#6fff27" stroke="none" /><path d="M 118.8641267826498 90.77261029715802 l 26.940504021787703 -13.17795052292887 a50.990817543586914,50.990817543586914 0 0,0 0.3778680411125588,0.7895988749835168 l -27.162751320860174 12.71353914588025" fill="#b8ff1f" stroke="none" /><path d="M 119.0197475246899 91.09779779509293 l 27.189914072181036 -12.726252685026132 a51.020808361130506,51.020808361130506 0 0,0 0.3644720890391838,0.7964372912900829 l -27.404370626075274 12.257626411521365" fill="#b8ff1f" stroke="none" /><path d="M 119.31412917781788 91.75594674310238 l 24.83949651340605 -10.602504013809124 a48.007659624675924,48.007659624675924 0 0,0 0.31702007877294797,0.760732781947652 l -25.017842436715483 10.174538722420195" fill="#dfff1b" stroke="none" /><path d="M 119.4528033332814 92.08871423366111 l 58.358409999844184 -23.733857299016663 a84.0,84.0 0 0,0 0.5317653001355023,1.3403959311457387 l -58.75723397494581 22.728560350657357" fill="#4dd2ff" stroke="none" /><path d="M 119.71291397450082 92.76114493625339 l 28.180838698473377 -10.348394315368388 a51.020808361130506,51.020808361130506 0 0,0 0.2948512679489218,0.8247514731329548 l -28.354330136466242 9.863107885854516" fill="#b8ff1f" stroke="none" /><path d="M 119.83427380445688 93.10060997987247 l 16.995602479400343 -5.9119527787339745 a38.99449052615215,38.99449052615215 0 0,0 0.2144967682918511,0.6341215818768632 l -17.094584669264556 5.61932952238295" fill="#ffa20e" stroke="none" /><path d="M 119.94978838288452 93.4421083053983 l 28.558070658822103 -9.38760506091438 a51.061445882292176,51.061445882292176 0 0,0 0.2665779110537764,0.8350515095462167 l -28.71501328565314 8.895984517676776" fill="#b7ff1f" stroke="none" /><path d="M 120.26092885502905 94.47779374421319 l 11.585183407198192 -3.157593254654153 a33.00778371475177,33.00778371475177 0 0,0 0.14430770287316802,0.5479598528765959 l -11.63768059087609 2.958252897404759" fill="#ff4706" stroke="none" /><path d="M 120.35273937422433 94.82641323984039 l 34.87973103340223 -8.866291232563649 a56.9889810523043,56.9889810523043 0 0,0 0.23287454406735456,0.950207608427809 l -35.026793103985874 8.266227799527744" fill="#6fff27" stroke="none" /><path d="M 120.51834098615036 95.52812308129327 l 29.302943848225564 -6.386440226014821 a50.990817543586914,50.990817543586914 0 0,0 0.17905617202862553,0.8568486022209242 l -29.408257731078557 5.882475172508493" fill="#b8ff1f" stroke="none" /><path d="M 120.65975698304385 96.23510406497455 l 29.519864774190918 -5.379502720291826 a51.00602382529456,51.00602382529456 0 0,0 0.14958168029886715,0.8627473821791843 l -29.60786127198202 4.871962305192048" fill="#b8ff1f" stroke="none" /><path d="M 120.82617615685814 97.30363454192243 l 29.74257377385392 -3.8507716420968845 a50.990817543586914,50.990817543586914 0 0,0 0.10493889305466517,0.8690445722711582 l -29.80429475316825 3.3396333929023134" fill="#b8ff1f" stroke="none" /><path d="M 120.9064616781168 98.02013634271609 l 20.900062589013096 -1.9792576568926863 a41.99357228051084,41.99357228051084 0 0,0 0.06180329472243626,0.7182479670794436 l -20.930959506433272 1.6201886424375807" fill="#ffcd13" stroke="none" /><path d="M 120.93736805541906 98.37931529534042 l 29.931272094199585 -2.3168697586857405 a51.020808361130506,51.020808361130506 0 0,0 0.06009774747669739,0.8738080586686722 l -29.96663380284135 1.8027182758627345" fill="#b8ff1f" stroke="none" /><path d="M 120.99303781780057 99.45929381324524 l 17.99925815531649 -0.46359704231673576 a39.00522747313602,39.00522747313602 0 0,0 0.01149459610605206,0.6695025969533323 l -18.00456418302121 0.1545475293943371" fill="#ffa20f" stroke="none" /><line stroke="#e1ed5e" stroke-width="0.3" x1="184.99686870605535" x2="189.99668451229388" y1="99.2704041080226" y2="99.22748670261217" /><path d="M 185.99683186730306 99.26182062694052 a86.0,86.0 0 0,1 -10.086455211305974,41.156179273409016" fill="none" id="id100" stroke="none" /><text fill="#e1ed5e" style="font-size:6.75px; font-family:Arial;" text-anchor="middle"><textPath startOffset="21.40746469413373" xlink:href="#id100">April</textPath></text><path d="M 120.99922638620191 100.18025310272382 l 29.98971271928845 0.2574256150216992 a50.990817543586914,50.990817543586914 0 0,0 -0.015026674390871858,0.8752284495640144 l -29.98087461329891 -0.7722009805547846" fill="#b8ff1f" stroke="none" /><path d="M 120.82617615685814 102.69636545807757 l 21.05774223188858 2.7263463226045963 a42.23349882085954,42.23349882085954 0 0,0 -0.09925975008897535,0.7181941054546125 l -21.00783796524439 -3.087428736259294" fill="#ffd013" stroke="none" /><path d="M 120.26092885502905 105.52220625578681 l 17.372797260061922 4.73503314662778 a39.00651614107734,39.00651614107734 0 0,0 -0.18162456986627565,0.6445215246239636 l -17.28895419812107 -5.032562595154753" fill="#ffa20f" stroke="none" /><path d="M 119.31412917781788 108.2440532568976 l 16.55566514209288 7.06662898845731 a39.00075813841224,39.00075813841224 0 0,0 -0.26811371670656226,0.6134966533626657 l -16.43191754336935 -7.349787711595821" fill="#ffa20e" stroke="none" /><line stroke="#e1ed5e" stroke-width="0.3" x1="174.33088141563837" x2="178.70328620479359" y1="141.23008692659167" y2="143.65538615756765" /><path d="M 175.20536237346943 141.71514677278685 a86.0,86.0 0 0,1 -30.301960400862466,31.631185727798858" fill="none" id="id101" stroke="none" /><text fill="#e1ed5e" style="font-size:6.75px; font-family:Arial;" text-anchor="middle"><textPath startOffset="22.145653131862474" xlink:href="#id101">May</textPath></text><path d="M 117.21940702142032 112.02048342749411 l 16.120374785041665 11.253273571356933 a40.65967063004891,40.65967063004891 0 0,0 -0.4044376806362866,0.5688922469332904 l -15.92482200587542 -11.528343044999728" fill="#ffba11" stroke="none" /><path d="M 116.79662413953412 112.60449989151573 l 15.43456344363109 11.582384152595372 a40.297081938826025,40.297081938826025 0 0,0 -0.41994936670017374,0.5497272015663056 l -15.233462099576611 -11.845632267402554" fill="#ffb510" stroke="none" /><path d="M 116.1254893667686 113.45245675266167 l 23.032196043442514 19.21427710787823 a50.99450781996435,50.99450781996435 0 0,0 -0.5665379002703164,0.667380221979145 l -22.698963579665083 -19.606824112306935" fill="#b8ff1f" stroke="none" /><path d="M 115.6541949942343 113.99807769240083 l 13.428015672450776 12.00741441555909 a39.01359502838231,39.01359502838231 0 0,0 -0.4507041834433026,0.495402849356171 l -13.219913788165593 -12.236154840472933" fill="#ffa20f" stroke="none" /><path d="M 115.16444852881244 114.52719865689866 l 13.009929346471 12.463218017411197 a39.01638323720081,39.01638323720081 0 0,0 -0.4674779520875297,0.47967356140161743 l -12.794064593232664 -12.684714270880553" fill="#ffa20f" stroke="none" /><path d="M 113.86319453409587 115.77377054828091 l 9.917485243853246 11.284277679849012 a36.02303019759947,36.02303019759947 0 0,0 -0.4679915161441643,0.40423992535547504 l -9.722314247946226 -11.452861737669206" fill="#ff750a" stroke="none" /><path d="M 113.31354834802062 116.24036423190432 l 9.546314429417176 11.644951394875028 a36.057789086525965,36.057789086525965 0 0,0 -0.48205697660642605,0.38831097733121134 l -9.345006682455498 -11.807110665999643" fill="#ff760a" stroke="none" /><path d="M 112.7482090630111 116.68781488649013 l 18.208738084639357 23.835822661137957 a50.99507600537484,50.99507600537484 0 0,0 -0.7002037022103873,0.5254459119423096 l -17.796881393518202 -24.144887600344283" fill="#b8ff1f" stroke="none" /><path d="M 111.8722381534696 117.32195027204791 l 11.879184686831941 17.332085471823238 a42.01228725356782,42.01228725356782 0 0,0 -0.5983824315750994,0.40261840492316087 l -11.579905967159839 -17.53345355080352" fill="#ffcd13" stroke="none" /><line stroke="#e1ed5e" stroke-width="0.3" x1="143.1302829299769" x2="145.66735839644613" y1="173.24464959558577" y2="177.55315839532614" /><path d="M 143.63769802327073 174.10635135553383 a86.0,86.0 0 0,1 -40.68552437913181,11.842963189579606" fill="none" id="id102" stroke="none" /><text fill="#e1ed5e" style="font-size:6.75px; font-family:Arial;" text-anchor="middle"><textPath startOffset="21.407464694133747" xlink:href="#id102">June</textPath></text><path d="M 109.71004243097381 118.62028667847754 l 12.485303507858724 23.942215725293757 a48.002083207038915,48.002083207038915 0 0,0 -0.7339124866104656,0.3747409449968052 l -12.072463799534676 -24.153014621963397" fill="#dfff1b" stroke="none" /><path d="M 108.4095320186766 119.2426549942271 l 9.618977351252793 22.010102602186205 a45.02018613255689,45.02018613255689 0 0,0 -0.7108149824216391,0.3034046483242362 l -9.239727293660723 -22.171981900169847" fill="#fff717" stroke="none" /><path d="M 107.407793817531 119.65005319985036 l 9.522935659132665 25.2607182286666 a47.99611433143795,47.99611433143795 0 0,0 -0.7734478937241633,0.28402077994514807 l -9.087898613754374 -25.420469857620468" fill="#dfff1b" stroke="none" /><path d="M 106.72888874123015 119.89276391827305 l 8.16741790172136 24.145519771384656 a46.48946527904589,46.48946527904589 0 0,0 -0.7581707046184928,0.24922576979180025 l -7.751724459455132 -24.282166462578477" fill="#f3ff19" stroke="none" /><path d="M 105.69591212413111 120.21278271476187 l 7.325206457090431 25.99457351714778 a48.00697135884363,48.00697135884363 0 0,0 -0.7951294058762479,0.21671605535498578 l -6.877895650279488 -26.116490066646907" fill="#dfff1b" stroke="none" /><path d="M 104.9986988182912 120.39639698878246 l 6.427679487471854 26.227125759888562 a48.003281082466195,48.003281082466195 0 0,0 -0.8020384688963865,0.18927889482201946 l -5.976508864835589 -26.33360079835681" fill="#dfff1b" stroke="none" /><line stroke="#e1ed5e" stroke-width="0.3" x1="101.45913802915013" x2="101.54496967792366" y1="184.9874750549273" y2="189.98673829345242" /><path d="M 101.47630435890484 185.9873277026323 a86.0,86.0 0 0,1 -42.54439059252881,-10.42667462771756" fill="none" id="id103" stroke="none" /><text fill="#e1ed5e" style="font-size:6.75px; font-family:Arial;" text-anchor="middle"><textPath startOffset="22.145653131862474" xlink:href="#id103">July</textPath></text><path d="M 97.48249496171623 120.84855314841334 l -1.8005616570024523 14.91123347606165 a36.019550794157894,36.019550794157894 0 0,0 -0.61322801211631,-0.07939464342096622 l 2.056267491009556 -14.878127236440287" fill="#ff750a" stroke="none" /><line stroke="#e1ed5e" stroke-width="0.3" x1="58.13341422392154" x2="55.67067388415222" y1="173.97424548756322" y2="178.32567169271397" /><path d="M 57.64086615596768 174.84453072859336 a86.0,86.0 0 0,1 -31.369924170532247,-30.572349798747897" fill="none" id="id104" stroke="none" /><text fill="#e1ed5e" style="font-size:6.75px; font-family:Arial;" text-anchor="middle"><textPath startOffset="22.145653131862474" xlink:href="#id104">August</textPath></text><path d="M 84.83555147118756 114.52719865689866 l -10.824232241744417 10.369369633551914 a35.98959072891745,35.98959072891745 0 0,0 -0.4235532092796087,-0.4497988304717612 l 11.00064128476028 -10.182029343135662" fill="#ff750a" stroke="none" /><path d="M 84.3458050057657 113.99807769240083 l -11.196075166560304 10.011599452363694 a36.01946146603923,36.01946146603923 0 0,0 -0.40820158624224534,-0.46445847261201956 l 11.366287816761142 -9.817928701940374" fill="#ff750a" stroke="none" /><path d="M 83.4222238831116 112.89097897827486 l -11.831038759166564 9.199887298526113 a35.98704121654717,35.98704121654717 0 0,0 -0.37503299100527765,-0.49093022394664726 l 11.987223727526137 -8.995436161338596" fill="#ff750a" stroke="none" /><path d="M 82.78059297857968 112.02048342749411 l -12.297041347561791 8.584289896957433 a35.99690831267064,35.99690831267064 0 0,0 -0.34935901700190564,-0.5097252465264946 l 12.442590101379022 -8.371929915360887" fill="#ff750a" stroke="none" /><path d="M 82.18462484594161 111.11811171558189 l -21.742175606677872 13.568725622922235 a46.62874392438624,46.62874392438624 0 0,0 -0.41795349446547164,-0.6826956227848254 l 21.97189706559875 -13.193492884012853" fill="#f1ff19" stroke="none" /><line stroke="#e1ed5e" stroke-width="0.3" x1="26.387840678322732" x2="22.057713659400548" y1="142.50000000000003" y2="145.00000000000006" /><path d="M 25.521815274538298 143.00000000000003 a86.0,86.0 0 0,1 -11.493303480769221,-40.785679425670985" fill="none" id="id105" stroke="none" /><text fill="#e1ed5e" style="font-size:6.75px; font-family:Arial;" text-anchor="middle"><textPath startOffset="21.40746469413373" xlink:href="#id105">September</textPath></text><path d="M 81.81346652052679 110.50000000000001 l -6.5513813087273896 3.782441762157646 a28.564883524315285,28.564883524315285 0 0,0 -0.24153191647471128,-0.42676375326957455 l 6.615346590223479 -3.6694212387889493" fill="#ff0000" stroke="none" /><path d="M 81.29705330413844 109.54985784667822 l -13.370116654755428 6.826876829771 a36.012203922496944,36.012203922496944 0 0,0 -0.27640238826974683,-0.5529899311590482 l 13.485338956236912 -6.5963550424482" fill="#ff750a" stroke="none" /><path d="M 80.83023694016515 108.57439118712176 l -21.919663989105118 9.804386895456627 a45.01244826732737,45.01244826732737 0 0,0 -0.30944154367933846,-0.708062809283361 l 22.084739414801422 -9.426662016397417" fill="#fff717" stroke="none" /><path d="M 80.16572619554312 106.89939002012753 l -14.182802606946174 4.933514971534527 a36.01637305616621,36.01637305616621 0 0,0 -0.19811505476549468,-0.5856919566759372 l 14.265403083284035 -4.689321340384429" fill="#ff750a" stroke="none" /><path d="M 79.94057633289273 106.21446072829308 l -22.925831424042332 7.102481178549442 a45.000812181575355,45.000812181575355 0 0,0 -0.22226904010945173,-0.7398613454368795 l 23.044376784155414 -6.7078822295218385" fill="#fff717" stroke="none" /><path d="M 79.64726062577567 105.17358676015961 l -23.503416376284797 5.974476533456799 a45.25087526679889,45.25087526679889 0 0,0 -0.1849090254260328,-0.754491924097859 l 23.60251292822712 -5.57012878475084" fill="#fffa17" stroke="none" /><path d="M 79.34024301695615 103.76489593502545 l -24.78736447393239 4.517083517705207 a46.19558455502649,46.19558455502649 0 0,0 -0.1354744526606775,-0.7813806420119653 l 24.861253744085303 -4.090909842772649" fill="#f7ff18" stroke="none" /><path d="M 79.22317932658666 103.0534771498775 l -11.992745675079215 1.7625206213579196 a33.12156870078469,33.12156870078469 0 0,0 -0.07784433503223664,-0.5632428301811577 l 12.021234526666664 -1.5563894829766762" fill="#ff4906" stroke="none" /><path d="M 79.13060592940153 102.33845913500099 l -14.908167902335776 1.6704913089192428 a36.001466975513075,36.001466975513075 0 0,0 -0.06354705942536092,-0.6147601546952086 l 14.934647354242804 -1.4143266319411028" fill="#ff750a" stroke="none" /><path d="M 79.0935383218832 101.97986365728391 l -14.957279369563107 1.4164699073223532 a36.02420024951438,36.02420024951438 0 0,0 -0.053017977377315784,-0.6161492626071424 l 14.979390969638164 -1.1594995973395488" fill="#ff750a" stroke="none" /><path d="M 79.01933749520258 100.90099992219065 l -19.602255283650564 0.8418051851933609 a40.62032232597683,40.62032232597683 0 0,0 -0.023937581098708624,-0.6969165554969367 l 19.61381755174612 -0.5051823651323044" fill="#ffb911" stroke="none" /><path d="M 79.00696218219943 100.54070618675478 l -23.987068296846367 0.6178217913377181 a44.995023426607105,44.995023426607105 0 0,0 -0.013259751437865834,-0.7723140457221556 l 23.994139479882897 -0.20596082964651008" fill="#fff717" stroke="none" /><line stroke="#e1ed5e" stroke-width="0.3" x1="15.003131293944662" x2="10.003315487706104" y1="100.72959589197737" y2="100.7725132973878" /><path d="M 14.003168132696942 100.73817937305945 a86.0,86.0 0 0,1 10.791469493833604,-42.45332614584628" fill="none" id="id106" stroke="none" /><text fill="#e1ed5e" style="font-size:6.75px; font-family:Arial;" text-anchor="middle"><textPath startOffset="22.145653131862435" xlink:href="#id106">October</textPath></text><path d="M 79.17382384314186 97.30363454192245 l -14.864773437543384 -1.924542524621928 a35.98884095847886,35.98884095847886 0 0,0 0.08458317352968858,-0.6120017086000528 l 14.829545747458488 2.179432541422048" fill="#ff750a" stroke="none" /><path d="M 79.2786578344484 96.59031103205396 l -19.98861359152597 -3.2891187599260436 a41.25741779023758,41.25741779023758 0 0,0 0.12099264782909143,-0.6978534401332512 l 19.92920612620464 3.6317652329798875" fill="#ffc212" stroke="none" /><path d="M 79.407916724674 95.88100663000787 l -23.539693433933213 -4.708597954350649 a45.006000534434584,45.006000534434584 0 0,0 0.15804026219280842,-0.7562798658115262 l 23.455395460916037 5.111994271447585" fill="#fff717" stroke="none" /><path d="M 79.64726062577567 94.8264132398404 l -14.550516364925617 -3.6986843606124484 a36.01325389399005,36.01325389399005 0 0,0 0.15744740656754588,-0.5978534480198887 l 14.484879477553346 3.947918313005122" fill="#ff750a" stroke="none" /><path d="M 79.83685265289637 94.1308016681162 l -14.404519929402243 -4.192945817726163 a36.00236611428123,36.00236611428123 0 0,0 0.17782370961666064,-0.5919172952867081 l 14.330419899781951 4.439600716603595" fill="#ff750a" stroke="none" /><path d="M 80.05021161711548 93.44210830539832 l -34.19196278953953 -11.239577307598001 a56.99192155824314,56.99192155824314 0 0,0 0.31349513298006193,-0.9267926562209505 l 33.9939822349871 11.824871638293112" fill="#6fff27" stroke="none" /><line stroke="#e1ed5e" stroke-width="0.3" x1="26.387840678322718" x2="22.05771365940052" y1="57.49999999999999" y2="54.99999999999999" /><path d="M 25.521815274538284 56.99999999999999 a86.0,86.0 0 0,1 29.574782752854787,-30.34633250058573" fill="none" id="id107" stroke="none" /><text fill="#e1ed5e" style="font-size:6.75px; font-family:Arial;" text-anchor="middle"><textPath startOffset="21.40746469413373" xlink:href="#id107">November</textPath></text><path d="M 82.78059297857968 87.97951657250589 l -12.304911147397416 -8.589783628442165 a36.00650596004274,36.00650596004274 0 0,0 0.358153116654452,-0.5037872113180925 l 12.155642932212992 8.799748066469776" fill="#ff750a" stroke="none" /><path d="M 83.2033758604659 87.39550010848427 l -12.012458974538921 -9.014373161154321 a36.018591615178835,36.018591615178835 0 0,0 0.3753617882602207,-0.4913606301079036 l 11.855945208924393 9.21925470450311" fill="#ff750a" stroke="none" /><path d="M 83.42222388311158 87.10902102172516 l -11.863971455416323 -9.225495962321553 a36.02875891235682,36.02875891235682 0 0,0 0.3838496586198209,-0.484981504287114 l 11.70385536615494 9.427797410523349" fill="#ff760a" stroke="none" /><path d="M 84.58840730492382 85.73525988315684 l -11.025358272015996 -10.204907017536371 a36.023270358443085,36.023270358443085 0 0,0 0.4239495770871569,-0.4502197593476733 l 10.848552861192568 10.392668236828555" fill="#ff750a" stroke="none" /><path d="M 85.34317274990677 84.96080404539775 l -17.56340636825258 -18.0216021854784 a46.16448665456967,46.16448665456967 0 0,0 0.5722802881946969,-0.5482315705866735 l 17.25145359419258 18.320445886370642" fill="#f7ff18" stroke="none" /><path d="M 85.60350026404147 84.71141617570332 l -10.283027130314315 -10.920218465093452 a35.99972727379229,35.99972727379229 0 0,0 0.4535455274982162,-0.4197949692107812 l 10.094051831502146 11.095131180436598" fill="#ff750a" stroke="none" /><path d="M 86.13680546590413 84.22622945171909 l -16.62167364523169 -18.912413409727275 a46.178550707874784,46.178550707874784 0 0,0 0.5999264870438131,-0.5182022108850753 l 16.29456767842503 19.19495975307706" fill="#f7ff18" stroke="none" /><path d="M 86.96720088162412 83.53348406188908 l -14.899877457280217 -18.825508426679352 a45.00845925429082,45.00845925429082 0 0,0 0.6099504719552837,-0.47430117624487683 l 14.574517040689688 19.07851065454503" fill="#fff717" stroke="none" /><path d="M 87.83215693770416 82.88440491214696 l -14.78778063543846 -20.80086538824928 a46.52164683208973,46.52164683208973 0 0,0 0.654858436678389,-0.457142047670701 l 14.428527107586305 21.05165225172511" fill="#f3ff19" stroke="none" /><path d="M 88.4268655584334 82.4767994020092 l -8.27166358046626 -12.524352925427907 a36.00932492116439,36.00932492116439 0 0,0 0.5187303886370174,-0.3362347707917577 l 8.055447559572217 12.664501537923572" fill="#ff750a" stroke="none" /><path d="M 89.03521579738668 82.08984904055464 l -17.231866526294517 -28.146958945657225 a54.00285626833748,54.00285626833748 0 0,0 0.7947863773752452,-0.4772463835463946 l 16.746147392361838 28.43861932973954" fill="#93ff23" stroke="none" /><line stroke="#e1ed5e" stroke-width="0.3" x1="56.869717070023135" x2="54.33264160355391" y1="26.7553504044142" y2="22.446841604673864" /><path d="M 56.362301976729285 25.89364864446614 a86.0,86.0 0 0,1 42.16139366436587,-11.88097634709845" fill="none" id="id108" stroke="none" /><text fill="#e1ed5e" style="font-size:6.75px; font-family:Arial;" text-anchor="middle"><textPath startOffset="22.145653131862474" xlink:href="#id108">December</textPath></text><path d="M 89.34428304082924 81.90426304109057 l -16.745811530904135 -28.438048963558032 a54.002194361622166,54.002194361622166 0 0,0 0.802851991988814,-0.46352681369416654 l 16.25516707105492 28.721322674528373" fill="#93ff23" stroke="none" /><path d="M 89.97174638481275 81.54914285379989 l -12.175170763306905 -22.400942886422317 a46.49582368382002,46.49582368382002 0 0,0 0.7045471959717902,-0.375131698076344 l 11.788834751548555 22.60664505222124" fill="#f3ff19" stroke="none" /><path d="M 90.61103034731259 81.2157712731953 l -14.754540691301303 -29.51896505757919 a54.000996486194886,54.000996486194886 0 0,0 0.8327461543661951,-0.4073378735424594 l 14.245634287673054 29.767896681218865" fill="#93ff23" stroke="none" /><path d="M 91.5904679813234 80.7573450057729 l -6.015947258877719 -13.765664642093569 a36.022820789059004,36.022820789059004 0 0,0 0.5687573270034942,-0.24276868249657543 l 5.778754856703793 13.866907974249548" fill="#ff750a" stroke="none" /><path d="M 91.92203290615298 80.6158196554323 l -10.386459352575894 -24.923721388418127 a48.00130414869257,48.00130414869257 0 0,0 0.7633248274998412,-0.3104375621050373 l 9.957080063885613 25.098346207102455" fill="#dfff1b" stroke="none" /><path d="M 92.592206182469 80.34994680014964 l -8.955249575211939 -23.754863445902817 a46.38680823356539,46.38680823356539 0 0,0 0.7475142441132471,-0.2744975845895429 l 8.546146179444564 23.905091879501082" fill="#f4ff19" stroke="none" /><path d="M 92.93061703081487 80.22567764915836 l -8.084393916701828 -22.61348861942789 a45.015147148027225,45.015147148027225 0 0,0 0.7298760844975265,-0.2538887898270524 l 7.695012060159297 22.748935841823528" fill="#fff717" stroke="none" /><path d="M 93.61358852112211 79.99465700312896 l -7.299075563454382 -22.864250242867342 a45.00105087802358,45.00105087802358 0 0,0 0.7379301619270667,-0.22861265047402204 l 6.9055047686557 22.986179481148007" fill="#fff717" stroke="none" /><path d="M 93.95794788825049 79.88797359093562 l -9.495052098324534 -31.60594033699098 a54.00138601536806,54.00138601536806 0 0,0 0.8900970993683157,-0.2590942932120006 l 8.951094986574594 31.7642783245055" fill="#93ff23" stroke="none" /></svg>