<?xml version="1.0" encoding="utf-8" ?>
<svg baseProfile="full" height="200mm" version="1.1" viewBox="0,0,200,200" width="200mm" xmlns="http://www.w3.org/2000/svg" xmlns:ev="http://www.w3.org/2001/xml-events" xmlns:xlink="http://www.w3.org/1999/xlink"><defs /><rect fill="#1a1a1a" height="200" width="200" x="0" y="0" /><text alignment-baseline="middle" fill="#e1ed5e" style="dominant-baseline: central; font-size:9.0px; font-family:Arial;" text-anchor="middle" x="100.0" y="100.0">2022</text><line stroke="#e1ed5e" stroke-width="0.3" x1="100.0" x2="100.0" y1="15.0" y2="10.0" /><path d="M 100.0 14.0 a86.0,86.0 0 0,1 42.46469731375804,11.215312516191453" fill="none" id="id73" stroke="none" /><text fill="#e1ed5e" style="font-size:6.75px; font-family:Arial;" text-anchor="middle"><textPath startOffset="22.20632615414155" xlink:href="#id73">January</textPath></text><line stroke="#e1ed5e" stroke-width="0.3" x1="143.23703022742887" x2="145.7803849466894" y1="26.81831364943548" y2="22.513508569990506" /><path d="M 143.74570117128098 25.957352633546492 a86.0,86.0 0 0,1 28.547481713284135,27.462654790039103" fill="none" id="id74" stroke="none" /><text fill="#e1ed5e" style="font-size:6.75px; font-family:Arial;" text-anchor="middle"><textPath startOffset="19.985693538727396" xlink:href="#id74">February</textPath></text><line stroke="#e1ed5e" stroke-width="0.3" x1="172.23445277983987" x2="176.4835382374775" y1="55.19839476539836" y2="52.563006222186495" /><path d="M 173.08426987136738 54.67131705675599 a86.0,86.0 0 0,1 12.851231095245387,41.99856678651699" fill="none" id="id75" stroke="none" /><text fill="#e1ed5e" style="font-size:6.75px; font-family:Arial;" text-anchor="middle"><textPath startOffset="22.20632615414155" xlink:href="#id75">March</textPath></text><line stroke="#e1ed5e" stroke-width="0.3" x1="184.98032266829074" x2="189.97916517819016" y1="98.17113171792111" y2="98.06355123074" /><path d="M 185.9800911702706 98.14961562048488 a86.0,86.0 0 0,1 -9.607161424134198,41.387399972396054" fill="none" id="id76" stroke="none" /><text fill="#e1ed5e" style="font-size:6.75px; font-family:Arial;" text-anchor="middle"><textPath startOffset="21.466115282336823" xlink:href="#id76">April</textPath></text><path d="M 120.8583938346157 102.4346265915055 l 3.1139551507043386 0.3634660499160149 a24.1350955727122,24.1350955727122 0 0,0 -0.051716327378815555,0.4122300133575602 l -3.107237314078675 -0.41701381756097" fill="#ff0200" stroke="none" /><path d="M 120.76222939487914 103.15116336523771 l 6.3685028381765045 0.966572156264867 a27.44143540937334,27.44143540937334 0 0,0 -0.07489975883206185,0.4664008697446521 l -6.350921324983154 -1.0760522557027241" fill="#ff3304" stroke="none" /><line stroke="#e1ed5e" stroke-width="0.3" x1="174.80103733775053" x2="179.2010983576182" y1="140.37084112569926" y2="142.7455964860345" /><path d="M 175.68104954172406 140.8457921977663 a86.0,86.0 0 0,1 -30.038265399797805,32.042727171017184" fill="none" id="id77" stroke="none" /><text fill="#e1ed5e" style="font-size:6.75px; font-family:Arial;" text-anchor="middle"><textPath startOffset="22.206326154141568" xlink:href="#id77">May</textPath></text><path d="M 118.48025628344425 109.97397251340804 l 5.38567468831804 2.906700561050346 a27.12,27.12 0 0,0 -0.2252556083654791,0.4089043590976918 l -5.334842670501051 -2.998975438545843" fill="#ff2e04" stroke="none" /><path d="M 118.30583269289576 110.29060199501025 l 10.016279691305774 5.630639671143351 a32.49042914606403,32.49042914606403 0 0,0 -0.27825422981296016,0.4851597037977262 l -9.917873465340435 -5.802219220799392" fill="#ff7b0b" stroke="none" /><path d="M 118.12598468904814 110.60418214915192 l 7.8148888273639 4.571917389448647 a30.054000000000002,30.054000000000002 0 0,0 -0.26507502675073713,0.444280991921287 l -7.735032924914935 -4.705760475256038" fill="#ff5908" stroke="none" /><path d="M 117.75023020441432 111.22182372390056 l 12.671128618779772 8.010779021190151 a35.991,35.991 0 0,0 -0.33556489343793244,0.5208041665346185 l -12.531358861964788 -8.227704787646221" fill="#ffab0f" stroke="none" /><path d="M 117.14729908036423 112.12312394758627 l 3.914483418631722 2.7675360097489805 a25.794,25.794 0 0,0 -0.2594387635935096,0.36033775147588204 l -3.8662648626626095 -2.834507366675994" fill="#ff1b02" stroke="none" /><path d="M 112.04921762599082 117.19931262002967 l 1.7230381205166878 2.459501704664244 a24.003,24.003 0 0,0 -0.3404346808760444,0.2341540777556974 l -1.68044655501776 -2.488796571785035" fill="#ff0000" stroke="none" /><path d="M 111.45004920935366 117.60387380957326 l 4.964414192912627 7.632536716007836 a30.105,30.105 0 0,0 -0.43683530235129325,0.2788089581075826 l -4.832297088514403 -7.716860102939227" fill="#ff5a08" stroke="none" /><path d="M 111.1453310114006 117.79835938074945 l 4.768609482734971 7.615155192192087 a29.985,29.985 0 0,0 -0.4398096995252249,0.2701670391500515 l -4.636820583277437 -7.696110698170517" fill="#ff5808" stroke="none" /><line stroke="#e1ed5e" stroke-width="0.3" x1="143.8653032363475" x2="146.44561519142675" y1="172.8068346515853" y2="177.08958963109032" /><path d="M 144.38136562736335 173.6633856474863 a86.0,86.0 0 0,1 -40.68145358897372,12.25698825130547" fill="none" id="id78" stroke="none" /><text fill="#e1ed5e" style="font-size:6.75px; font-family:Arial;" text-anchor="middle"><textPath startOffset="21.466115282336833" xlink:href="#id78">June</textPath></text><line stroke="#e1ed5e" stroke-width="0.3" x1="102.19456741930631" x2="102.32365962044197" y1="184.97166512339345" y2="189.96999836594603" /><path d="M 102.22038585953345 185.97133177190398 a86.0,86.0 0 0,1 -42.740103519485714,-10.115201625700543" fill="none" id="id79" stroke="none" /><text fill="#e1ed5e" style="font-size:6.75px; font-family:Arial;" text-anchor="middle"><textPath startOffset="22.20632615414155" xlink:href="#id79">July</textPath></text><path d="M 96.22490169976321 120.6578951692458 l -0.5441534549912754 2.977688032252718 a24.027,24.027 0 0,0 -0.40620776784218493,-0.0778506854895884 l 0.5953288374051554 -2.9678801484146615" fill="#ff0000" stroke="none" /><path d="M 95.86986931433489 120.58985236759428 l -0.6384002002699481 3.1826028945338565 a24.246,24.246 0 0,0 -0.40849722981824227,-0.08560456625258488 l 0.6930888915175772 -3.1711423475547305" fill="#ff0400" stroke="none" /><path d="M 95.16358092515715 120.4354850818985 l -1.3873613574692067 5.862064863493171 a27.024,27.024 0 0,0 -0.4517469730047371,-0.11102841501531689 l 1.4880616152171544 -5.8373151901638245" fill="#ff2d04" stroke="none" /><path d="M 94.46302465271185 120.25689768951611 l -1.9861921567200786 7.266438585482138 a28.533,28.533 0 0,0 -0.4726543514510025,-0.13357684093676048 l 2.110977676275695 -7.231172951206857" fill="#ff4306" stroke="none" /><path d="M 94.11515582081647 120.15858648285463 l -4.203460127988241 14.398990344896168 a36.0,36.0 0 0,0 -0.5933571866738643,-0.1787736529616133 l 4.450692289102351 -14.32450132282883" fill="#ffab0f" stroke="none" /><path d="M 92.7421414339146 119.70592522655815 l -4.157716121428922 11.288680022642598 a33.03,33.03 0 0,0 -0.5318298384898978,-0.2010925380465669 l 4.351416180679102 -11.215439234489397" fill="#ff830c" stroke="none" /><path d="M 91.7346041902142 119.30500536409082 l -5.9156618581466915 13.816868124870718 a36.03,36.03 0 0,0 -0.5680375281943576,-0.2490109592762327 l 6.152620060998792 -13.712992612300033" fill="#ffac0f" stroke="none" /><path d="M 91.40352486487194 119.15986991738527 l -6.164900739763262 13.740363855039156 a36.06,36.06 0 0,0 -0.5641363844108026,-0.25896734494063234 l 6.400505119941483 -13.632209439764448" fill="#ffac0f" stroke="none" /><path d="M 90.42595943632237 118.69057910512821 l -6.852277603432133 13.377114473813194 a36.03,36.03 0 0,0 -0.5495588943795411,-0.28750323978199305 l 7.08152740033817 -13.257181815086483" fill="#ffac0f" stroke="none" /><line stroke="#e1ed5e" stroke-width="0.3" x1="58.666819895761336" x2="56.23545636021788" y1="174.27360380694188" y2="178.64263932499728" /><path d="M 58.180547188652646 175.14741091055294 a86.0,86.0 0 0,1 -31.652253787137756,-30.449443065178592" fill="none" id="id80" stroke="none" /><text fill="#e1ed5e" style="font-size:6.75px; font-family:Arial;" text-anchor="middle"><textPath startOffset="22.20632615414155" xlink:href="#id80">August</textPath></text><path d="M 89.7882731507175 118.34994917583269 l -7.906794217587305 14.208103504716178 a37.260000000000005,37.260000000000005 0 0,0 -0.557748902119801,-0.31670438297580816 l 8.150191886628313 -14.069895955945736" fill="#ffbc11" stroke="none" /><path d="M 89.1626897886671 117.98757091392108 l -7.740935865237789 12.848264938515056 a36.0,36.0 0 0,0 -0.5280356572588993,-0.3243626282942089 l 7.960950722428997 -12.713113843392469" fill="#ffab0f" stroke="none" /><path d="M 88.54995079064634 117.60387380957326 l -9.977900025293913 15.340518605485267 a39.3,39.3 0 0,0 -0.5639087780723572,-0.3737279891005326 l 10.240483502106231 -15.166492595293416" fill="#ffd714" stroke="none" /><path d="M 87.65650970185807 116.9893568818739 l -10.544867426126965 14.513764879086557 a38.94,38.94 0 0,0 -0.5388832977095764,-0.398652980765404 l 10.793135694255106 -14.330101949581387" fill="#ffd213" stroke="none" /><path d="M 87.07902340077011 116.55440617244103 l -11.499669173314594 14.733421493472518 a39.69,39.69 0 0,0 -0.5349503387641932,-0.42499690253030303 l 11.751577004796145 -14.533290676937083" fill="#ffdc14" stroke="none" /><path d="M 86.79598089348748 116.32954008644616 l -4.263011882959758 5.2721086564811905 a27.78,27.78 0 0,0 -0.36924894423945454,-0.3038667427689295 l 4.353130955743902 -5.19794679485508" fill="#ff3805" stroke="none" /><path d="M 85.70375840098266 115.38237550388516 l -6.841772765244012 7.36156541971647 a31.05,31.05 0 0,0 -0.3883677305792921,-0.3672259299542309 l 6.9674763302141205 -7.242704853016308" fill="#ff6709" stroke="none" /><path d="M 85.18274418774928 114.88116024355367 l -12.72167249023241 12.776539009108214 a39.03,39.03 0 0,0 -0.47200163828964464,-0.4781351676159361 l 12.939714753577586 -12.555663347511615" fill="#ffd313" stroke="none" /><path d="M 84.9287848128048 114.62390073753433 l -12.466047990551456 12.096055038617681 a38.370000000000005,38.370000000000005 0 0,0 -0.4558601725518763,-0.4779675684156891 l 12.672414714482288 -11.879680353619491" fill="#ffcb12" stroke="none" /><line stroke="#e1ed5e" stroke-width="0.3" x1="26.63291911575756" x2="22.317208475507996" y1="142.92168965132927" y2="145.44649492493687" /><path d="M 25.769776987707644 143.4266507060508 a86.0,86.0 0 0,1 -11.730757126820373,-40.83630448921669" fill="none" id="id81" stroke="none" /><text fill="#e1ed5e" style="font-size:6.75px; font-family:Arial;" text-anchor="middle"><textPath startOffset="21.46611528233685" xlink:href="#id81">September</textPath></text><path d="M 81.87401531095188 110.60418214915194 l -15.04456729190995 8.80147118379611 a38.43,38.43 0 0,0 -0.3291218470411497,-0.5738516820792983 l 15.193841135103478 -8.541199655858506" fill="#ffcb13" stroke="none" /><path d="M 81.02952815118164 109.00673069616217 l -13.360632316382079 6.343311761725639 a35.79,35.79 0 0,0 -0.2594355458715525,-0.558801085337656 l 13.467842479093457 -6.112390609109156" fill="#ffa80f" stroke="none" /><path d="M 80.0844068197444 106.66101706037122 l -14.225423700182574 4.757869328836589 a36.0,36.0 0 0,0 -0.19149899825785832,-0.5893733143237656 l 14.305214949456682 -4.51229711453502" fill="#ffab0f" stroke="none" /><path d="M 79.86692584326677 105.97154293290107 l -14.380767254809447 4.265387809215055 a36.0,36.0 0 0,0 -0.17109833676667874,-0.5956157562778355 l 14.45205822846223 -4.017214577432623" fill="#ffab0f" stroke="none" /><path d="M 79.50377843672027 104.57218783832718 l -17.56818991138263 3.9190181471375802 a39.0,39.0 0 0,0 -0.14052249951175289,-0.6564743353699816 l 17.63304644961882 -3.616029992351435" fill="#ffd313" stroke="none" /><path d="M 79.35854240842038 103.8639653848113 l -15.834946752397512 2.9642134452052367 a37.11,37.11 0 0,0 -0.1121315011806051,-0.6288930076328781 l 15.883624695917305 -2.691201686839145" fill="#ffba11" stroke="none" /><path d="M 79.10278846688536 102.07522291339032 l -14.926579666510461 1.4823020809930816 a36.0,36.0 0 0,0 -0.055929263525013706,-0.6171747624881723 l 14.94988352631255 -1.2251459299563432" fill="#ffab0f" stroke="none" /><path d="M 79.0235259727143 100.99374915477108 l -18.18959962080346 0.8617224813514927 a39.21,39.21 0 0,0 -0.02613601766211496,-0.6744544830752947 l 18.201737771316775 -0.5484907512622013" fill="#ffd614" stroke="none" /><line stroke="#e1ed5e" stroke-width="0.3" x1="15.007084014347285" x2="10.007500721073583" y1="101.09737516637583" y2="101.16192664675087" /><path d="M 14.007167355692545 101.11028546245083 a86.0,86.0 0 0,1 10.666146001902534,-42.60595125391555" fill="none" id="id82" stroke="none" /><text fill="#e1ed5e" style="font-size:6.75px; font-family:Arial;" text-anchor="middle"><textPath startOffset="22.20632615414155" xlink:href="#id82">October</textPath></text><path d="M 79.00486145842228 99.54816195383935 l -29.993055059396728 -0.6454829230866403 a51.0,51.0 0 0,0 0.026443027750576276,-0.877515356253585 l 29.977500337190506 1.1616684267652198" fill="#99ff23" stroke="none" /><path d="M 79.12142395522702 97.74499172005258 l -29.826537206818557 -3.2214403999248917 a51.0,51.0 0 0,0 0.10178057127699836,-0.8719937783539071 l 29.766666282537972 3.734377916603661" fill="#99ff23" stroke="none" /><path d="M 79.21141760316559 97.0276538004421 l -29.727672827473214 -4.2504550653678015 a51.03,51.03 0 0,0 0.1318131789424956,-0.8684841568872164 l 29.650103755091415 4.76153833464711" fill="#98ff23" stroke="none" /><path d="M 79.32604984820605 96.31383870115002 l -20.792087009804195 -3.707225077700555 a42.120000000000005,42.120000000000005 0 0,0 0.1334086337579347,-0.7126742560607828 l 20.7251926521364 4.064577411223911" fill="#fffb17" stroke="none" /><path d="M 79.3925641242962 95.95851677861259 l -19.370989723161568 -3.798994228104165 a40.739999999999995,40.739999999999995 0 0,0 0.14088416592491051,-0.6870012270429992 l 19.302726261321663 4.131871111310566" fill="#ffe915" stroke="none" /><path d="M 79.71946130924805 94.55025226153421 l -14.573015659211766 -3.9160330177832745 a36.09,36.09 0 0,0 0.16638045001238289,-0.5985590028385888 l 14.503448438633022 4.166303324040806" fill="#ffac10" stroke="none" /><path d="M 79.81627453868168 94.20196356495316 l -28.833893516169024 -8.282909192924064 a51.0,51.0 0 0,0 0.24964282130014026,-0.8416714893298334 l 28.687044797757174 8.778010069000437" fill="#99ff23" stroke="none" /><path d="M 80.02781315780177 93.51064311812611 l -28.53169548885461 -9.270509831248416 a51.0,51.0 0 0,0 0.27846657226855276,-0.8325796071886462 l 28.367891622814284 9.760262541359385" fill="#99ff23" stroke="none" /><path d="M 80.38941819471856 92.48833698450439 l -58.83174541584431 -22.534989046486853 a84.0,84.0 0 0,0 0.5288258004732356,-1.3458039804169464 l 58.435126065489385 23.544342031799562" fill="#4dd2ff" stroke="none" /><path d="M 80.95270993114464 91.15688171328213 l -20.135706644218526 -9.34843933167318 a43.2,43.2 0 0,0 0.31894314409696833,-0.6717756021109053 l 19.971805306279805 9.693657349424617" fill="#f6ff19" stroke="none" /><path d="M 81.6062741919709 89.86733742301443 l -26.2767511543273 -14.475232252836529 a51.0,51.0 0 0,0 0.4302028711469541,-0.7652829044440945 l 26.023690641887914 14.925398667215408" fill="#99ff23" stroke="none" /><line stroke="#e1ed5e" stroke-width="0.3" x1="26.266209847984243" x2="21.928928074336255" y1="57.711370442889674" y2="55.22380399835377" /><path d="M 25.398753493254645 57.213857153982495 a86.0,86.0 0 0,1 29.58750427330803,-30.492523968695096" fill="none" id="id83" stroke="none" /><text fill="#e1ed5e" style="font-size:6.75px; font-family:Arial;" text-anchor="middle"><textPath startOffset="21.46611528233685" xlink:href="#id83">November</textPath></text><path d="M 81.96595687620814 89.24020034530311 l -25.762918748274092 -15.371142363852705 a51.0,51.0 0 0,0 0.4562902041620446,-0.7500211222113906 l 25.49451274582583 15.81233125927117" fill="#99ff23" stroke="none" /><path d="M 82.15384107792192 88.93136811851018 l -13.792531395491778 -8.554471211265705 a37.230000000000004,37.230000000000004 0 0,0 0.34246707579822905,-0.5417006702666551 l 13.643236723447586 8.790619529246577" fill="#ffbc11" stroke="none" /><path d="M 82.54541684631803 88.32363383020206 l -10.04885287276262 -6.722250809183671 a33.09,33.09 0 0,0 0.32077687766768487,-0.47070048618961635 l 9.931651529426194 6.894229318643704" fill="#ff840c" stroke="none" /><path d="M 82.95767976084542 87.72973835380427 l -12.197432056880638 -8.782001549634376 a36.03,36.03 0 0,0 0.366712289101609,-0.5001951502150396 l 12.044457155265397 8.990659143520917" fill="#ffac0f" stroke="none" /><path d="M 84.5562425177563 85.77008943001954 l -22.084573199608496 -20.348772115072062 a51.03,51.03 0 0,0 0.6007754076117922,-0.6408653169863382 l 21.731030470026248 20.72590684893645" fill="#98ff23" stroke="none" /><path d="M 85.05521093208273 85.24692304244772 l -19.214728801607926 -18.968241802567228 a48.0,48.0 0 0,0 0.5855181710461412,-0.5830037699426072 l 18.885374830394472 19.296181423159947" fill="#bcff1f" stroke="none" /><path d="M 85.57189188830299 84.74124197986013 l -10.470684172488694 -11.073498677472934 a36.24,36.24 0 0,0 0.456955537679734,-0.4246903714597512 l 10.278520751014103 11.25209363500733" fill="#ffae10" stroke="none" /><path d="M 86.37877921826538 84.01681056812374 l -9.748902302355777 -11.439397007671438 a36.03,36.03 0 0,0 0.4754972830172978,-0.39821529995718763 l 9.55054748237937 11.605513465022439" fill="#ffac0f" stroke="none" /><path d="M 86.93701828274178 83.55741782278169 l -19.314551539088953 -24.31153221917279 a52.05,52.05 0 0,0 0.7063121668548521,-0.5512878495681575 l 18.893206817074674 24.640398457964167" fill="#8dff24" stroke="none" /><path d="M 89.00827224532344 82.1063720568725 l -7.976853856250987 -12.985661421583956 a36.24,36.24 0 0,0 0.5343466057272569,-0.3219378511056971 l 7.752145184306081 13.121045882148271" fill="#ffae10" stroke="none" /><line stroke="#e1ed5e" stroke-width="0.3" x1="56.762969772571076" x2="54.21961505331055" y1="26.818313649435495" y2="22.513508569990535" /><path d="M 56.25429882871897 25.957352633546506 a86.0,86.0 0 0,1 42.265352541879196,-11.944610805530505" fill="none" id="id84" stroke="none" /><text fill="#e1ed5e" style="font-size:6.75px; font-family:Arial;" text-anchor="middle"><textPath startOffset="22.20632615414155" xlink:href="#id84">December</textPath></text><path d="M 90.58718382345135 81.22770947309562 l -13.581349054734464 -27.085733474533473 a51.3,51.3 0 0,0 0.7927773334459594,-0.38901239452777325 l 13.11310045427808 27.315501029196078" fill="#95ff23" stroke="none" /><path d="M 91.90106846888425 80.62456947434976 l -5.80809089802873 -13.894951605537743 a36.06,36.06 0 0,0 0.5747554125068095,-0.2344571640104864 l 5.568051615933539 13.992869655731807" fill="#ffac0f" stroke="none" /></svg>