<?xml version="1.0" encoding="utf-8" ?>
<svg baseProfile="full" height="200mm" version="1.1" viewBox="0,0,200,200" width="200mm" xmlns="http://www.w3.org/2000/svg" xmlns:ev="http://www.w3.org/2001/xml-events" xmlns:xlink="http://www.w3.org/1999/xlink"><defs /><rect fill="#1a1a1a" height="200" width="200" x="0" y="0" /><text alignment-baseline="middle" fill="#e1ed5e" style="dominant-baseline: central; font-size:9.0px; font-family:Arial;" text-anchor="middle" x="100.0" y="100.0">2025</text><line stroke="#e1ed5e" stroke-width="0.3" x1="100.0" x2="100.0" y1="15.0" y2="10.0" /><path d="M 100.0 14.0 a86.0,86.0 0 0,1 42.46469731375804,11.215312516191453" fill="none" id="id109" stroke="none" /><text fill="#e1ed5e" style="font-size:6.75px; font-family:Arial;" text-anchor="middle"><textPath startOffset="22.20632615414155" xlink:href="#id109">January</textPath></text><path d="M 101.80526077348638 79.07773832637324 l 3.4434778511440873 -39.908552673993114 a61.05683607381145,61.05683607381145 0 0,0 1.046324815349271,0.09936114887850145 l -4.129927793583603 39.84336598059943" fill="red" stroke="none" /><path d="M 102.52436894288641 79.15227682838746 l 5.610805968134152 -46.33733508840587 a67.67579422685017,67.67579422685017 0 0,0 1.1552750222314059,0.14998785450078303 l -6.407595718873405 46.23388891074095" fill="red" stroke="none" /><path d="M 102.88285421437855 79.19881850522331 l 5.756981774225446 -41.53939597448537 a62.936431143742496,62.936431143742496 0 0,0 1.0718104780056348,0.15795700326183842 l -6.471161232659736 41.43414448706257" fill="red" stroke="none" /><path d="M 103.59715602781102 79.31037775812273 l 6.921993924815619 -39.8129628956223 a61.41022165768683,61.41022165768683 0 0,0 1.0398940207440828,0.19003398545567765 l -7.606283066662603 39.68791342881588" fill="red" stroke="none" /><path d="M 103.95276090670814 79.375362276772 l 11.858282720124386 -61.87391316968404 a84.0,84.0 0 0,0 1.4177343621314986,0.2843841756911667 l -12.921583491723009 61.66062503791566" fill="red" stroke="none" /><path d="M 105.01212808612495 79.60689891045804 l 10.086395310829174 -41.039030860412346 a63.26035286563747,63.26035286563747 0 0,0 1.0552161574991243,0.26899809391436197 l -10.791320357013324 40.85932977032911" fill="red" stroke="none" /><path d="M 105.36241919743992 79.69619591428918 l 10.794028687340424 -40.86958435997162 a63.27095907428603,63.27095907428603 0 0,0 1.0506055704782735,0.28717018926705756 l -11.495932147042408 40.67772762987826" fill="red" stroke="none" /><path d="M 106.0581310904928 79.89281104454417 l 11.574526705205505 -38.41633534420687 a61.12211970631753,61.12211970631753 0 0,0 1.0047737987403462,0.3121881102568595 l -12.23408587665657 38.211407099067486" fill="red" stroke="none" /><path d="M 106.40334571778207 80.00007090966166 l 12.75806585957058 -39.84798318989688 a62.840530694285476,62.840530694285476 0 0,0 1.027344459369087,0.3386993159456822 l -13.442093141182085 39.622470149691964" fill="red" stroke="none" /><path d="M 107.4271985657038 80.35727306442388 l 20.89032727460742 -55.24869042073973 a80.06626420256273,80.06626420256273 0 0,0 1.28493709294515,0.498535629367248 l -21.838247532552238 54.88091208748193" fill="red" stroke="none" /><path d="M 107.76421540070413 80.48803036053334 l 17.218807417104554 -43.271963773686394 a67.57198919628152,67.57198919628152 0 0,0 1.077020702285459,0.439343786841573 l -17.9611119889784 42.969159100661244" fill="red" stroke="none" /><line stroke="#e1ed5e" stroke-width="0.3" x1="143.23703022742887" x2="145.7803849466894" y1="26.81831364943548" y2="22.513508569990506" /><path d="M 143.74570117128098 25.957352633546492 a86.0,86.0 0 0,1 28.547481713284135,27.462654790039103" fill="none" id="id110" stroke="none" /><text fill="#e1ed5e" style="font-size:6.75px; font-family:Arial;" text-anchor="middle"><textPath startOffset="19.985693538727396" xlink:href="#id110">February</textPath></text><path d="M 112.19680574252982 82.90503203632743 l 18.444960346175527 -25.8523430531968 a52.75783688339243,52.75783688339243 0 0,0 0.7347274521709977,0.5338107404952513 l -18.887233114700315 25.531013077884875" fill="red" stroke="none" /><path d="M 113.06298171725822 83.55741782278167 l 24.955687086621516 -31.41211896274823 a61.118668169509505,61.118668169509505 0 0,0 0.8181071384149398,0.6615190770603061 l -25.492697623600947 30.977893788423795" fill="red" stroke="none" /><path d="M 114.16331599549186 84.49514656593476 l 28.63924492094665 -31.351930233210506 a63.46351232517239,63.46351232517239 0 0,0 0.8002208443044866,0.7437180635628787 l -29.17467364904598 30.854307583572986" fill="red" stroke="none" /><path d="M 115.19652480421416 85.50635884689758 l 28.984465407269063 -27.64384923788448 a61.05348468775299,61.05348468775299 0 0,0 0.7187817391613575,0.7667462437298975 l -29.456014468400884 27.140833577276528" fill="red" stroke="none" /><path d="M 115.68641384162765 86.03803664274999 l 31.996591916418264 -28.479118835204694 a63.8350569498339,63.8350569498339 0 0,0 0.7234887115729474,0.8270726649975575 l -32.482072491569056 27.924130614004188" fill="red" stroke="none" /><path d="M 116.15771136456269 86.58626213691792 l 31.736333950335993 -26.34673034689158 a62.24736467435304,62.24736467435304 0 0,0 0.6773150805885404,0.8303082021649414 l -32.18514752300094 25.79653797511854" fill="red" stroke="none" /><path d="M 116.38621287248628 86.86637796730983 l 40.96918794602424 -32.83698519337534 a73.50468510091846,73.50468510091846 0 0,0 0.7828106133355268,0.9940899832736962 l -41.52835263995373 32.12690281614861" fill="red" stroke="none" /><line stroke="#e1ed5e" stroke-width="0.3" x1="172.23445277983987" x2="176.4835382374775" y1="55.19839476539836" y2="52.563006222186495" /><path d="M 173.08426987136738 54.67131705675599 a86.0,86.0 0 0,1 12.851231095245387,41.99856678651699" fill="none" id="id111" stroke="none" /><text fill="#e1ed5e" style="font-size:6.75px; font-family:Arial;" text-anchor="middle"><textPath startOffset="22.20632615414155" xlink:href="#id111">March</textPath></text><path d="M 118.56541770881063 90.18545643968196 l 37.45220115174824 -19.798975999294928 a63.3635081376846,63.3635081376846 0 0,0 0.5014484444935897,0.9686387869273988 l -37.78745902940195 19.151364490107188" fill="red" stroke="none" /><path d="M 118.73160827565052 90.50648371742162 l 22.343935387805836 -11.324308692529902 a46.049778761061944,46.049778761061944 0 0,0 0.3522588506512101,0.7101323477864104 l -22.535554251410453 10.938016756244542" fill="red" stroke="none" /><path d="M 119.04729006885535 91.15688171328212 l 31.777024213451057 -14.753173963519794 a56.03477429440831,56.03477429440831 0 0,0 0.398641211860305,0.8783530684391307 l -32.02626774227471 14.203998886238601" fill="red" stroke="none" /><path d="M 119.47837535516314 92.15188598940014 l 23.192814242226053 -9.344714180764878 a46.00460588760782,46.00460588760782 0 0,0 0.28962407778533594,0.7370616871553766 l -23.35023186989309 8.944103488713719" fill="red" stroke="none" /><path d="M 120.18372546131832 94.20196356495316 l 38.47654492388289 -11.052885642491225 a61.03262157672874,61.03262157672874 0 0,0 0.2813697712211513,1.0122367722801526 l -38.661101465670406 10.38893756679212" fill="red" stroke="none" /><path d="M 120.45610955862082 95.25157060432595 l 39.0101714541198 -9.055340866854262 a61.04738037743223,61.04738037743223 0 0,0 0.2287986425964565,1.025659451854536 l -39.160264483718294 8.382503245449762" fill="red" stroke="none" /><path d="M 120.73433829027371 96.67025291283417 l 24.691445549786778 -3.9652227018926913 a46.007808268892546,46.007808268892546 0 0,0 0.11884059306486033,0.783011024390338 l -24.756042036290935 3.5396125651102714" fill="red" stroke="none" /><path d="M 120.78858239683441 97.02765380044208 l 24.779217195844836 -3.5429261435019694 a46.03121911727757,46.03121911727757 0 0,0 0.10539834206686302,0.7853400715296631 l -24.836531536969538 3.115867729907642" fill="red" stroke="none" /><path d="M 120.96714384426684 98.82574320788733 l 25.01108637743367 -1.4007362316469611 a46.050279514809745,46.050279514809745 0 0,0 0.03751210106368226,0.7918211652240092 l -25.03149208673085 0.9700039597999521" fill="red" stroke="none" /><line stroke="#e1ed5e" stroke-width="0.3" x1="184.98032266829074" x2="189.97916517819016" y1="98.17113171792111" y2="98.06355123074" /><path d="M 185.9800911702706 98.14961562048488 a86.0,86.0 0 0,1 -9.607161424134198,41.387399972396054" fill="none" id="id112" stroke="none" /><text fill="#e1ed5e" style="font-size:6.75px; font-family:Arial;" text-anchor="middle"><textPath startOffset="21.466115282336823" xlink:href="#id112">April</textPath></text><path d="M 120.99513854157772 99.54816195383933 l 25.005618718854542 -0.538147908983353 a46.01140881047431,46.01140881047431 0 0,0 0.01022547225820779,0.7919740952639922 l -25.011177198230467 0.10763755565889799" fill="red" stroke="none" /><path d="M 120.9764740272857 100.99374915477107 l 39.988974117312914 1.8944561024674644 a61.03382338572346,61.03382338572346 0 0,0 -0.058748394757691544,1.048992053337908 l -39.9504393716677 -2.5825198721407956" fill="red" stroke="none" /><path d="M 120.92983693683757 101.71520430193887 l 19.99151656701308 1.638308760909251 a41.05853410010887,41.05853410010887 0 0,0 -0.06378815482321529,0.7038969730929696 l -19.96035381591279 -1.9821871225507912" fill="red" stroke="none" /><path d="M 120.8583938346157 102.4346265915055 l 24.883149835441557 2.9044028389781382 a46.052079785600625,46.052079785600625 0 0,0 -0.0986797183997982,0.7865744474873951 l -24.82946860779491 -3.3322950407529284" fill="red" stroke="none" /><path d="M 120.49622156327973 104.57218783832717 l 24.44806876039943 5.453744843251869 a46.04897999776667,46.04897999776667 0 0,0 -0.17923893164251145,0.7721566263972693 l -24.350569262826365 -5.873770126997703" fill="red" stroke="none" /><path d="M 120.13307415673323 105.97154293290107 l 24.027612701789305 7.126677213170078 a46.06223653722677,46.06223653722677 0 0,0 -0.2320072106727816,0.7582129883260202 l -23.901378718610392 -7.539217174048155" fill="red" stroke="none" /><path d="M 120.02730092923936 106.31721596034902 l 19.687688686110533 6.210091995407188 a41.64389324697803,41.64389324697803 0 0,0 -0.2215212177876014,0.6817722051199196 l -19.577875217306687 -6.548063100504903" fill="red" stroke="none" /><path d="M 119.26925614724726 108.34839909993367 l 22.99334701195112 9.9618602831463 a46.05858469891963,46.05858469891963 0 0,0 -0.3214426767755454,0.7247683777404968 l -22.8184632504443 -10.356176997379485" fill="red" stroke="none" /><path d="M 118.97047184881838 109.00673069616215 l 36.18480738339432 17.179689466450068 a61.05598601379079,61.05598601379079 0 0,0 -0.45892802649782993,0.9455276645768783 l -35.88372610028178 -17.800006086992223" fill="red" stroke="none" /><line stroke="#e1ed5e" stroke-width="0.3" x1="174.80103733775053" x2="179.2010983576182" y1="140.37084112569926" y2="142.7455964860345" /><path d="M 175.68104954172406 140.8457921977663 a86.0,86.0 0 0,1 -30.038265399797805,32.042727171017184" fill="none" id="id113" stroke="none" /><text fill="#e1ed5e" style="font-size:6.75px; font-family:Arial;" text-anchor="middle"><textPath startOffset="22.206326154141568" xlink:href="#id113">May</textPath></text><path d="M 116.27256486870786 113.27417163493432 l 19.376832248432947 15.806444717368855 a46.006105706150024,46.006105706150024 0 0,0 -0.5058568493747867,0.609337162199979 l -19.101879399164616 -16.137643136682605" fill="red" stroke="none" /><path d="M 115.80600337817218 113.82643327865902 l 18.813810970390968 16.457538055359784 a45.99620055274839,45.99620055274839 0 0,0 -0.5264180834596803,0.5914362972867381 l -18.527734037282947 -16.778948522387388" fill="red" stroke="none" /><path d="M 114.29624159901734 115.38237550388516 l 23.8599719861299 25.672694887029486 a56.04833128611708,56.04833128611708 0 0,0 -0.7123488034235769,0.6507137423003273 l -23.41452363323946 -26.079601395916395" fill="red" stroke="none" /><path d="M 112.34349029814194 116.9893568818739 l 20.5836901223763 28.331018941019806 a56.01906528293459,56.01906528293459 0 0,0 -0.7849942872484258,0.5600725810607334 l -20.09296850727899 -28.68113578392476" fill="red" stroke="none" /><path d="M 111.7513745106137 117.40417183066458 l 11.2164495655618 16.611930408030695 a41.04407575165406,41.04407575165406 0 0,0 -0.5889342138479473,0.39031348333729277 l -10.92884065297389 -16.802541912459308" fill="red" stroke="none" /><line stroke="#e1ed5e" stroke-width="0.3" x1="143.8653032363475" x2="146.44561519142675" y1="172.8068346515853" y2="177.08958963109032" /><path d="M 144.38136562736335 173.6633856474863 a86.0,86.0 0 0,1 -40.68145358897372,12.25698825130547" fill="none" id="id114" stroke="none" /><text fill="#e1ed5e" style="font-size:6.75px; font-family:Arial;" text-anchor="middle"><textPath startOffset="21.466115282336833" xlink:href="#id114">June</textPath></text><path d="M 107.2578585660854 119.70592522655815 l 8.647172713913005 23.478073783051236 a46.01986299935792,46.01986299935792 0 0,0 -0.7456980571990915,0.267380792645515 l -8.241755096084178 -23.62344211673671" fill="red" stroke="none" /><path d="M 105.53697534728816 120.25689768951611 l 6.603390420445056 24.15835284807615 a46.04457580748723,46.04457580748723 0 0,0 -0.7663342524479666,0.2023958411751422 l -6.1865657251855914 -24.268440038554875" fill="red" stroke="none" /><path d="M 102.70371172650421 120.8252237178851 l 2.9690972364148642 22.869344236058915 a44.06127585773709,44.06127585773709 0 0,0 -0.7529706481290529,0.09117425933735357 l -2.5749991652344306 -22.91706402412162" fill="red" stroke="none" /><line stroke="#e1ed5e" stroke-width="0.3" x1="102.19456741930631" x2="102.32365962044197" y1="184.97166512339345" y2="189.96999836594603" /><path d="M 102.22038585953345 185.97133177190398 a86.0,86.0 0 0,1 -42.740103519485714,-10.115201625700543" fill="none" id="id115" stroke="none" /><text fill="#e1ed5e" style="font-size:6.75px; font-family:Arial;" text-anchor="middle"><textPath startOffset="22.20632615414155" xlink:href="#id115">July</textPath></text><line stroke="#e1ed5e" stroke-width="0.3" x1="58.666819895761336" x2="56.23545636021788" y1="174.27360380694188" y2="178.64263932499728" /><path d="M 58.180547188652646 175.14741091055294 a86.0,86.0 0 0,1 -31.652253787137756,-30.449443065178592" fill="none" id="id116" stroke="none" /><text fill="#e1ed5e" style="font-size:6.75px; font-family:Arial;" text-anchor="middle"><textPath startOffset="22.20632615414155" xlink:href="#id116">August</textPath></text><line stroke="#e1ed5e" stroke-width="0.3" x1="26.63291911575756" x2="22.317208475507996" y1="142.92168965132927" y2="145.44649492493687" /><path d="M 25.769776987707644 143.4266507060508 a86.0,86.0 0 0,1 -11.730757126820373,-40.83630448921669" fill="none" id="id117" stroke="none" /><text fill="#e1ed5e" style="font-size:6.75px; font-family:Arial;" text-anchor="middle"><textPath startOffset="21.46611528233685" xlink:href="#id117">September</textPath></text><line stroke="#e1ed5e" stroke-width="0.3" x1="15.007084014347285" x2="10.007500721073583" y1="101.09737516637583" y2="101.16192664675087" /><path d="M 14.007167355692545 101.11028546245083 a86.0,86.0 0 0,1 10.666146001902534,-42.60595125391555" fill="none" id="id118" stroke="none" /><text fill="#e1ed5e" style="font-size:6.75px; font-family:Arial;" text-anchor="middle"><textPath startOffset="22.20632615414155" xlink:href="#id118">October</textPath></text><line stroke="#e1ed5e" stroke-width="0.3" x1="26.266209847984243" x2="21.928928074336255" y1="57.711370442889674" y2="55.22380399835377" /><path d="M 25.398753493254645 57.213857153982495 a86.0,86.0 0 0,1 29.58750427330803,-30.492523968695096" fill="none" id="id119" stroke="none" /><text fill="#e1ed5e" style="font-size:6.75px; font-family:Arial;" text-anchor="middle"><textPath startOffset="21.46611528233685" xlink:href="#id119">November</textPath></text><line stroke="#e1ed5e" stroke-width="0.3" x1="56.762969772571076" x2="54.21961505331055" y1="26.818313649435495" y2="22.513508569990535" /><path d="M 56.25429882871897 25.957352633546506 a86.0,86.0 0 0,1 42.265352541879196,-11.944610805530505" fill="none" id="id120" stroke="none" /><text fill="#e1ed5e" style="font-size:6.75px; font-family:Arial;" text-anchor="middle"><textPath startOffset="22.20632615414155" xlink:href="#id120">December</textPath></text></svg>