<?xml version="1.0" encoding="utf-8" ?>
<svg baseProfile="full" height="200mm" version="1.1" viewBox="0,0,200,200" width="200mm" xmlns="http://www.w3.org/2000/svg" xmlns:ev="http://www.w3.org/2001/xml-events" xmlns:xlink="http://www.w3.org/1999/xlink"><defs /><rect fill="#1a1a1a" height="200" width="200" x="0" y="0" /><text alignment-baseline="middle" fill="#e1ed5e" style="dominant-baseline: central; font-size:9.0px; font-family:Arial;" text-anchor="middle" x="100.0" y="100.0">2020</text><line stroke="#e1ed5e" stroke-width="0.3" x1="100.0" x2="100.0" y1="15.0" y2="10.0" /><path d="M 100.0 14.0 a86.0,86.0 0 0,1 42.35913384403234,11.155469271406648" fill="none" id="id49" stroke="none" /><text fill="#e1ed5e" style="font-size:6.75px; font-family:Arial;" text-anchor="middle"><textPath startOffset="22.145653131862478" xlink:href="#id49">January</textPath></text><line stroke="#e1ed5e" stroke-width="0.3" x1="143.13028292997686" x2="145.6673583964461" y1="26.7553504044142" y2="22.446841604673864" /><path d="M 143.63769802327073 25.89364864446614 a86.0,86.0 0 0,1 29.32050498858742,28.57503671076993" fill="none" id="id50" stroke="none" /><text fill="#e1ed5e" style="font-size:6.75px; font-family:Arial;" text-anchor="middle"><textPath startOffset="20.669276256404974" xlink:href="#id50">February</textPath></text><line stroke="#e1ed5e" stroke-width="0.3" x1="172.87174338648825" x2="177.1583165268699" y1="56.24261187166439" y2="53.66864786411523" /><path d="M 173.72905801456457 55.72781907015455 a86.0,86.0 0 0,1 12.242430191666344,42.057860355516425" fill="none" id="id51" stroke="none" /><text fill="#e1ed5e" style="font-size:6.75px; font-family:Arial;" text-anchor="middle"><textPath startOffset="22.145653131862474" xlink:href="#id51">March</textPath></text><line stroke="#e1ed5e" stroke-width="0.3" x1="184.99686870605535" x2="189.99668451229388" y1="99.2704041080226" y2="99.22748670261217" /><path d="M 185.99683186730306 99.26182062694052 a86.0,86.0 0 0,1 -10.086455211305974,41.156179273409016" fill="none" id="id52" stroke="none" /><text fill="#e1ed5e" style="font-size:6.75px; font-family:Arial;" text-anchor="middle"><textPath startOffset="21.40746469413373" xlink:href="#id52">April</textPath></text><line stroke="#e1ed5e" stroke-width="0.3" x1="174.33088141563837" x2="178.70328620479359" y1="141.23008692659167" y2="143.65538615756765" /><path d="M 175.20536237346943 141.71514677278685 a86.0,86.0 0 0,1 -30.301960400862466,31.631185727798858" fill="none" id="id53" stroke="none" /><text fill="#e1ed5e" style="font-size:6.75px; font-family:Arial;" text-anchor="middle"><textPath startOffset="22.145653131862474" xlink:href="#id53">May</textPath></text><path d="M 116.35404254752997 113.17365903436017 l 12.715386201063522 10.242615048614915 a37.327651676720365,37.327651676720365 0 0,0 -0.40625492957461984,0.49556495795347927 l -12.537684452250275 -10.459382288266887" fill="red" stroke="none" /><path d="M 116.1254893667686 113.45245675266167 l 18.276164224337723 15.246626210247761 a44.80079388486813,44.80079388486813 0 0,0 -0.4977270844065216,0.5863212539139301 l -18.011742576424087 -15.558114246611249" fill="red" stroke="none" /><path d="M 115.41159269507618 114.26474011684316 l 31.53186484735504 29.185423359303133 a63.96565416019662,63.96565416019662 0 0,0 -0.7527970603303108,0.7994443906943051 l -31.026211953288467 -29.722409209941933" fill="red" stroke="none" /><path d="M 115.16444852881244 114.52719865689866 l 18.104177563847486 17.343392573101127 a46.0709894341651,46.0709894341651 0 0,0 -0.5520032869370308,0.566404001232784 l -17.80378747575965 -17.65161926640165" fill="red" stroke="none" /><path d="M 114.65682725009322 115.03919595460226 l 16.750191306208873 17.18717189148479 a44.999328874408974,44.999328874408974 0 0,0 -0.5578363535049605,0.5343946078889261 l -16.452682466838603 -17.4721786296793" fill="red" stroke="none" /><path d="M 114.13192950727249 115.5334660781643 l 14.315465409816685 15.7352041858182 a42.27273373755824,42.27273373755824 0 0,0 -0.5409600936697715,0.48372985148498115 l -14.043240289323535 -15.978629567186568" fill="red" stroke="none" /><path d="M 113.86319453409587 115.77377054828091 l 17.125218854899984 19.485355423810592 a46.941322187206396,46.941322187206396 0 0,0 -0.6098359971301457,0.5267618096799677 l -16.788203378006983 -19.776461365955278" fill="red" stroke="none" /><path d="M 113.59037401385872 116.0094264158162 l 9.945255563972605 11.715486047370314 a36.36752164660446,36.36752164660446 0 0,0 -0.4794030187953798,0.3999350488383152 l -9.742678211015331 -11.8844832801205" fill="red" stroke="none" /><path d="M 113.31354834802062 116.24036423190432 l 9.256421629074264 11.291329314366674 a35.60052941028749,35.60052941028749 0 0,0 -0.47594386699444713,0.38338668895212535 l -9.061226991724565 -11.448564297112203" fill="red" stroke="none" /><path d="M 113.03279911837588 116.46651593811092 l 17.39560096113314 21.97877354494303 a49.02986655941951,49.02986655941951 0 0,0 -0.6644482113653548,0.5166789480367798 l -17.015742805132557 -22.274153544600605" fill="red" stroke="none" /><path d="M 112.45986205192187 116.90419585922612 l 17.185200206355248 23.315024593184294 a49.96414124246222,49.96414124246222 0 0,0 -0.6947846687217227,0.502970519888721 l -16.782434527259557 -23.60659588444609" fill="red" stroke="none" /><path d="M 112.16784306229584 117.11559508785304 l 18.292157014275414 25.730209630160726 a52.56971168457072,52.56971168457072 0 0,0 -0.7399935633113969,0.5165729779876771 l -17.847768359790262 -26.040427423953524" fill="red" stroke="none" /><path d="M 111.8722381534696 117.32195027204791 l 16.735302652714093 24.41730671088895 a50.601946251751116,50.601946251751116 0 0,0 -0.7207252358768899,0.48493610364328327 l -16.3136811287402 -24.700992488589357" fill="red" stroke="none" /><path d="M 111.27062007382361 117.71928675628689 l 17.12040031659087 26.91611292058946 a52.899611937361364,52.899611937361364 0 0,0 -0.7704094715975671,0.48079248951503945 l -16.65582671620359 -27.206041206946047" fill="red" stroke="none" /><path d="M 110.96478420261333 117.91015095944535 l 11.287449214083612 18.437200006465048 a42.617975248364765,42.617975248364765 0 0,0 -0.6272295300531188,0.37663331102871683 l -10.969286927473057 -18.62824731802969" fill="red" stroke="none" /><line stroke="#e1ed5e" stroke-width="0.3" x1="143.1302829299769" x2="145.66735839644613" y1="173.24464959558577" y2="177.55315839532614" /><path d="M 143.63769802327073 174.10635135553383 a86.0,86.0 0 0,1 -40.68552437913181,11.842963189579606" fill="none" id="id54" stroke="none" /><text fill="#e1ed5e" style="font-size:6.75px; font-family:Arial;" text-anchor="middle"><textPath startOffset="21.407464694133747" xlink:href="#id54">June</textPath></text><path d="M 110.34350942703117 118.27599006163325 l 15.131099659787399 26.735203264877708 a51.72004672080995,51.72004672080995 0 0,0 -0.7764307294082697,0.43067303732045864 l -14.669924742223035 -26.991009217631312" fill="red" stroke="none" /><path d="M 109.71004243097381 118.62028667847754 l 14.256605537897661 27.33892092282053 a51.83289475037088,51.83289475037088 0 0,0 -0.7924824535299549,0.40464718743343314 l -13.785195862654124 -27.5796260619268" fill="red" stroke="none" /><path d="M 109.06512990194946 118.94263497670748 l 13.073191697382008 27.317942597907507 a51.284952186507866,51.284952186507866 0 0,0 -0.7973864617835711,0.3732171265174827 l -12.60231652172693 -27.538335955995525" fill="red" stroke="none" /><path d="M 108.4095320186766 119.2426549942271 l 12.696861925342157 29.05290484608274 a52.70617578243616,52.70617578243616 0 0,0 -0.8321675814932137,0.3552028567963009 l -12.196259268678514 -29.266582352538446" fill="red" stroke="none" /><path d="M 107.407793817531 119.65005319985036 l 10.720615214376904 28.437705541842984 a51.39135875638496,51.39135875638496 0 0,0 -0.8281615863997782,0.30411240575924503 l -10.230864476323 -28.61754879661095" fill="red" stroke="none" /><path d="M 102.51750503828377 120.84855314841334 l 3.7946380630195176 31.42504667628685 a52.653322679240546,52.653322679240546 0 0,0 -0.8982759608285857,0.10065369503519883 l -3.254626200590132 -31.48555613182902" fill="red" stroke="none" /><path d="M 102.15924093988457 120.88869738790638 l 2.9712146182323926 28.743806162779702 a49.896963664562584,49.896963664562584 0 0,0 -0.8527639069035019,0.08075762859905325 l -2.4773511479438755 -28.79057554688394" fill="red" stroke="none" /><line stroke="#e1ed5e" stroke-width="0.3" x1="101.45913802915013" x2="101.54496967792366" y1="184.9874750549273" y2="189.98673829345242" /><path d="M 101.47630435890484 185.9873277026323 a86.0,86.0 0 0,1 -42.54439059252881,-10.42667462771756" fill="none" id="id55" stroke="none" /><text fill="#e1ed5e" style="font-size:6.75px; font-family:Arial;" text-anchor="middle"><textPath startOffset="22.145653131862474" xlink:href="#id55">July</textPath></text><path d="M 100.36049292484886 120.99690560180557 l 0.5410823636029443 31.51533505445703 a52.51997959578797,52.51997959578797 0 0,0 -0.9015752884517927,0.00773893952537927 l -3.8600842121171625e-15 -31.519979595787973" fill="red" stroke="none" /><path d="M 99.63950707515114 120.99690560180557 l -0.5002317417074257 29.13599112676488 a50.14028501463795,50.14028501463795 0 0,0 -0.8604710070463674,-0.022162680840716695 l 1.000316062824537 -29.12311072857411" fill="red" stroke="none" /><line stroke="#e1ed5e" stroke-width="0.3" x1="58.13341422392154" x2="55.67067388415222" y1="173.97424548756322" y2="178.32567169271397" /><path d="M 57.64086615596768 174.84453072859336 a86.0,86.0 0 0,1 -31.369924170532247,-30.572349798747897" fill="none" id="id56" stroke="none" /><text fill="#e1ed5e" style="font-size:6.75px; font-family:Arial;" text-anchor="middle"><textPath startOffset="22.145653131862474" xlink:href="#id56">August</textPath></text><path d="M 89.03521579738668 117.91015095944536 l -12.565101563846948 20.524149100501727 a45.0649636112215,45.0649636112215 0 0,0 -0.6563086860522775,-0.40958516047716387 l 12.91557437868894 -20.305428143183015" fill="red" stroke="none" /><path d="M 86.40962598614128 116.0094264158162 l -16.485660537670444 19.420066660771997 a46.47382956039654,46.47382956039654 0 0,0 -0.6037625884799733,-0.5215157439400895 l 16.816602605913282 -19.134206784367183" fill="red" stroke="none" /><path d="M 85.08716467003676 114.78537596483092 l -12.222969582525014 12.118500384780297 a38.21217699744143,38.21217699744143 0 0,0 -0.4578422899675093,-0.46978652321097913 l 12.429198673643333 -11.90689116950158" fill="red" stroke="none" /><path d="M 84.58840730492382 114.26474011684316 l -18.389464795300235 17.02101407576145 a46.05768017245124,46.05768017245124 0 0,0 -0.5320809097012398,-0.5848501266178615 l 18.678943405843352 -16.702826373585914" fill="red" stroke="none" /><path d="M 81.99639281039703 110.81064883170644 l -20.236414260064596 12.151385323760747 a44.6044196580101,44.6044196580101 0 0,0 -0.38853909523116853,-0.6598243264621265 l 20.442027065425535 -11.802209829005061" fill="red" stroke="none" /><line stroke="#e1ed5e" stroke-width="0.3" x1="26.387840678322732" x2="22.057713659400548" y1="142.50000000000003" y2="145.00000000000006" /><path d="M 25.521815274538298 143.00000000000003 a86.0,86.0 0 0,1 -11.493303480769221,-40.785679425670985" fill="none" id="id57" stroke="none" /><text fill="#e1ed5e" style="font-size:6.75px; font-family:Arial;" text-anchor="middle"><textPath startOffset="21.40746469413373" xlink:href="#id57">September</textPath></text><path d="M 81.81346652052679 110.50000000000001 l -13.837954922925725 7.989346999785084 a36.978693999570154,36.978693999570154 0 0,0 -0.31267534568608674,-0.5524673758543511 l 13.97306363363319 -7.7506228538316115" fill="red" stroke="none" /><path d="M 81.63589988554817 110.18625677009913 l -20.725096771970644 11.49586181673609 a44.69988344100111,44.69988344100111 0 0,0 -0.36644251457243154,-0.6742129535326881 l 20.919384636158405 -11.138394029728815" fill="red" stroke="none" /><path d="M 81.4637452351635 109.86951160357371 l -20.92225453485388 11.13992208913647 a44.703134792116515,44.703134792116515 0 0,0 -0.354840564827192,-0.680453570538374 l 21.110403168656024 -10.779122275493592" fill="red" stroke="none" /><path d="M 81.1358732173502 109.22738970284198 l -10.626550743902246 5.197978472091123 a32.829732072581024,32.829732072581024 0 0,0 -0.24328510791011124,-0.5083723062169337 l 10.714215109772269 -5.014793663809084" fill="red" stroke="none" /><path d="M 80.9802524753101 108.90220220490708 l -22.855036174691637 10.697310948184532 a46.234602039037824,46.234602039037824 0 0,0 -0.33028136033808453,-0.7217243786340862 l 23.035301999884776 -10.303397587335757" fill="red" stroke="none" /><path d="M 80.83023694016515 108.57439118712176 l -21.873645440925088 9.783803384188001 a44.96203608910878,44.96203608910878 0 0,0 -0.3090949812760772,-0.7072698066828457 l 22.038374304218134 -9.406871507729306" fill="red" stroke="none" /><path d="M 80.5471966667186 107.91128576633889 l -34.864891437216755 14.179247825957237 a58.63790275558434,58.63790275558434 0 0,0 -0.37120954712071075,-0.9356905507679137 l 35.10315965930359 -13.578656257975759" fill="red" stroke="none" /><path d="M 80.41425534168474 107.57618678355246 l -7.875820796520394 3.046536675994736 a29.444521237884608,29.444521237884608 0 0,0 -0.17830664910633826,-0.47297957085883996 l 7.926958129441168 -2.910888824941751" fill="red" stroke="none" /><path d="M 80.16572619554312 106.89939002012753 l -29.947633563291603 10.417341525585949 a52.70775552608363,52.70775552608363 0 0,0 -0.2899292456886799,-0.857124297827753 l 30.12204823055265 -9.901715553284035" fill="red" stroke="none" /><path d="M 80.05021161711548 106.5578916946017 l -32.657688119494054 10.73523074898684 a55.3768784584077,55.3768784584077 0 0,0 -0.2891076099598068,-0.9056254704821578 l 32.83716044523111 -10.173036244813291" fill="red" stroke="none" /><path d="M 79.83685265289637 105.86919833188381 l -32.54987079337657 9.474793001052074 a54.9008228672741,54.9008228672741 0 0,0 -0.2556326307766054,-0.907150024102349 l 32.707721916227754 -8.914635053046728" fill="red" stroke="none" /><path d="M 79.73907114497094 105.5222062557868 l -38.07091268688775 10.37639654664012 a60.459650253211265,60.459650253211265 0 0,0 -0.26432532762436217,-1.0036863227176793 l 38.24342749531685 -9.721329719549638" fill="red" stroke="none" /><path d="M 79.56144815229197 104.8234425847677 l -38.208454564220524 9.017091240928114 a60.258042929230776,60.258042929230776 0 0,0 -0.22894939664497502,-1.008793285616465 l 38.357614822423166 -8.359863621372622" fill="red" stroke="none" /><path d="M 79.48165901384964 104.47187691870673 l -23.63763080982193 5.151711617557339 a45.192513777859425,45.192513777859425 0 0,0 -0.15869521045622367,-0.7594140303459084 l 23.722583731102517 -4.745181135926022" fill="red" stroke="none" /><path d="M 79.407916724674 104.11899336999214 l -32.903992216363754 6.5817199733196805 a54.555800416347125,54.555800416347125 0 0,0 -0.1758092043661361,-0.9199080471420451 l 33.01212771301205 -6.01590936114432" fill="red" stroke="none" /><path d="M 79.22317932658666 103.0534771498775 l -34.208108606100254 5.0274139441804495 a55.575563413672526,55.575563413672526 0 0,0 -0.13061708571420239,-0.9450801653995248 l 34.28937020836967 -4.439445470580839" fill="red" stroke="none" /><path d="M 79.13060592940153 102.33845913500099 l -23.529796350818753 2.636562759567795 a44.677051748394334,44.677051748394334 0 0,0 -0.07886054377551314,-0.7629042245097933 l 23.57158928707593 -2.23225401277507" fill="red" stroke="none" /><path d="M 79.0935383218832 101.97986365728391 l -39.21074702453791 3.7132985104837126 a60.38618118135178,60.38618118135178 0 0,0 -0.08887229044921155,-1.032830729033402 l 39.26871293768486 -3.0396467340746485" fill="red" stroke="none" /><path d="M 79.06263194458094 101.62068470465958 l -8.338081398665212 0.6454202339689803 a29.363023896246105,29.363023896246105 0 0,0 -0.03458689997183982,-0.5028859348094318 l 8.347932259802118 -0.5021908750052053" fill="red" stroke="none" /><path d="M 79.03789590574601 101.26102812881392 l -39.23097439926116 2.360038000756223 a60.30189730382616,60.30189730382616 0 0,0 -0.053290826986285685,-1.0338278067750992 l 39.26570681570402 -1.686238400604393" fill="red" stroke="none" /><path d="M 79.01933749520258 100.90099992219065 l -23.99267351040465 1.0303486346571382 a45.014787121392786,45.014787121392786 0 0,0 -0.026527241923689777,-0.772311704848455 l 24.006825439325187 -0.6183306652445634" fill="red" stroke="none" /><line stroke="#e1ed5e" stroke-width="0.3" x1="15.003131293944662" x2="10.003315487706104" y1="100.72959589197737" y2="100.7725132973878" /><path d="M 14.003168132696942 100.73817937305945 a86.0,86.0 0 0,1 10.791469493833604,-42.45332614584628" fill="none" id="id58" stroke="none" /><text fill="#e1ed5e" style="font-size:6.75px; font-family:Arial;" text-anchor="middle"><textPath startOffset="22.145653131862435" xlink:href="#id58">October</textPath></text><path d="M 79.06263194458094 98.37931529534042 l -25.884404029849293 -2.0036165763226377 a46.96183451463693,46.96183451463693 0 0,0 0.06911524649121514,-0.8032239302039953 l 25.846195160660333 2.4476615539023134" fill="red" stroke="none" /><path d="M 79.17382384314186 97.30363454192245 l -38.93309131512662 -5.0406681383858905 a60.258042929230776,60.258042929230776 0 0,0 0.14162213524805822,-1.024707221667171 l 38.84082466332335 5.708263668253129" fill="red" stroke="none" /><path d="M 79.22317932658666 96.9465228501225 l -46.91120228452842 -6.8943312598537 a68.4151104955007,68.4151104955007 0 0,0 0.1807413450231396,-1.1604890901410971 l 46.785939447367014 7.698608531926247" fill="red" stroke="none" /><path d="M 79.407916724674 95.88100663000787 l -23.276318825239496 -4.655915656375797 a44.73740863391545,44.73740863391545 0 0,0 0.15709709164050772,-0.7517664532871839 l 23.19296402277462 5.05479856094839" fill="red" stroke="none" /><path d="M 79.73907114497095 94.47779374421319 l -60.782786565087164 -16.56661876736044 a84.0,84.0 0 0,0 0.3911260317016718,-1.3879683043879474 l 60.48944204131091 17.607594995651397" fill="red" stroke="none" /><path d="M 79.83685265289637 94.1308016681162 l -37.884824617052736 -11.027720306674071 a60.45719898101076,60.45719898101076 0 0,0 0.2986115790753927,-0.9939808285893451 l 37.689936717973715 11.67643873885414" fill="red" stroke="none" /><path d="M 79.94057633289273 93.78553927170692 l -37.781128490223864 -11.704690183003121 a60.552666689806074,60.552666689806074 0 0,0 0.31612899157056673,-0.9902695635163419 l 37.57463478287604 12.351528780210854" fill="red" stroke="none" /><path d="M 80.5471966667186 92.08871423366112 l -36.61834203327196 -14.892360918444812 a60.53081566311166,60.53081566311166 0 0,0 0.399717130552386,-0.9591756014136719 l 36.35729905818309 15.518769029299749" fill="red" stroke="none" /><line stroke="#e1ed5e" stroke-width="0.3" x1="26.387840678322718" x2="22.05771365940052" y1="57.49999999999999" y2="54.99999999999999" /><path d="M 25.521815274538284 56.99999999999999 a86.0,86.0 0 0,1 29.574782752854787,-30.34633250058573" fill="none" id="id59" stroke="none" /><text fill="#e1ed5e" style="font-size:6.75px; font-family:Arial;" text-anchor="middle"><textPath startOffset="21.40746469413373" xlink:href="#id59">November</textPath></text><path d="M 83.2033758604659 87.39550010848427 l -19.529032315578814 -14.654949926738558 a45.41619668453988,45.41619668453988 0 0,0 0.47329737335711625,-0.6195614547742554 l 19.274582964867392 14.988032294753697" fill="red" stroke="none" /><line stroke="#e1ed5e" stroke-width="0.3" x1="56.869717070023135" x2="54.33264160355391" y1="26.7553504044142" y2="22.446841604673864" /><path d="M 56.362301976729285 25.89364864446614 a86.0,86.0 0 0,1 42.16139366436587,-11.88097634709845" fill="none" id="id60" stroke="none" /><text fill="#e1ed5e" style="font-size:6.75px; font-family:Arial;" text-anchor="middle"><textPath startOffset="22.145653131862474" xlink:href="#id60">December</textPath></text></svg>