<?xml version="1.0" encoding="utf-8" ?>
<svg baseProfile="full" height="200mm" version="1.1" viewBox="0,0,200,200" width="200mm" xmlns="http://www.w3.org/2000/svg" xmlns:ev="http://www.w3.org/2001/xml-events" xmlns:xlink="http://www.w3.org/1999/xlink"><defs /><rect fill="#1a1a1a" height="200" width="200" x="0" y="0" /><text alignment-baseline="middle" fill="#e1ed5e" style="dominant-baseline: central; font-size:9.0px; font-family:Arial;" text-anchor="middle" x="100.0" y="100.0">2026</text><line stroke="#e1ed5e" stroke-width="0.3" x1="100.0" x2="100.0" y1="15.0" y2="10.0" /><path d="M 100.0 14.0 a86.0,86.0 0 0,1 42.46469731375804,11.215312516191453" fill="none" id="id121" stroke="none" /><text fill="#e1ed5e" style="font-size:6.75px; font-family:Arial;" text-anchor="middle"><textPath startOffset="22.20632615414155" xlink:href="#id121">January</textPath></text><path d="M 100.36148047927253 79.00311137660856 l 0.9289219545792513 -53.95718977516005 a74.96518529969424,74.96518529969424 0 0,0 1.290020059761464,0.03331741221374151 l -1.857568649535583 53.93320557080395" fill="red" stroke="none" /><path d="M 102.52436894288641 79.15227682838746 l 7.299147488076816 -60.28065218002645 a81.72095668961438,81.72095668961438 0 0,0 1.3950361593083316,0.18111573128407685 l -8.335698375892994 60.146078125578235" fill="red" stroke="none" /><line stroke="#e1ed5e" stroke-width="0.3" x1="143.23703022742887" x2="145.7803849466894" y1="26.81831364943548" y2="22.513508569990506" /><path d="M 143.74570117128098 25.957352633546492 a86.0,86.0 0 0,1 28.547481713284135,27.462654790039103" fill="none" id="id122" stroke="none" /><text fill="#e1ed5e" style="font-size:6.75px; font-family:Arial;" text-anchor="middle"><textPath startOffset="19.985693538727396" xlink:href="#id122">February</textPath></text><path d="M 110.99172775467656 82.1063720568725 l 28.249320996416024 -45.9875690917458 a74.97110938017343,74.97110938017343 0 0,0 1.0937958114042525,0.6849348367563224 l -29.036735960192537 45.494489913666534" fill="red" stroke="none" /><path d="M 112.77801427241765 83.33499621200491 l 32.812740497918725 -42.79416449492307 a74.9260276100724,74.9260276100724 0 0,0 1.0167370780998242,0.7935794166732137 l -33.54451013117798 42.22300668902664" fill="red" stroke="none" /><path d="M 113.6212207817346 84.01681056812373 l 37.05484394253533 -43.48028708971075 a78.12789883243838,78.12789883243838 0 0,0 1.0160577938017692,0.8811153063851334 l -37.79779553498386 42.836006789905944" fill="red" stroke="none" /><path d="M 117.04232023915458 87.72973835380427 l 47.31157654276345 -34.06375510653603 a79.298582203342,79.298582203342 0 0,0 0.7880292082515179,1.1146114298898782 l -47.890918370818845 33.24431717631436" fill="red" stroke="none" /><path d="M 117.45458315368197 88.32363383020206 l 34.93325258204385 -23.368845022457037 a63.02897873663466,63.02897873663466 0 0,0 0.5954838786334344,0.9069628009593468 l -35.33033309603521 22.764064157520018" fill="red" stroke="none" /><line stroke="#e1ed5e" stroke-width="0.3" x1="172.23445277983987" x2="176.4835382374775" y1="55.19839476539836" y2="52.563006222186495" /><path d="M 173.08426987136738 54.67131705675599 a86.0,86.0 0 0,1 12.851231095245387,41.99856678651699" fill="none" id="id123" stroke="none" /><text fill="#e1ed5e" style="font-size:6.75px; font-family:Arial;" text-anchor="middle"><textPath startOffset="22.20632615414155" xlink:href="#id123">March</textPath></text><path d="M 118.21658344932153 89.55222093294921 l 52.90601496555711 -30.34325054508564 a81.98982926011183,81.98982926011183 0 0,0 0.691612940246043,1.2303022484519988 l -53.42048554709559 29.428064786698847" fill="red" stroke="none" /><path d="M 118.3937258080291 89.86733742301442 l 51.67819854304802 -28.468280645707956 a80.00067124683821,80.00067124683821 0 0,0 0.6540698719127791,1.2118921366565436 l -52.16057651417926 27.574507525718957" fill="red" stroke="none" /><path d="M 118.56541770881063 90.18545643968196 l 47.715852625370374 -25.22481968650601 a74.97308699697291,74.97308699697291 0 0,0 0.5933247536077542,1.1461145724941215 l -48.14298681213825 24.39973239175154" fill="red" stroke="none" /><path d="M 119.34039704204932 91.81776055985345 l 52.1518173462373 -22.06359341216948 a77.62697419757501,77.62697419757501 0 0,0 0.5100399500909562,1.2351021951511956 l -52.52387898321445 21.162616646564985" fill="red" stroke="none" /><path d="M 119.47837535516314 92.15188598940014 l 56.324882973222905 -22.694095125873783 a81.72490753825372,81.72490753825372 0 0,0 0.5145028529466088,1.3093536412402607 l -56.70717937605121 21.721192479737738" fill="red" stroke="none" /><path d="M 119.7369772167798 92.82701384747503 l 50.891518256566904 -18.495443943917415 a75.1482047453198,75.1482047453198 0 0,0 0.43137545546295014,1.2195565022373207 l -51.20234679283966 17.61668981525348" fill="red" stroke="none" /><path d="M 120.73433829027371 96.67025291283417 l 53.25075181228802 -8.551588830762533 a74.93303477558368,74.93303477558368 0 0,0 0.19355597729920992,1.2752920542832658 l -53.39006368302653 7.633697664087184" fill="red" stroke="none" /><path d="M 120.83666639777658 97.38593545837742 l 35.95870170414677 -4.511199886447465 a57.240573293800026,57.240573293800026 0 0,0 0.11423486764835024,0.9786945839530528 l -36.03102692479871 3.8915615641695593" fill="red" stroke="none" /><line stroke="#e1ed5e" stroke-width="0.3" x1="184.98032266829074" x2="189.97916517819016" y1="98.17113171792111" y2="98.06355123074" /><path d="M 185.9800911702706 98.14961562048488 a86.0,86.0 0 0,1 -9.607161424134198,41.387399972396054" fill="none" id="id124" stroke="none" /><text fill="#e1ed5e" style="font-size:6.75px; font-family:Arial;" text-anchor="middle"><textPath startOffset="21.466115282336823" xlink:href="#id124">April</textPath></text><path d="M 120.92983693683757 101.71520430193887 l 48.923923022417455 4.009325227378277 a70.08793062130772,70.08793062130772 0 0,0 -0.10888795393449992,1.201569498180349 l -48.847660472205874 -4.850876114107197" fill="red" stroke="none" /><path d="M 120.81339534386255 102.79330883721812 l 35.733409003280386 4.795683044680438 a57.05378059040071,57.05378059040071 0 0,0 -0.13901003938087922,0.9722358916624347 l -35.645564912882904 -5.410064408323283" fill="red" stroke="none" /><path d="M 120.5718875245553 104.21870165774334 l 52.923269386870295 10.853038352902104 a75.02463219758934,75.02463219758934 0 0,0 -0.2703243292655093,1.2628652707253603 l -52.72861101888034 -11.762417443043633" fill="red" stroke="none" /><path d="M 120.41448212921028 104.9243191809786 l 61.24344638763086 14.772957542935806 a84.0,84.0 0 0,0 -0.35115474281975656,1.4026886424104164 l -60.980080330516046 -15.82497402474362" fill="red" stroke="none" /><path d="M 118.64920377521936 109.65438752849418 l 50.799839009838074 26.298245120672682 a78.20333329319587,78.20333329319587 0 0,0 -0.6291550956351503,1.190124337653334 l -50.33963140597803 -27.16878447341215" fill="red" stroke="none" /><line stroke="#e1ed5e" stroke-width="0.3" x1="174.80103733775053" x2="179.2010983576182" y1="140.37084112569926" y2="142.7455964860345" /><path d="M 175.68104954172406 140.8457921977663 a86.0,86.0 0 0,1 -30.038265399797805,32.042727171017184" fill="none" id="id125" stroke="none" /><text fill="#e1ed5e" style="font-size:6.75px; font-family:Arial;" text-anchor="middle"><textPath startOffset="22.206326154141568" xlink:href="#id125">May</textPath></text><line stroke="#e1ed5e" stroke-width="0.3" x1="143.8653032363475" x2="146.44561519142675" y1="172.8068346515853" y2="177.08958963109032" /><path d="M 144.38136562736335 173.6633856474863 a86.0,86.0 0 0,1 -40.68145358897372,12.25698825130547" fill="none" id="id126" stroke="none" /><text fill="#e1ed5e" style="font-size:6.75px; font-family:Arial;" text-anchor="middle"><textPath startOffset="21.466115282336833" xlink:href="#id126">June</textPath></text><line stroke="#e1ed5e" stroke-width="0.3" x1="102.19456741930631" x2="102.32365962044197" y1="184.97166512339345" y2="189.96999836594603" /><path d="M 102.22038585953345 185.97133177190398 a86.0,86.0 0 0,1 -42.740103519485714,-10.115201625700543" fill="none" id="id127" stroke="none" /><text fill="#e1ed5e" style="font-size:6.75px; font-family:Arial;" text-anchor="middle"><textPath startOffset="22.20632615414155" xlink:href="#id127">July</textPath></text><line stroke="#e1ed5e" stroke-width="0.3" x1="58.666819895761336" x2="56.23545636021788" y1="174.27360380694188" y2="178.64263932499728" /><path d="M 58.180547188652646 175.14741091055294 a86.0,86.0 0 0,1 -31.652253787137756,-30.449443065178592" fill="none" id="id128" stroke="none" /><text fill="#e1ed5e" style="font-size:6.75px; font-family:Arial;" text-anchor="middle"><textPath startOffset="22.20632615414155" xlink:href="#id128">August</textPath></text><line stroke="#e1ed5e" stroke-width="0.3" x1="26.63291911575756" x2="22.317208475507996" y1="142.92168965132927" y2="145.44649492493687" /><path d="M 25.769776987707644 143.4266507060508 a86.0,86.0 0 0,1 -11.730757126820373,-40.83630448921669" fill="none" id="id129" stroke="none" /><text fill="#e1ed5e" style="font-size:6.75px; font-family:Arial;" text-anchor="middle"><textPath startOffset="21.46611528233685" xlink:href="#id129">September</textPath></text><line stroke="#e1ed5e" stroke-width="0.3" x1="15.007084014347285" x2="10.007500721073583" y1="101.09737516637583" y2="101.16192664675087" /><path d="M 14.007167355692545 101.11028546245083 a86.0,86.0 0 0,1 10.666146001902534,-42.60595125391555" fill="none" id="id130" stroke="none" /><text fill="#e1ed5e" style="font-size:6.75px; font-family:Arial;" text-anchor="middle"><textPath startOffset="22.20632615414155" xlink:href="#id130">October</textPath></text><line stroke="#e1ed5e" stroke-width="0.3" x1="26.266209847984243" x2="21.928928074336255" y1="57.711370442889674" y2="55.22380399835377" /><path d="M 25.398753493254645 57.213857153982495 a86.0,86.0 0 0,1 29.58750427330803,-30.492523968695096" fill="none" id="id131" stroke="none" /><text fill="#e1ed5e" style="font-size:6.75px; font-family:Arial;" text-anchor="middle"><textPath startOffset="21.46611528233685" xlink:href="#id131">November</textPath></text><line stroke="#e1ed5e" stroke-width="0.3" x1="56.762969772571076" x2="54.21961505331055" y1="26.818313649435495" y2="22.513508569990535" /><path d="M 56.25429882871897 25.957352633546506 a86.0,86.0 0 0,1 42.265352541879196,-11.944610805530505" fill="none" id="id132" stroke="none" /><text fill="#e1ed5e" style="font-size:6.75px; font-family:Arial;" text-anchor="middle"><textPath startOffset="22.20632615414155" xlink:href="#id132">December</textPath></text></svg>